<?xml version="1.0" encoding="UTF-8"?>
<svg id="Layer_1" data-name="Layer 1" xmlns="http://www.w3.org/2000/svg" version="1.1" viewBox="0 0 19.1 18.8">
  <defs>
    <style>
      .cls-1 {
        fill: #775a2b;
        stroke-width: 0px;
      }
    </style>
  </defs>
  <path class="cls-1" d="M14.5,14.9c0,.3,0,.5,0,.5,0,0,.1,0,.2,0,.3-.2.4-.6.3-.9,0-.1,0-.3-.1-.4,0,0-.1-.1-.2,0-.2.1-.3.4-.3.6v.2Z"/>
  <path class="cls-1" d="M16.5,13.8c.2.3.8.4,1,.3,0,0,.2-.1.1-.2-.1-.3-.6-.6-.9-.6s-.3.2-.2.4h0Z"/>
  <path class="cls-1" d="M15.1,8.9c.1-.1.2-.4,0-.5-.1-.1-.3,0-.4.1,0,0,0,0,0,.1,0,0,0,.1,0,.2,0,0,0,.1.4.1h0Z"/>
  <path class="cls-1" d="M16.6,9.8c-.2,0-.5,0-.6.2,0,.1-.2.4,0,.5h.5c.2-.1.3-.3.3-.5,0,0,0-.2-.1-.2h0Z"/>
  <path class="cls-1" d="M16.7,11.6s-.4.2-.3.4.4.2.5.2c.3,0,.6-.2.6-.5s0-.2-.1-.3c-.3-.1-.5,0-.7.2Z"/>
  <path class="cls-1" d="M3,14.1c-.2.3,0,.7.4.8.2,0,.3,0,.5,0,.2,0,.4-.1.6-.2s0,0,0,0c0,0-.3-.1-.4-.2s-.2-.1-.3-.2-.3-.3-.6-.3c0,0-.1,0-.2,0Z"/>
  <path class="cls-1" d="M13.3,9.3c-.5.1-1.2.3-1.6.5-.2.1-.3.4-.3.5v1.5c.1.4.3.8.7,1.1.5.4,1,.3,1.5.3h1.8c.5,0,.7-.5.5-.9-.2-.5-.4-1-.7-1.5-.2-.4-.3-1-.7-1.3s-.6-.3-1.1-.2h0ZM14,12.1c-.3,0-1,.2-1.2,0s-.3-.6-.3-.8-.1-.3-.2-.4c.3,0,.6-.3,1-.4.1,0,.4-.1.5-.1,0,0,0,.2.1.3.2.5.4.9.6,1.4h-.5Z"/>
  <path class="cls-1" d="M4.7,13.7c.6.3,1.2.2,1.8,0h0c-.5,0-1-.3-1.4-.6-.3-.3-.4-.7-.7-1-.3-.3-.7,0-.7.3,0,.6.5,1.1,1,1.3Z"/>
  <path class="cls-1" d="M13.3,14.7c0-.1.2-.4,0-.5-.2-.2-.7,0-.9.3,0,0-.2.3-.1.5,0,.1.2.1.3.1h-.1c.3,0,.5-.1.7-.3h0Z"/>
  <path class="cls-1" d="M10.7,14.1h0c.2.1.3.1.4.1s.4,0,.4-.3c0-.1,0-.3-.1-.3-.2,0-.4,0-.5,0-.2.1-.2.3-.2.5h0Z"/>
  <path class="cls-1" d="M13.4,2.8c-.2,0-.2.4-.1.6.1.2.4.5.7.6h.2c.2-.3.1-.8-.1-1.1-.1-.2-.3-.3-.6-.1h0Z"/>
  <path class="cls-1" d="M12.3,3.2c-.3-.2-.8.2-.6.6.2.3.5.5.7.8s.4.6.6.9h0c.3-.8,0-1.7-.6-2.2h0Z"/>
  <path class="cls-1" d="M3.1,5s0,0,.2.2h.5c0,0,.2,0,.3-.2h0c0-.2,0-.3,0-.5v-.3s0-.2-.2-.2l-.2-.2h-.5c0,0-.2,0-.3.2h0c0,.2,0,.3,0,.5v.3s0,.2.2.2Z"/>
  <path class="cls-1" d="M.2,3.9c.2.4.4.8.7,1.2-.5.4-.7,1.2-.7,1.9s0,1,.6,1.2c.2.1.4.1.6,0,.1,0,.3-.2.5-.3.4-.2.6-.3,1-.5s1.1-.5,1.3-.5c.4,0,.9,0,1.3,0,0,0,.5,0,.5,0s0-.2-.2-.3v-.8c0-.4,0-.7,0-1.1.2-.7.5-1.3,1-1.8.2-.3,0-.6,0-.7,0,0,0-.3-.2-.4-.2-.3-.7-.4-1.1-.5-.4,0-.9.1-1.3.4-.2-.3-.7-.5-1-.6H.4C.1,1-.2,1.4,0,1.7.2,2.4,0,3.1.1,3.8h0ZM1.2,2.1c.5,0,1-.2,1.5-.2s.9.2,1.3.6v.2c0,.3.3.5.6.4.5-.2.7-.6,1.2-.7h.6c-.5.6-.9,1.2-1,2.1,0,.5-.2,1.1,0,1.7h-1.2c-.8,0-2,.5-2.5,1.3-.2,0-.2-.4-.1-.8,0-.3.1-1,.5-1s.7-.5.3-.8c-.4-.4-1-.8-1.1-1.4,0-.4,0-.8,0-1.2v-.2Z"/>
  <path class="cls-1" d="M1.3,18.8v-2.5c0-.3,0-1.7.4-3s.2-.6.5-1.2c.5-1,1.1-1.9,2.1-2.5,1-.7,2-1,3.2-.6.8.3,1.6,1.2,1.4,2.1,0,.4-.3.8-.7.9-.2,0-.4,0-.5,0,0,0,0,0,.1-.1.5-.8-.6-1.6-1.3-1-.6.6-.6,1.7,0,2.3.5.5,1.3.7,2,.5,0,0-.2.1-.3.2-1.1.6-2.4.5-3.4,1.1-.9.5-1.6,1.5-1.2,2.6.2.5.6.8,1.1.8h.7c.2,0,.4,0,.6-.2.4-.2.4-1,0-1.2,0,0-.2-.1-.5-.1-.5,0-.8.2-.8.6-.2,0-.3-.2-.3-.3-.2-.5,0-1,.5-1.3.9-.6,2.1-.6,3.2-1,.9-.3,1.7-.9,2-1.8v-.6c.5-.9.5-1.9,0-2.8l-.2-.2c.4,0,.8,0,1.1-.1.2,0,.3-.1.5-.2.2,0,.5-.2.7-.3.9-.4,1.4-1.1,1.8-2,.3-.8.7-1.8,1.6-2.2.4-.2,1.1-.2,1.2.3,0,.3-.1.5-.4.4-.5-.2-.9.6-.5.9.9.8,2.4-.2,2-1.4-.2-.5-.7-.9-1.2-1-.5-.2-1.1,0-1.6.2-1.1.7-1.4,1.8-2,2.9,0,0-.1.2-.2.3v-.2c0-1-.8-2.1-1.9-2-.5,0-1.1.3-1.3.8-.4.6-.3,1.3.3,1.7.6.4,1.2,0,1.2-.7h0c.1.6-.4,1-.8,1.1-1,.2-1.7-1-1.9-1.8-.4-2.4,1.6-3.8,3.6-4.3.4-.1,1-.3,1.4-.4.7-.2,1.5-.2,2.1-.2h3.5V0h-5.5C12.9,0,12,.2,11.3.5c-1.7.6-3.5,1.7-4.1,3.6-.4,1.2-.2,2.6.5,3.7-.6-.2-1.3-.3-2-.2-1.7,0-3,1.1-4,2.4-.4.5-.7,1.1-1,1.7C.4,12.3.1,12.9,0,13.5v5.3s1.3,0,1.3,0ZM7.7,11.9h0ZM5.1,17.3c0-.1,0,0,0,0h0Z"/>
  <path class="cls-1" d="M1.4,17.5h0Z"/>
  <path class="cls-1" d="M2.9,17.4c0,0-.2-.1-.5-.1-.5,0-.8.2-.8.6-.2,0-.3-.2-.3-.3,0-.1,0-.2,0-.4H.4c0,.2,0,.5.1.8.2.5.6.8,1.1.8h.7c.2,0,.4,0,.6-.2.4-.2.4-1,0-1.2Z"/>
  <path class="cls-1" d="M17.7,2.9c0,0-.1-.2-.1-.5,0-.5.2-.8.6-.8,0-.2-.2-.3-.3-.3-.1,0-.2,0-.4,0V.3c.2,0,.5,0,.8.1.5.2.8.6.8,1.1v.7c0,.2,0,.4-.2.6-.2.4-1,.4-1.2,0Z"/>
</svg>