<?xml version="1.0" encoding="UTF-8"?>
<svg id="Layer_1" data-name="Layer 1" xmlns="http://www.w3.org/2000/svg" version="1.1" xmlns:xlink="http://www.w3.org/1999/xlink" viewBox="0 0 674.1 284.1">
  <defs>
    <style>
      .cls-1 {
        fill: url(#linear-gradient);
      }

      .cls-1, .cls-2, .cls-3, .cls-4, .cls-5, .cls-6, .cls-7, .cls-8, .cls-9, .cls-10, .cls-11, .cls-12, .cls-13 {
        stroke-width: 0px;
      }

      .cls-2 {
        fill: url(#radial-gradient-8);
      }

      .cls-14 {
        fill: url(#radial-gradient-18);
        stroke: url(#linear-gradient-10);
      }

      .cls-14, .cls-15, .cls-16, .cls-17, .cls-18, .cls-19, .cls-20, .cls-21, .cls-22, .cls-23, .cls-24 {
        stroke-linecap: round;
        stroke-linejoin: round;
      }

      .cls-14, .cls-15, .cls-17, .cls-18, .cls-19, .cls-20, .cls-21, .cls-22, .cls-23, .cls-24 {
        stroke-width: 2.3px;
      }

      .cls-15 {
        fill: url(#radial-gradient-13);
        stroke: url(#linear-gradient-5);
      }

      .cls-3 {
        fill: #313a36;
      }

      .cls-16 {
        fill: none;
        stroke: #e8e2d3;
        stroke-width: 40px;
      }

      .cls-4 {
        fill: #1f2a22;
      }

      .cls-17 {
        fill: url(#radial-gradient-14);
        stroke: url(#linear-gradient-6);
      }

      .cls-18 {
        fill: url(#radial-gradient-17);
        stroke: url(#linear-gradient-9);
      }

      .cls-19 {
        fill: url(#radial-gradient-15);
        stroke: url(#linear-gradient-7);
      }

      .cls-5 {
        fill: url(#radial-gradient-2);
      }

      .cls-6 {
        fill: url(#radial-gradient-7);
      }

      .cls-7 {
        fill: #e8e2d3;
      }

      .cls-8 {
        fill: url(#radial-gradient-5);
      }

      .cls-9 {
        fill: url(#radial-gradient);
      }

      .cls-20 {
        fill: url(#radial-gradient-16);
        stroke: url(#linear-gradient-8);
      }

      .cls-21 {
        fill: url(#radial-gradient-11);
        stroke: url(#linear-gradient-3);
      }

      .cls-22 {
        fill: url(#radial-gradient-10);
        stroke: url(#linear-gradient-2);
      }

      .cls-23 {
        fill: url(#radial-gradient-19);
        stroke: url(#linear-gradient-11);
      }

      .cls-10 {
        fill: url(#radial-gradient-6);
      }

      .cls-11 {
        fill: url(#radial-gradient-9);
      }

      .cls-12 {
        fill: url(#radial-gradient-3);
      }

      .cls-13 {
        fill: url(#radial-gradient-4);
      }

      .cls-24 {
        fill: url(#radial-gradient-12);
        stroke: url(#linear-gradient-4);
      }
    </style>
    <linearGradient id="linear-gradient" x1="335.6" y1="225.4" x2="334" y2="103.4" gradientTransform="translate(0 389.6) scale(1 -1)" gradientUnits="userSpaceOnUse">
      <stop offset="0" stop-color="#e6d7ba"/>
      <stop offset="1" stop-color="#9c8c6a"/>
    </linearGradient>
    <radialGradient id="radial-gradient" cx="580.8" cy="275.1" fx="580.8" fy="275.1" r="74" gradientTransform="translate(0 389.6) scale(1 -1)" gradientUnits="userSpaceOnUse">
      <stop offset="0" stop-color="#232d30"/>
      <stop offset="1" stop-color="#323b32"/>
    </radialGradient>
    <radialGradient id="radial-gradient-2" cx="113.6" cy="279.8" fx="113.6" fy="279.8" r="54.3" gradientTransform="translate(0 389.6) scale(1 -1)" gradientUnits="userSpaceOnUse">
      <stop offset="0" stop-color="#232d30"/>
      <stop offset="1" stop-color="#323b32"/>
    </radialGradient>
    <radialGradient id="radial-gradient-3" cx="177.2" cy="292.7" fx="177.2" fy="292.7" r="51" gradientTransform="translate(0 389.6) scale(1 -1)" gradientUnits="userSpaceOnUse">
      <stop offset="0" stop-color="#232d30"/>
      <stop offset="1" stop-color="#323b32"/>
    </radialGradient>
    <radialGradient id="radial-gradient-4" cx="283.5" cy="296.6" fx="283.5" fy="296.6" r="19" gradientTransform="translate(0 389.6) scale(1 -1)" gradientUnits="userSpaceOnUse">
      <stop offset="0" stop-color="#232d30"/>
      <stop offset="1" stop-color="#323b32"/>
    </radialGradient>
    <radialGradient id="radial-gradient-5" cx="343.4" cy="302.6" fx="343.4" fy="302.6" r="49.3" gradientTransform="translate(0 389.6) scale(1 -1)" gradientUnits="userSpaceOnUse">
      <stop offset="0" stop-color="#232d30"/>
      <stop offset="1" stop-color="#323b32"/>
    </radialGradient>
    <radialGradient id="radial-gradient-6" cx="406.5" cy="300.5" fx="406.5" fy="300.5" r="50.9" gradientTransform="translate(0 389.6) scale(1 -1)" gradientUnits="userSpaceOnUse">
      <stop offset="0" stop-color="#232d30"/>
      <stop offset="1" stop-color="#323b32"/>
    </radialGradient>
    <radialGradient id="radial-gradient-7" cx="474.8" cy="293.9" fx="474.8" fy="293.9" r="52.8" gradientTransform="translate(0 389.6) scale(1 -1)" gradientUnits="userSpaceOnUse">
      <stop offset="0" stop-color="#232d30"/>
      <stop offset="1" stop-color="#323b32"/>
    </radialGradient>
    <radialGradient id="radial-gradient-8" cx="50.6" cy="266.9" fx="50.6" fy="266.9" r="53.6" gradientTransform="translate(0 389.6) scale(1 -1)" gradientUnits="userSpaceOnUse">
      <stop offset="0" stop-color="#232d30"/>
      <stop offset="1" stop-color="#323b32"/>
    </radialGradient>
    <radialGradient id="radial-gradient-9" cx="235.4" cy="298.7" fx="235.4" fy="298.7" r="50.3" gradientTransform="translate(0 389.6) scale(1 -1)" gradientUnits="userSpaceOnUse">
      <stop offset="0" stop-color="#232d30"/>
      <stop offset="1" stop-color="#323b32"/>
    </radialGradient>
    <radialGradient id="radial-gradient-10" cx="50.6" cy="271.2" fx="50.6" fy="271.2" r="50.4" gradientTransform="translate(0 389.6) scale(1 -1)" gradientUnits="userSpaceOnUse">
      <stop offset="0" stop-color="#232d30"/>
      <stop offset="1" stop-color="#191e16"/>
    </radialGradient>
    <linearGradient id="linear-gradient-2" x1="22" y1="271.2" x2="79.2" y2="271.2" gradientTransform="translate(0 389.6) scale(1 -1)" gradientUnits="userSpaceOnUse">
      <stop offset="0" stop-color="#fad890"/>
      <stop offset="1" stop-color="#c89757"/>
    </linearGradient>
    <radialGradient id="radial-gradient-11" cx="113.5" cy="283.8" fx="113.5" fy="283.8" r="51.3" gradientTransform="translate(0 389.6) scale(1 -1)" gradientUnits="userSpaceOnUse">
      <stop offset="0" stop-color="#232d30"/>
      <stop offset="1" stop-color="#191e16"/>
    </radialGradient>
    <linearGradient id="linear-gradient-3" x1="78.8" y1="283.8" x2="148.4" y2="283.8" gradientTransform="translate(0 389.6) scale(1 -1)" gradientUnits="userSpaceOnUse">
      <stop offset="0" stop-color="#fad890"/>
      <stop offset="1" stop-color="#c89757"/>
    </linearGradient>
    <radialGradient id="radial-gradient-12" cx="177.2" cy="296.4" fx="177.2" fy="296.4" r="47.8" gradientTransform="translate(0 389.6) scale(1 -1)" gradientUnits="userSpaceOnUse">
      <stop offset="0" stop-color="#232d30"/>
      <stop offset="1" stop-color="#191e16"/>
    </radialGradient>
    <linearGradient id="linear-gradient-4" x1="148.1" y1="296.4" x2="206.6" y2="296.4" gradientTransform="translate(0 389.6) scale(1 -1)" gradientUnits="userSpaceOnUse">
      <stop offset="0" stop-color="#fad890"/>
      <stop offset="1" stop-color="#c89757"/>
    </linearGradient>
    <radialGradient id="radial-gradient-13" cx="235.3" cy="302.8" fx="235.3" fy="302.8" r="47.3" gradientTransform="translate(0 389.6) scale(1 -1)" gradientUnits="userSpaceOnUse">
      <stop offset="0" stop-color="#232d30"/>
      <stop offset="1" stop-color="#191e16"/>
    </radialGradient>
    <linearGradient id="linear-gradient-5" x1="206.2" y1="302.8" x2="264.3" y2="302.8" gradientTransform="translate(0 389.6) scale(1 -1)" gradientUnits="userSpaceOnUse">
      <stop offset="0" stop-color="#fad890"/>
      <stop offset="1" stop-color="#c89757"/>
    </linearGradient>
    <radialGradient id="radial-gradient-14" cx="283.5" cy="300.6" fx="283.5" fy="300.6" r="16.9" gradientTransform="translate(0 389.6) scale(1 -1)" gradientUnits="userSpaceOnUse">
      <stop offset="0" stop-color="#232d30"/>
      <stop offset="1" stop-color="#191e16"/>
    </radialGradient>
    <linearGradient id="linear-gradient-6" x1="260.4" y1="300.5" x2="306.5" y2="300.5" gradientTransform="translate(0 389.6) scale(1 -1)" gradientUnits="userSpaceOnUse">
      <stop offset="0" stop-color="#fad890"/>
      <stop offset="1" stop-color="#c89757"/>
    </linearGradient>
    <radialGradient id="radial-gradient-15" cx="343.3" cy="306.6" fx="343.3" fy="306.6" r="46.3" gradientTransform="translate(0 389.6) scale(1 -1)" gradientUnits="userSpaceOnUse">
      <stop offset="0" stop-color="#232d30"/>
      <stop offset="1" stop-color="#191e16"/>
    </radialGradient>
    <linearGradient id="linear-gradient-7" x1="314" y1="306.6" x2="372.5" y2="306.6" gradientTransform="translate(0 389.6) scale(1 -1)" gradientUnits="userSpaceOnUse">
      <stop offset="0" stop-color="#fad890"/>
      <stop offset="1" stop-color="#c89757"/>
    </linearGradient>
    <radialGradient id="radial-gradient-16" cx="406.5" cy="304.4" fx="406.5" fy="304.4" r="47.9" gradientTransform="translate(0 389.6) scale(1 -1)" gradientUnits="userSpaceOnUse">
      <stop offset="0" stop-color="#232d30"/>
      <stop offset="1" stop-color="#191e16"/>
    </radialGradient>
    <linearGradient id="linear-gradient-8" x1="373.6" y1="304.4" x2="439.4" y2="304.4" gradientTransform="translate(0 389.6) scale(1 -1)" gradientUnits="userSpaceOnUse">
      <stop offset="0" stop-color="#fad890"/>
      <stop offset="1" stop-color="#c89757"/>
    </linearGradient>
    <radialGradient id="radial-gradient-17" cx="474.8" cy="298" fx="474.8" fy="298" r="49.7" gradientTransform="translate(0 389.6) scale(1 -1)" gradientUnits="userSpaceOnUse">
      <stop offset="0" stop-color="#232d30"/>
      <stop offset="1" stop-color="#191e16"/>
    </radialGradient>
    <linearGradient id="linear-gradient-9" x1="442" y1="298" x2="507.6" y2="298" gradientTransform="translate(0 389.6) scale(1 -1)" gradientUnits="userSpaceOnUse">
      <stop offset="0" stop-color="#fad890"/>
      <stop offset="1" stop-color="#c89757"/>
    </linearGradient>
    <radialGradient id="radial-gradient-18" cx="548.1" cy="287" fx="548.1" fy="287" r="52.9" gradientTransform="translate(0 389.6) scale(1 -1)" gradientUnits="userSpaceOnUse">
      <stop offset="0" stop-color="#232d30"/>
      <stop offset="1" stop-color="#191e16"/>
    </radialGradient>
    <linearGradient id="linear-gradient-10" x1="510.9" y1="287" x2="585.2" y2="287" gradientTransform="translate(0 389.6) scale(1 -1)" gradientUnits="userSpaceOnUse">
      <stop offset="0" stop-color="#fad890"/>
      <stop offset="1" stop-color="#c89757"/>
    </linearGradient>
    <radialGradient id="radial-gradient-19" cx="616.1" cy="271.1" fx="616.1" fy="271.1" r="52.1" gradientTransform="translate(0 389.6) scale(1 -1)" gradientUnits="userSpaceOnUse">
      <stop offset="0" stop-color="#232d30"/>
      <stop offset="1" stop-color="#191e16"/>
    </radialGradient>
    <linearGradient id="linear-gradient-11" x1="581.5" y1="271.1" x2="650.6" y2="271.1" gradientTransform="translate(0 389.6) scale(1 -1)" gradientUnits="userSpaceOnUse">
      <stop offset="0" stop-color="#fad890"/>
      <stop offset="1" stop-color="#c89757"/>
    </linearGradient>
  </defs>
  <g>
    <rect class="cls-7" x="244.6" y="22.9" width="93.8" height="49.8"/>
    <path class="cls-16" d="M650.7,188.1c0-.3.2-.6,0-.8h0c0-.4.2-.7,0-.9v-1.7c-3.2-8.5-5.3-17-6.2-25.2l-2.6-22.4c.4-2.2,1.3-4.2,2.5-5.8.3-.4.3-.8,0-1.2,0-.3.2-.7,0-1v-2.6c0-.3.2-.7,0-1v-2c-3.1-4.5-5.1-9.3-5.7-14.4l-2.5-23.6c-.2-2.2-.4-4.4-.5-6.5.2-3.4.5-6.6,1.2-9.5v-6.4c0-.6-.2-1.2-.8-1.3-15.6-4.1-23.3-5.9-39.1-9.5-.4,0-.8,0-1,.3-.3.3-.4.6-.3,1v6.3c.7,4,1.2,7.7,1.3,11.2,0,1.8-.2,3.6-.4,5.3l-2.7,22.3c-.5,4.5-2.4,8.3-5.6,11.3-.3.3-.4.8-.3,1.2v5.5c-.2.3-.2.7,0,1.1,1.3,2.3,2.2,4.8,2.6,7.3l-2.4,21.2c-1,7-2.6,13.2-4.9,18.9-4.5-7.9-8.3-15.7-11.3-23.3-8.1-20.5-12.5-31.4-20-50.4,3.9-5.1,6.4-8.4,10.8-14.2,5.5-7.5,11.4-14.1,18.1-20.1.3-.3.4-.7.3-1.1v-.2c0-.2.2-.5,0-.8v-.2c0-.2.2-.5,0-.8v-1.6c0-.2.2-.5,0-.8v-.2c0-.2.2-.5,0-.8v-.7c0-.4-.4-.7-.9-.8-10-2.1-14.9-3.1-25-5h0c0-.6,0-.2,0,0h0c-.3,0-.6,0-.8.3s-.4.6-.3,1v5.6c-.4,5-2.1,9.6-4.9,13.3-5.8,7.8-9,12.1-14.2,19.2v-13.3c0-8,1.2-15.1,3.6-21.7v-.8h0v-.9h0v-2.4h0v-.9h0v-1.9c-.2-.3-.5-.5-.8-.6h-.3c-10-1.7-15.1-2.5-25.1-4h0c-.3,0-.6,0-.7.5-.3.3-.3.7-.2,1.1h0c0,.3-.1.6,0,.8v.2c0,.2-.1.5,0,.8v.2c0,.2-.1.5,0,.8v.7h0c0,.3-.1.6,0,.8v.2c0,.2-.1.5,0,.8v.2c0,.2-.1.5,0,.8,2.5,7.8,3.8,15.8,3.8,23.7v65.1c0,7.9-1.3,15.4-3.8,22.5v6.1c-.1.3,0,.7,0,1,.2.3.5.5.8.5,10.1,1.5,15,2.3,25.1,4,.4,0,.8,0,1.1-.4.3-.3.3-.7.2-1.1v-2h0v-3.5h0v-.8c-2.4-7.5-3.6-15.5-3.6-23.7v-14.5c0-3.8.8-7.3,2.5-10.2,7,17.4,10.7,26.8,18,45,1.9,4.4,2.8,9.1,2.8,14s.4,1,.9,1.1c9.6,1.8,14.5,2.8,23.7,4.8,10,2.1,14.9,3.2,24.8,5.6.4.1.8,0,1.1-.3s.4-.7.3-1.1v-6c-.8-4-1.3-7.9-1.5-11.7,0-1.3.2-2.5.3-3.7,6.7,1.6,10.5,2.5,17.3,4.2.2,1.5.3,3,.3,4.5-.2,3.7-.7,7.3-1.5,10.8v6.4c0,.6.2,1.2.8,1.4,9.9,2.5,14.8,3.8,24.7,6.5h.3c.3,0,.6,0,.8-.4.3-.3.4-.8.2-1.2h0c0-.4.2-.7,0-.9h0c0-.4.2-.7,0-.9v-1.5h0l-.2-.2h0ZM622.4,142.4c-4.7-1.2-7.8-1.9-12.6-3.1l6.3-52.7,6.3,55.8Z"/>
    <path class="cls-16" d="M85,117.9c1.3,1.7,2.1,3.7,2.5,6l-2.4,22.2c-1.1,8.9-3.2,17.1-6.3,24.9v1.6h0v.9h0v2.4h0v.9h0c-.2.5,0,.9.2,1.3.2.3.5.4.9.4h.2c10-2.2,14.9-3.2,24.9-5.2.3,0,.6-.2.7-.5,0-.3.2-.6.2-.9v-6.4c-.8-3.6-1.3-7.2-1.5-10.9,0-1.5.2-3,.3-4.5,6.9-1.4,10.7-2.1,17.5-3.3,0,1.2.2,2.5.3,3.8-.2,3.9-.7,7.7-1.5,11.6v6c0,.4,0,.8.3,1,.3.3.6.4,1,.3,10-1.8,14.9-2.7,25-4.3.4,0,.7-.3.8-.6,0-.3.2-.7,0-1,0-.3.2-.6,0-1v-2.5c0-.3.2-.6,0-1v-1.8l.2.4c-3.3-7-5.4-14.6-6.3-22.4l-2.6-21.3c.4-2.4,1.3-4.9,2.6-7.1.2-.3.2-.7,0-1,.2-.3,0-.7,0-1,.2-.3,0-.6,0-.9v-1.6c.2-.3,0-.7,0-1,.2-.3,0-.6,0-.9.2-.4,0-.9-.2-1.2-3.1-3-5-7-5.7-11.6l-2.6-22.5c-.3-2.1-.4-4.2-.5-6.3.2-3.5.5-6.8,1.2-10.1v-6.4c0-.4,0-.8-.3-1s-.6-.4-1-.3c-15.9,2.8-23.7,4.2-39.4,7.5-.6,0-1,.7-.9,1.3v6.5c.7,3.7,1.2,7.2,1.3,10.6,0,1.9-.2,3.7-.4,5.5l-2.7,23.5c-.5,4.8-2.4,9.5-5.8,14.1-.2.3-.2.7,0,1.1v.9c-.2.3-.2.7,0,1v2.6c-.2.3-.2.7,0,1-.2.4-.2.8,0,1.2h0ZM113.5,74.6l6.4,52.7c-4.8.9-8,1.5-12.7,2.4,0,0,6.3-55.1,6.3-55.1Z"/>
    <path class="cls-16" d="M206.2,86h0s.1.2.2.3l-.2-.3Z"/>
    <path class="cls-16" d="M153.6,158.9c3,2.5,6.3,3.7,10.3,3.7s2,0,3.1-.2c6.9-1,10.3-1.5,17.2-2.4,5.1-.7,9.4-2.9,13-6.9,3.7-4,5.4-8.5,5.4-13.6v-33.4c0-4.3,1.2-8.4,3.7-12.5.2-.3.2-.7,0-1.1.2-.3.1-.7,0-1,.1-.3.1-.6,0-.9.1-.3,0-.5,0-.8.1-.3,0-.6,0-.8.2-.3.1-.7,0-1,.1-.3.1-.6,0-.9v-1.1c-2.3-3.2-3.4-6.9-3.4-11v-42.6c0-.3,0-.6-.4-.9s-.6-.3-.9-.3c-19.5,2.2-29,3.5-48.3,6.5-.6,0-1,.6-1,1.1v31c0,.5.3.9.8,1.1.5,0,1,0,1.3-.4,4.8-6.3,9.2-10.6,13.2-12.7,3.8-2,8.9-3.5,15.6-4.4v79.3c0,2-.8,3.8-2.3,5.5-1.7,1.9-3.4,2.9-5.4,3.2-1.9.3-3.7-.3-5.1-1.6-1.5-1.3-2.2-2.9-2.2-4.7v-12.3c0-3.7.2-6.6.7-9.1.6-3.2,1.6-6.2,3-9,.2-.3.1-.6,0-1,.2-.3.1-.6,0-1,.1-.3.1-.6,0-.9.1-.3,0-.5,0-.8.1-.3,0-.6,0-.8.2-.3.1-.6,0-1,.1-.3.1-.6,0-.9.2-.4.1-.8,0-1.1s-.7-.5-1.1-.5c-8.7,1.2-12.9,1.9-21.5,3.2-.6,0-1,.6-1,1.1v45.6c0,5.2,1.8,9.2,5.5,12.3h-.2Z"/>
    <path class="cls-16" d="M260.4,82.3v23.4c0,.3.1.6.4.8.2.2.5.3.8.3,17.6-1.1,26.1-1.5,43.7-1.9.6,0,1.1-.5,1.1-1.1v-23.4c0-.3-.1-.6-.3-.8-.2-.2-.5-.3-.8-.3h0c-17.6.4-26.2.7-43.8,1.9-.6,0-1.1.5-1.1,1.1h0Z"/>
    <path class="cls-16" d="M315.1,150.5c15.4-.3,23-.3,38.4,0,5.2.2,10-1.8,13.6-5.4s5.3-7.9,5.3-12.7v-23c0-6.1-2.3-11.8-6.6-16.3h.2c-3.5-3.5-5.2-5.3-8.7-8.9-1.7-1.8-3-4.9-4-7.4-.8-2-1.4-3.5-2.1-4.2s-2-1.3-3.9-2.1c-2.5-1.1-5.6-2.5-7.4-4.3l-3.4-3.5c-1.6-1.5-2.4-3.5-2.4-5.7v-6c0-1.9.8-3.8,2.2-5.2s3.5-2.3,5.5-2.3h1c10,0,17.3,3.9,25.4,13.4.3.4.8.5,1.3.3.4-.2.7-.6.7-1.1v-31c0-.6-.5-1.1-1.1-1.1-14.5-.4-21.6-.5-36.1-.4-10.4,0-18.9,8.4-18.9,18.6v23c0,5.8,2.3,11.5,6.6,16.1l2.9,2.8c1.7,1.7,2.9,4.9,3.9,7.4.8,2.1,1.4,3.5,2.2,4.3.7.7,1.9,1.2,4.1,2.1,2.5,1.1,5.7,2.5,7.4,4.1,3.5,3.7,5.3,5.5,8.9,9.3,1.6,1.6,2.4,3.5,2.4,5.7v6c0,1.9-.8,3.7-2.2,5.1-1.5,1.4-3.4,2.3-5.5,2.3h-3.4c-10-.2-17.4-3.9-25.4-12.8-.3-.4-.8-.5-1.3-.3-.4.2-.7.6-.7,1.1v31c0,.3.1.6.3.8.2.2.5.3.8.3h0Z"/>
    <path class="cls-16" d="M373.7,87.5c2.4,3.9,3.7,8.1,3.7,12.2v33.4c0,10.2,8.2,18.7,18.6,19.2,8.3.4,12.3.7,20.7,1.2h1.4c4.7,0,9-1.6,12.2-4.7,3.4-3.2,5.3-7.6,5.3-12.4v-33.4c0-4.2,1.2-8.3,3.5-11.7.2-.3.2-.8,0-1.1.1-.3.2-.7,0-1,.1-.3.1-.6,0-.9,0-.3.1-.5,0-.8.1-.3.1-.6,0-.9.1-.3.2-.7,0-1,.1-.3.1-.6,0-.9.1-.3.1-.7,0-1v-.2c-2.1-3.5-3.4-8-3.4-12.1v-25.2c0-10.2-8.4-19.1-18.8-19.8-8.3-.6-12.4-.8-20.7-1.2-5.1-.3-9.8,1.5-13.3,4.8s-5.5,7.9-5.5,12.9v25.2c0,4-1.3,8.2-3.7,11.7-.2.3-.2.7,0,1.1v.9c0,.3-.2.7,0,1v2.6c0,.3-.2.7,0,1-.2.3-.2.7,0,1.1h0ZM408,133h0c-1.2-.2-1.8-.3-3-.3s-2.7-.5-3.9-1.1c-2.4-1.4-4-4-4-6.8v-24.4c0-4,1.3-8.1,3.7-11.8.2-.3.2-.8,0-1.1,0-.3.2-.7,0-1v-2.6c0-.3.2-.7,0-1v-1.9c-2.3-3.7-3.7-8-3.7-12v-16.3c0-1.9.8-3.7,2.2-5.1,1.5-1.4,3.4-2.1,5.4-2l3,.2c4.2.3,7.8,4,7.8,8.1v16.3c0,4.3-1.3,8.4-3.6,11.5h0c-.2.2-.2.6,0,1-.1.3-.1.6,0,.9-.1.3-.2.7,0,1-.1.3-.1.6,0,.9v.8c-.1.3-.1.6,0,.9-.1.3-.2.7,0,1-.2.4-.2.8,0,1.1,2.4,3.7,3.7,7.9,3.7,12.3v24.4c0,1.9-.8,3.7-2.2,5-1.5,1.4-3.4,2.1-5.4,2h0Z"/>
    <path class="cls-16" d="M442.1,36.3c2.5,7.7,3.8,15.5,3.8,23.4v12.8c0,4-1.3,8.1-3.7,11.4-.2.3-.2.7,0,1.1v.9c0,.3-.2.7,0,1v2.6c0,.3-.2.7,0,1-.2.3-.2.7,0,1,2.4,4.1,3.7,8.3,3.7,12.4v21c0,7.9-1.3,15.5-3.8,22.7v6.1c0,.3,0,.7.1,1,.2.3.5.5.9.5,10.2.9,15.2,1.4,25.2,2.6.4,0,.8-.1,1-.4s.3-.7.2-1.1v-.2c.1-.2.1-.5,0-.8v-.2c.1-.2.1-.5,0-.8,0-.2.1-.5,0-.7v-.9c.1-.2.1-.5,0-.8v-.2c.1-.2.1-.5,0-.8,0-.2.1-.5,0-.7-1.1-3.5-2-7.1-2.7-11.5-.5-3.1-1.1-7.2-1.1-11.5v-53.1c6.8,16.9,10.9,27.1,18.3,45.6v9.4c0,7.9-1.3,15.5-3.8,22.6v6.1c-.1.3,0,.7,0,1,.1.3.5.5.8.5,10.1,1.2,15,1.9,25.1,3.4h.2c.3,0,.6,0,.9-.4.3-.3.3-.7.2-1.1v-1.8c0-.4.1-.6,0-.8v-2.6c0-.4.1-.6,0-.8l-.2-.7c-1-3.7-2-7.2-2.5-10.9-.6-4.4-.9-8.1-.9-11.5v-21.5c0-4.2,1.2-8.2,3.5-11.4.2-.3.3-.8,0-1.2,0-.3.2-.7,0-1v-2.6c0-.3.2-.7,0-1v-1.8h0c-1.2-2.3-2.1-4.3-2.6-6.2-.6-2-.9-4.2-.9-6.3v-13.6c0-7.4,1.2-14.7,3.6-21.8v-6.1c.1-.3,0-.7,0-1-.2-.3-.5-.5-.8-.5-8.5-1.2-12.7-1.8-21.3-2.9-.3,0-.7,0-.9.3-.2.2-.4.5-.4.9v42.9c-6.8-17.1-10.9-27.2-18.4-45.8-.2-.4-.5-.7-.9-.7h0c-.8,0-1.6-.2-2.4-.2-7.2-.8-11.3-1.2-19-1.9h0c-.4,0-.8.1-1,.4s-.3.7-.2,1.1v6.1h0Z"/>
    <path class="cls-16" d="M79.2,160.7v-23.3c0-6.1-2.3-11.4-6.6-14.8-3.4-2.8-5.1-4.1-8.5-6.8-1.7-1.4-3-4.4-4-6.6-.9-2-1.4-3-2-3.5-.2,0-.4-.2-.6-.3-1.1-.7-6.5-1-9.8-2.8-.2,0-.4-.3-.6-.4l-3.3-2.6c-1.4-1.1-2.2-2.8-2.2-4.9v-6c0-4.2,3.6-8.7,7.8-9.7l.9-.2c9.7-2.4,16.8-.4,24.7,7,.3.3.8.4,1.2.2.4-.2.7-.6.7-1v-31c0-.3-.2-.7-.4-.9-.2,0-.4-.2-.6-.2v-.2c-14.2,3.2-21.2,4.9-35.3,8.5-1.3.3-2.5.8-3.8,1.4-8.4,3.8-14.8,12.9-14.8,21.8v23c0,5.9,2.3,11.1,6.6,14.6l2.8,2.1c1.7,1.3,3,4.4,3.9,6.6.9,2,1.4,3.1,2,3.6.6.4,1.6.7,3.7,1.1,2.5.5,5.8,1.1,7.5,2.4,3.5,2.8,5.2,4.2,8.7,7.1,1.5,1.1,2.3,2.8,2.3,4.9v6c0,4.2-3.6,8.6-7.7,9.7-1.1.3-1.8.4-3,.7-5.9,1.4-10.7,1.2-15.1-.2-3.3-1.2-6.5-3.2-9.8-6.1-.2-.2-.4-.3-.7-.3h-.5c-.4.2-.7.6-.7,1v31c0,.4.2.7.4.9.2.2.4.2.7.2h.3c15-4.1,22.4-6,37.5-9.6,10.1-2.4,18.3-12.5,18.3-22.4h0Z"/>
    <path class="cls-16" d="M207.2,64c.5,0,1,0,1.3-.6,3.1-6.2,9.1-13.1,16.8-14.5v23.6c0,4.2-1.3,8.6-3.5,12.2-.2.3-.2.7,0,1-.1.3-.1.6,0,.9-.2.3-.1.7,0,1-.1.3-.1.6,0,.9v.8c-.1.3-.1.6,0,.9-.2.3-.1.7,0,1-.2.4-.2.8,0,1.1,2.3,3.4,3.5,7.4,3.5,11.6v21c0,7.7-1.2,15.6-3.6,23.5v.7h0v3.3h0v1.9c0,.4,0,.8.2,1.1s.5.4.9.4h.1c10.1-1,15.1-1.4,25.2-2.2.4,0,.7-.2.9-.5s.2-.7.1-1h0v-.9h0v-2.4h0v-.9h0v-1.7c-1.3-3.5-2.3-7.2-2.9-10.9-.6-3.6-.9-7.4-.9-11.3v-21.5c0-4.3,1.3-8.6,3.7-12.3.2-.3.2-.7,0-1.1.2-.3.1-.7,0-1,.1-.3.1-.6,0-.9.1-.3.1-.5,0-.8.1-.3,0-.6,0-.9.2-.3.1-.7,0-1,.1-.3.1-.6,0-.9.1-.4.1-.8,0-1.1-2.3-3.1-3.6-7.2-3.6-11.5v-23.8h.3-.1c9.8,0,15.3,8.6,16.8,11.4.3.5.8.7,1.3.6s.9-.6.9-1.1v-31c0-.3,0-.6-.4-.8-.2-.2-.5-.3-.9-.3-22.5,1.4-33.5,2.3-55.9,4.8-.6,0-1,.6-1,1.1v31c0,.5.4,1,.9,1.1h0Z"/>
  </g>
  <g>
    <path class="cls-1" d="M597.7,197.1c6,.6,10.4,5.4,12,10.8.2.7.3,1.3.3,2-.2-1.3-.6-2.5-1.1-3.4-1.8-3.1-5.7-6.1-9.6-6.5-.7,0-.9.8-.3,1.1,3.2,1.6,6.3,2.7,8,6,.7,1.4,1.3,3,1.1,4.6,0,.4,0,.7-.2,1.1,0-.6-.2-1.3-.5-1.9-1-2.5-3.1-5.3-5.9-6.2-.5-.2-1.1.4-.7.9,1.7,1.6,3.4,2.9,4.5,5.1,1.1,2.3.9,4.8-.2,7.1v.3h0c.2-.6.3-1.2.3-1.8,0-1.4-.3-2.7-.9-4,.2-.2.3-.4.2-.7-.7-1.9-2.7-4.1-4.9-4.7-.4-.9-1-1.7-2-2.1-.9-.4-1.8-.4-2.7-.2-.3,0-.6,0-.9.2-1.3.5-1.9,2.1-1.5,3.4.2.8.9,1.7,1.8,2.2-.9,0-1.9,0-2.6-.6-1-.8-1.1-2.1-.9-3.3,0-.7-.8-.8-1.1-.3-1,1.7-.2,3.7,1.2,4.9-2.3-.7-3.7-3-3.9-5.2-.5-5.6,5-9.1,10.4-8.6v-.2h.1ZM587.4,218.5h.7c.4-.2.5-.7.3-1s-.6-.4-.9-.5v-.9c.2,0,.3.1.4.1.5,0,1-.6.6-1-.3-.3-.7-.6-1.1-.9v-1.1c1,.7,2.1,1.2,3.5,1.5,1.9.3,4-.2,5.8-1.2,0,2.3-.4,4.5-.9,6.7h0c-2.8-.1-5.7-.8-8.4-1.6h0ZM601.2,209.8c.3.2.5.5.7.8.6,1,1,2,1.2,3.1,0-.2-.2-.3-.3-.5-.8-1-1.9-1.6-2.9-2.3v-.7c0-.3.3-.7.3-1v-.2c.4.3.8.6,1.1.9h0ZM600,213v-.2c.3.2.6.5.8.8.9,1.1,1.5,2.4,2,3.6,0,.1,0,.2.2.3,0,.4-.3.8-.4,1.1,0-1.6-1.3-3-2.7-3.9v-1.7h.1ZM599.9,216.6c.2.3.4.5.6.8.4.7.3,1.5.4,2.3-.5.1-1,.2-1.5.3.3-1.1.5-2.3.6-3.4h0ZM530.7,204.6c.2-.5.3-1,.3-1.6,1.9,1.8,4.6,2.9,7.2,4.2,0,.2.3.3.6.4,1.1.4,2.1,1,3,1.6h0c.4.3.8.6,1.1.9-.7-.4-1.4-.7-2-1-2.3-1-4.6-2.2-7.1-2.8-.3,0-.6.1-.7.4v.8c0,.3.5.4.7.3,1.8,1.1,3.8,1.9,5.7,2.8,2.1,1,3.8,2.2,5.8,3.4h0v.4c-.7-.4-1.4-.6-2.1-.9-1.4-.5-2.6-.9-3.9-1.7-2.3-1.5-5.1-2.4-7.7-3.4-.7-.3-1.1.7-.5,1,2.6,1.5,5.5,2.5,7.7,4.3.9.7,2.1,1.2,3.1,1.6.2,0,.4.2.5.2-2,0-4-1-5.7-1.9-2.3-1.1-4.4-2.6-6.5-3.9-.8-.5-1.6-1-2.4-1.4,1.3-.8,2.2-2.4,2.7-3.8h.2ZM138.9,203c0,.5,0,1.1.3,1.6.5,1.4,1.3,3,2.6,3.8-2.1,1.3-4.2,2.7-6.4,4-2.3,1.3-4.8,2.8-7.5,3.2h-.8s.3-.1.4-.2c1.2-.5,2.4-1,3.4-1.7,2.3-1.8,5.2-2.9,7.7-4.3.6-.3.2-1.3-.5-1-2.5,1-5.4,1.9-7.7,3.4-1.2.8-2.3,1.2-3.6,1.7-.8.3-1.6.6-2.4,1v-.4h0c1.9-1.2,3.7-2.4,5.8-3.4,1.9-.9,3.9-1.7,5.7-2.8.3.1.6,0,.7-.3s0-.5,0-.8-.4-.5-.7-.4c-2.4.7-4.8,1.8-7.1,2.8-.7.3-1.3.6-2,1,.2-.2.3-.3.5-.4.7-.5,1.4-1,2.2-1.5.5-.2.9-.5,1.4-.7.2,0,.4-.2.6-.4,2.2-1.1,4.4-2,6.1-3.3.4-.3.8-.6,1.1-1h.2,0ZM82.4,214.3c-.4.3-.7.6-1.1.9-.4.4,0,1.1.6,1,.2,0,.3,0,.4-.1v.9c-.3.1-.7.2-.9.5-.2.3-.2.9.3,1h.7v.2c-2.7.8-5.6,1.4-8.4,1.5h0c-.5-2.2-.9-4.5-.9-6.8,1,.6,2.1,1.1,3.1,1.3,2.5.4,4.5-.2,6.1-1.5v1.1h.1ZM69.8,208.8c0,.4.2.9.3,1.3v.7c-1.1.7-2.1,1.3-2.9,2.3,0,.2-.2.3-.3.5.2-1.1.7-2.1,1.2-3.1.2-.3.5-.5.7-.8.3-.3.7-.6,1.1-.9h0ZM67.2,218.6c-.2-.4-.3-.7-.4-1.1,0,0,.2-.1.2-.2.5-1.3,1.1-2.6,2-3.6l.8-.8v1.9c-1.4.8-2.7,2.3-2.7,3.8h0ZM69.1,219.8c0-.8,0-1.6.4-2.3,0-.3.4-.6.6-.8,0,1.1.3,2.3.6,3.4-.5,0-1-.2-1.5-.3h0ZM82.5,204c.4,2.7-.6,5.5-3.2,6.7-.2,0-.3,0-.5.1,1.4-1.2,2.1-3.1,1.1-4.8-.3-.5-1.2-.4-1.1.3.2,1.2,0,2.5-.9,3.3-.7.6-1.6.7-2.5.6.8-.4,1.5-1.3,1.7-2.2.3-1.2-.2-2.7-1.4-3.3-.3-.1-.6-.2-.9-.2-1.9-.5-4,.5-4.8,2.3-2.1.6-4.2,2.8-4.8,4.7,0,.3,0,.6.2.7-.6,1.2-.9,2.6-.9,4s0,1.2.3,1.8h0v-.4c-1.1-2.3-1.3-4.8-.2-7.1,1-2.2,2.7-3.5,4.5-5.1.4-.4-.2-1-.7-.9-2.8.9-4.9,3.7-5.9,6.2-.2.6-.4,1.3-.5,1.9,0-.3-.2-.7-.2-1.1,0-1.6.4-3.2,1.1-4.6,1.7-3.3,4.8-4.4,8-6,.6-.3.4-1.1-.3-1.1-3.8.4-7.7,3.3-9.6,6.5-.5.9-.9,2.2-1.1,3.5,0-2.2,1-4.5,2.1-6.2,1.4-2.3,3.6-4.4,6.1-5.5,5.4-2.5,13.4-.8,14.4,5.8h0ZM605.4,231c-3,4.1-5.7,8.5-7.1,13.3-.7,2.5-1.1,5-1.1,7.5s.5,5,.7,7.6c0,2.3,0,4.6-1.4,6.6-1.1,1.6-2.7,2.8-4.5,3.8-4,2.1-8.6,2.9-13.1,3.2-5,.3-10,0-14.9-.9-5.5-1-10.8-2.8-15.7-5.2-5.1-2.5-9.2-5.8-13.5-9.3l-.6-.3c.2-1,.4-2,.6-3,1.1,1.3,2.6,2.5,3.8,3.4,1.9,1.5,4.2,3.3,6.8,3.6.6,0,1.1-.6.7-1.1-1.5-1.8-4-3-5.9-4.4-1.6-1.3-3.1-2.8-4.8-4,.2-.8.5-1.7.8-2.5,0-.3.2-.5.3-.8.6.9,1.5,1.7,2.2,2.4,1.2,1.2,2.4,2.6,4.2,3,.6.1,1.1-.5.9-1.1-.7-1.5-2.2-2.3-3.4-3.4-.9-.8-1.9-2.1-3.1-2.8.5-1,1-2.1,1.5-3.1.5.7,1,1.3,1.5,1.9.8.9,1.6,1.7,2.9,1.9.7.1,1.1-.6.9-1.1-.3-1.1-1.2-1.8-2-2.6-.7-.7-1.4-1.5-2.2-2.2.5-.8,1-1.6,1.5-2.3.2-.2.3-.5.5-.7,0,.2.2.5.4.7.6.9,1.4,1.4,2.4,1.8.6.3,1.5-.4,1.2-1.1-.5-.8-.9-1.5-1.6-2.2-.4-.3-.8-.6-1.2-.9.8-.9,1.5-1.9,2.4-2.8v.2c.3.4.6.8,1,1.1.6.6,1.5,1.1,2.3,1.5.7.3,1.4-.4,1.2-1.1-.4-.9-1-1.7-1.7-2.3-.3-.3-.7-.5-1.1-.8,0,0-.2,0-.4-.1.8-.8,1.5-1.6,2.3-2.4.2-.2.5-.5.7-.7.4.6.8,1.2,1.4,1.7.8.7,1.6,1.2,2.7,1.6.9.3,1.6-.6,1.1-1.3-.6-.9-1.3-1.6-2.2-2.2-.6-.4-1.3-.7-1.9-1,.6-.7,1.2-1.4,1.7-2.1,0,.1.2.3.4.4,1.1,1,2.2,1.8,3.7,2.2.6.1,1.2-.6.9-1.1-.5-.9-1.1-1.6-2-2.1-.6-.4-1.2-.7-1.8-1.2.4-.7.7-1.5,1-2.3.3.4.6.8.9,1.1.9.8,1.7,1.4,2.9,1.8.7.3,1.4-.6.9-1.2-.7-.9-1.3-1.6-2.2-2.3-.6-.5-1.3-.9-2-1.4.2-1.2.3-2.5,0-3.8.5.5,1,1,1.5,1.4,1.4,1.2,2.8,2.3,4.6,2.8.8.2,1.5-.5,1-1.2-1-1.4-2.5-2.3-3.8-3.3-1.2-.9-2.4-2-3.9-2.7-.2-.6-.4-1.2-.6-1.8-.2-.5-.5-1-.8-1.5.4.3.8.5,1.2.8,1.9,1.3,4,3.2,6.3,3.7.7.2,1-.7.7-1.1-1.3-2-4.1-3.3-6-4.6-2-1.4-4.1-2.7-6.2-4-.7-.6-1.4-1.2-2.2-1.7-1-.6-2-1.1-3-1.6-.4-.2-.7-.5-1.1-.7-2.1-1.3-4.3-2.9-6.7-3.6h-.3c-.7-.5-1.4.4-1,1,1.8,2.8,5.1,4.1,7.9,5.6,2.7,1.5,5.1,3.6,6.8,6.1,1.6,2.4,2.7,5.2,2.6,8.1,0,3.3-1.9,6.1-4.2,8.5-2.4,2.5-5,4.8-7.1,7.5-2.3,2.8-4,5.9-5.4,9.2-2.8,6.4-4.8,13.2-6,20-.6,3.4-.7,7.7-4.5,9.4-2.2,1-4,.6-5.7-.4,0-.3-.3-.5-.6-.7-.6-.4-1.2-.7-1.8-1.1-.4-.4-.8-.7-1.1-1.1-.3-.3-.8-.4-1.1-.3-4-2.1-8.3-3.7-12.4-5.3-5.6-2.2-11.4-4.1-17.1-6-12.5-4.1-24.9-8.4-37.2-12.7-23.6-8.2-47.8-14-72.5-16.8-6.8-.8-13.6-1.3-20.4-1.7-3.5-.2-7-.3-10.5-.3s-6.7-.2-10,.6c-2.9-.7-5.9-.6-9-.6s-6.1,0-9.2.2c-6.1.2-12.2.7-18.3,1.3-12.3,1.2-24.5,3.1-36.6,5.8-12,2.6-23.9,5.9-35.6,9.9-12.5,4.2-25,8.7-37.6,12.9-6.4,2.1-12.8,4.2-19.2,6.5-4.9,1.8-10,3.7-14.6,6.1-.4-.1-.8,0-1.1.3-.4.4-.8.7-1.1,1.1-.6.4-1.2.7-1.8,1.1-.3.2-.5.5-.6.8-1.3.7-2.8,1.1-4.6.7-3.7-.9-4.7-4.3-5.2-7.4-1.2-6.9-2.9-13.7-5.5-20.3-1.3-3.2-2.7-6.2-4.6-9.1-2.1-3-4.6-5.5-7.2-8-2.3-2.3-4.7-4.8-5.4-8-.7-2.9,0-5.8,1.2-8.5,1.5-3,3.9-5.4,6.8-7.2,3.1-2,7-3.2,9-6.3.4-.6-.4-1.5-1-1h-.3c-2.4.7-4.6,2.4-6.7,3.6-.4.2-.8.5-1.2.8-.5.2-1.1.5-1.6.7-1.2.6-2.2,1.4-3.2,2.3,0,0-.2.1-.3.2-2.1,1.3-4.2,2.7-6.2,4.1-2,1.3-4.7,2.6-6,4.6-.3.4,0,1.3.7,1.1,2.3-.6,4.4-2.4,6.3-3.7.4-.3.8-.5,1.2-.8-.6,1-1,2.1-1.4,3.3-1.4.6-2.7,1.8-3.9,2.7-1.4,1-2.8,1.9-3.8,3.3-.5.7.2,1.4,1,1.2,1.8-.5,3.2-1.7,4.6-2.8.5-.4,1-.9,1.5-1.4v2.3c0,.5,0,1,.2,1.4-.7.4-1.4.9-2.1,1.4-.9.7-1.6,1.4-2.2,2.3-.4.6.2,1.5.9,1.2,1.1-.5,2-1,2.9-1.8.4-.3.6-.7.9-1.1.3.8.6,1.6,1,2.3-.6.4-1.2.8-1.8,1.2-.9.6-1.5,1.2-2,2.1-.3.5.3,1.2.9,1.1,1.5-.3,2.6-1.1,3.7-2.2,0-.1.2-.3.4-.4.5.7.9,1.3,1.5,1.9,0,0,0,.1.2.2-.7.3-1.3.5-1.9,1-.9.6-1.6,1.3-2.2,2.2-.5.7.2,1.7,1.1,1.3,1-.4,1.9-.9,2.7-1.6.6-.5,1-1.1,1.4-1.7,1,1,2,2.1,3,3.1h-.2c-.4.2-.9.5-1.2.8-.7.6-1.3,1.4-1.7,2.3-.3.7.5,1.3,1.2,1.1.9-.3,1.7-.9,2.3-1.5s.6-.6.9-1c0-.1,0-.2.2-.3.8.8,1.5,1.7,2.2,2.6v.2c-.4.3-.8.6-1.2.9-.7.6-1.1,1.4-1.6,2.2-.4.6.5,1.4,1.2,1.1,1-.5,1.8-1,2.4-1.8.2-.2.3-.5.4-.7.7,1,1.4,2,2.1,3-.8.7-1.5,1.5-2.2,2.2s-1.7,1.5-2,2.6c0,.6.2,1.2.9,1.1,1.3-.2,2-1,2.9-1.9.6-.6,1.1-1.2,1.5-1.9.6,1,1.1,2,1.5,3.1-1.2.7-2.2,2-3.1,2.9-1.2,1.1-2.7,2-3.4,3.4-.2.5.3,1.2.9,1.1,1.8-.4,3-1.8,4.2-3s1.6-1.5,2.2-2.4c.4,1.1.8,2.2,1.1,3.3-1.7,1.2-3.2,2.8-4.8,4-1.9,1.5-4.3,2.6-5.9,4.4-.4.5,0,1.2.7,1.1,2.5-.3,4.9-2.2,6.8-3.6,1.3-1,2.7-2.1,3.8-3.4.2,1,.4,2,.6,3-.2,0-.4.1-.6.3-3.8,3-7.4,6-11.7,8.3-4.3,2.3-8.9,4.1-13.7,5.3-4.8,1.2-9.8,1.8-14.9,1.8s-9.4-.4-13.7-2c-4-1.4-8.1-4-8.9-8.2-.5-2.5,0-5,.2-7.5.3-2.5.4-5,0-7.5-.7-4.9-3-9.5-5.7-13.8s-6.5-8.1-8.3-12.8c-.8-2-1.1-4.1-1.1-6.1,1.4,2.8,3.9,5.1,7.1,6.7,6.8,3.3,14.7,1.7,21.4-.6,7.1-2.4,14.2-5.5,20.4-9.6,6.4-4.3,11.7-9.9,18.2-14,1.9-1.2,3.9-2.3,5.9-3.2,1.6-.8,3.6-1.6,5.5-1.3,3.6.5,3.1,4.7,1.4,6.8-2.4,2.9-6.5,3.9-9.6,5.9h0c-1.4.7-2.7,1.7-3.8,2.9-1.7,1.8-3.3,4.3-2.6,6.9,1.4,5,8.2,3.7,11.7,2.2,5.2-2.2,9.7-5.7,14.5-8.6,4.8-2.8,9.7-5.4,14.7-7.8,21-10.2,43.2-17,65.6-22.5,6.7-1.6,13.4-3.1,20-4.6.9-.2,1.7-.4,2.6-.6,10.4-1.3,20.7-3.4,31-4.7,11.4-1.5,22.9-2.5,34.4-2.9,6.5-.3,12.9-.1,19.4-.4,5.6.2,11.2.1,16.9.3,5.8.2,11.7.5,17.5,1,5.7.5,11.5,1.1,17.2,1.8s11.4,1.7,17.1,2.5c3.3.5,6.6,1,9.9,1.6,1.9.3,3.8.6,5.6.8,6.1,1.4,12.3,2.6,18.5,4.1,11.7,2.8,23.3,5.8,34.8,9.5,10.7,3.5,21.2,7.4,31.5,12.2,5.2,2.4,10.3,5,15.3,7.8,4.8,2.7,9.3,5.8,14.1,8.6,3.8,2.2,11.3,5.9,14.9,1.2,1.8-2.4.5-5.5-1.2-7.5-1.4-1.8-3.3-3.2-5.4-4.1-2.4-1.4-5.1-2.5-6.9-3.9-2-1.4-4.1-4.1-2.9-6.7,1.5-3.2,6.2-1.2,8.4-.2,7.1,3.4,12.8,8.6,18.9,13.5,5.9,4.7,12.5,8.3,19.6,11.1,6.9,2.8,14.7,5.7,22.4,4.2,4.8-.9,9.4-3.8,11.6-7.9,0,.9,0,1.8-.2,2.7-.7,4.9-4.1,8.7-7,12.7h-.3.2,0Z"/>
    <g>
      <path class="cls-3" d="M613.2,206.1c-.5-1.3-1.2-2.6-2-3.8-1.8-2.7-4-5.1-6.9-6.6-5.6-3-13.6-2.3-17.8,2.9-2.1,2.7-2.9,6.5-2.1,9.8-.2,2.9,0,5.8-.2,8.6v.8c-.2,0-.4-.1-.6-.2-6.1-2.2-11.9-4.8-17.3-8.1-5.7-3.6-10.5-8.1-15.9-11.9-2.6-1.8-5.3-3.5-8.2-4.9-2.6-1.3-5.5-2.6-8.5-2.3-4.9.4-6.4,4.9-5.4,8.7-.7,1.2-.3,3-.8,4.2-.5,1.4-1.6,2.5-2.2,3.8-7.4-4.4-15.1-8.4-22.9-11.9-20-8.9-41.1-15-62.1-20.1-6.1-1.5-12.3-2.9-18.5-4.2-6-1.2-11.9-2.4-18-3.1-4.8-.9-9.6-1.6-14.4-2.3-11.7-1.6-23.4-2.7-35.1-3.2-5.3-.2-10.6-.5-15.9-.4-1.1-.5-2.4-.4-3.6,0-1.2-.3-2.5-.4-3.6,0-4.5,0-9.1.1-13.6.3-5.9.2-11.8.6-17.7,1.1-5.9.5-11.8,1.1-17.7,1.9-5.8.8-11.6,1.5-17.3,2.7h0c-10.6,1.3-21.1,3.8-31.5,6.3-11,2.6-21.9,5.4-32.8,8.7-19.5,5.9-38.7,13.7-56.4,24.2-.6-1.3-1.7-2.4-2.2-3.8-.5-1.3,0-3.1-.8-4.2.8-2.5.6-5.3-1.7-7.2-4.8-4.2-12.2.6-16.5,3.2-5.6,3.4-10.4,7.8-15.7,11.7-5.3,3.8-11.1,6.9-17.2,9.3-1.5.6-3.1,1.2-4.7,1.8,0-.2.2-.5.2-.8,0-2.9,0-5.8-.2-8.8.5-1.9.5-3.8,0-5.6-1.8-6.2-8.6-9.5-15-8.5-6.5,1-12.1,6.6-13.9,12.6-1.7,3.4-2.7,7-2.6,10.8.2,5.2,3.1,9.6,6.2,13.8,3.2,4.5,6.3,9,8,14.2.8,2.5,1.1,5.2.9,7.8-.2,2.7-.7,5.4-.7,8.2,0,4.8,2.8,9.1,7.3,11.7,4.3,2.4,9.3,3.4,14.2,3.8,5.5.4,11.1.2,16.5-.8,6-1.1,11.8-3,17.1-5.7,4.6-2.3,9.2-5.2,12.8-8.8.3,2.6.5,5.2,1.2,7.7,1.2,4,4.4,7.3,9.1,7.7,3,.2,6.6-1,8.3-3.3,2.1-1,4.1-2,6.2-2.9,2.7-1.2,5.5-2.4,8.4-3.4,5.6-2.1,11.2-4,16.9-5.9,12.3-4.1,24.5-8.3,36.7-12.5,23.3-8.1,47.2-13.9,71.6-16.7,6.7-.8,13.4-1.3,20.2-1.6,3.4-.2,6.8-.3,10.3-.4,3.4,0,6.7,0,10-.6,2.9.6,5.8.6,8.7.6s6.1.2,9.2.3c6,.3,12.1.7,18.1,1.3,12.1,1.2,24.2,3.1,36.1,5.7,12,2.6,23.8,5.9,35.5,9.9,12.3,4.2,24.5,8.6,36.9,12.7,6.3,2.1,12.7,4.2,19,6.5,3.2,1.2,6.3,2.4,9.4,3.7,2.5,1.1,4.9,2.3,7.4,3.4,1.4,1.9,4,3.1,6.4,3.3,4,.3,7.9-1.7,9.8-5,1.8-3.1,1.8-6.9,2.2-10.4,3.2,3.2,7.2,5.8,11.3,8,4.7,2.5,9.7,4.4,14.9,5.7,5.3,1.3,10.7,1.9,16.1,1.8,5.1,0,10.3-.6,15.1-2.5,4.4-1.7,8.4-4.8,9.8-9.2,1.7-5.4-.6-10.8,0-16.2.7-5.2,3.3-10.1,6.3-14.5,3.1-4.5,6.8-8.7,8.1-14,1.2-4.9.2-10-2.3-14.4v-.5h.1ZM597.7,197.1c6,.6,10.4,5.4,12,10.8.2.7.3,1.3.3,2-.2-1.3-.6-2.5-1.1-3.4-1.8-3.1-5.7-6.1-9.6-6.5-.7,0-.9.8-.3,1.1,3.2,1.6,6.3,2.7,8,6,.7,1.4,1.3,3,1.1,4.6,0,.4,0,.7-.2,1.1,0-.6-.2-1.3-.5-1.9-1-2.5-3.1-5.3-5.9-6.2-.5-.2-1.1.4-.7.9,1.7,1.6,3.4,2.9,4.5,5.1,1.1,2.3.9,4.8-.2,7.1v.3h0c.2-.6.3-1.2.3-1.8,0-1.4-.3-2.7-.9-4,.2-.2.3-.4.2-.7-.7-1.9-2.7-4.1-4.9-4.7-.4-.9-1-1.7-2-2.1-.9-.4-1.8-.4-2.7-.2-.3,0-.6,0-.9.2-1.3.5-1.9,2.1-1.5,3.4.2.8.9,1.7,1.8,2.2-.9,0-1.9,0-2.6-.6-1-.8-1.1-2.1-.9-3.3,0-.7-.8-.8-1.1-.3-1,1.7-.2,3.7,1.2,4.9-2.3-.7-3.7-3-3.9-5.2-.5-5.6,5-9.1,10.4-8.6v-.2h.1ZM587.4,218.5h.7c.4-.2.5-.7.3-1s-.6-.4-.9-.5v-.9c.2,0,.3.1.4.1.5,0,1-.6.6-1-.3-.3-.7-.6-1.1-.9v-1.1c1,.7,2.1,1.2,3.5,1.5,1.9.3,4-.2,5.8-1.2,0,2.3-.4,4.5-.9,6.7h0c-2.8-.1-5.7-.8-8.4-1.6h0ZM601.2,209.8c.3.2.5.5.7.8.6,1,1,2,1.2,3.1,0-.2-.2-.3-.3-.5-.8-1-1.9-1.6-2.9-2.3v-.7c0-.3.3-.7.3-1v-.2c.4.3.8.6,1.1.9h0ZM600,213v-.2c.3.2.6.5.8.8.9,1.1,1.5,2.4,2,3.6,0,.1,0,.2.2.3,0,.4-.3.8-.4,1.1,0-1.6-1.3-3-2.7-3.9v-1.7h.1ZM599.9,216.6c.2.3.4.5.6.8.4.7.3,1.5.4,2.3-.5.1-1,.2-1.5.3.3-1.1.5-2.3.6-3.4h0ZM530.7,204.6c.2-.5.3-1,.3-1.6,1.9,1.8,4.6,2.9,7.2,4.2,0,.2.3.3.6.4,1.1.4,2.1,1,3,1.6h0c.4.3.8.6,1.1.9-.7-.4-1.4-.7-2-1-2.3-1-4.6-2.2-7.1-2.8-.3,0-.6.1-.7.4v.8c0,.3.5.4.7.3,1.8,1.1,3.8,1.9,5.7,2.8,2.1,1,3.8,2.2,5.8,3.4h0v.4c-.7-.4-1.4-.6-2.1-.9-1.4-.5-2.6-.9-3.9-1.7-2.3-1.5-5.1-2.4-7.7-3.4-.7-.3-1.1.7-.5,1,2.6,1.5,5.5,2.5,7.7,4.3.9.7,2.1,1.2,3.1,1.6.2,0,.4.2.5.2-2,0-4-1-5.7-1.9-2.3-1.1-4.4-2.6-6.5-3.9-.8-.5-1.6-1-2.4-1.4,1.3-.8,2.2-2.4,2.7-3.8h.2ZM138.9,203c0,.5,0,1.1.3,1.6.5,1.4,1.3,3,2.6,3.8-2.1,1.3-4.2,2.7-6.4,4-2.3,1.3-4.8,2.8-7.5,3.2h-.8s.3-.1.4-.2c1.2-.5,2.4-1,3.4-1.7,2.3-1.8,5.2-2.9,7.7-4.3.6-.3.2-1.3-.5-1-2.5,1-5.4,1.9-7.7,3.4-1.2.8-2.3,1.2-3.6,1.7-.8.3-1.6.6-2.4,1v-.4h0c1.9-1.2,3.7-2.4,5.8-3.4,1.9-.9,3.9-1.7,5.7-2.8.3.1.6,0,.7-.3s0-.5,0-.8-.4-.5-.7-.4c-2.4.7-4.8,1.8-7.1,2.8-.7.3-1.3.6-2,1,.2-.2.3-.3.5-.4.7-.5,1.4-1,2.2-1.5.5-.2.9-.5,1.4-.7.2,0,.4-.2.6-.4,2.2-1.1,4.4-2,6.1-3.3.4-.3.8-.6,1.1-1h.2,0ZM82.4,214.3c-.4.3-.7.6-1.1.9-.4.4,0,1.1.6,1,.2,0,.3,0,.4-.1v.9c-.3.1-.7.2-.9.5-.2.3-.2.9.3,1h.7v.2c-2.7.8-5.6,1.4-8.4,1.5h0c-.5-2.2-.9-4.5-.9-6.8,1,.6,2.1,1.1,3.1,1.3,2.5.4,4.5-.2,6.1-1.5v1.1h.1ZM69.8,208.8c0,.4.2.9.3,1.3v.7c-1.1.7-2.1,1.3-2.9,2.3,0,.2-.2.3-.3.5.2-1.1.7-2.1,1.2-3.1.2-.3.5-.5.7-.8.3-.3.7-.6,1.1-.9h0ZM67.2,218.6c-.2-.4-.3-.7-.4-1.1,0,0,.2-.1.2-.2.5-1.3,1.1-2.6,2-3.6l.8-.8v1.9c-1.4.8-2.7,2.3-2.7,3.8h0ZM69.1,219.8c0-.8,0-1.6.4-2.3,0-.3.4-.6.6-.8,0,1.1.3,2.3.6,3.4-.5,0-1-.2-1.5-.3h0ZM82.5,204c.4,2.7-.6,5.5-3.2,6.7-.2,0-.3,0-.5.1,1.4-1.2,2.1-3.1,1.1-4.8-.3-.5-1.2-.4-1.1.3.2,1.2,0,2.5-.9,3.3-.7.6-1.6.7-2.5.6.8-.4,1.5-1.3,1.7-2.2.3-1.2-.2-2.7-1.4-3.3-.3-.1-.6-.2-.9-.2-1.9-.5-4,.5-4.8,2.3-2.1.6-4.2,2.8-4.8,4.7,0,.3,0,.6.2.7-.6,1.2-.9,2.6-.9,4s0,1.2.3,1.8h0v-.4c-1.1-2.3-1.3-4.8-.2-7.1,1-2.2,2.7-3.5,4.5-5.1.4-.4-.2-1-.7-.9-2.8.9-4.9,3.7-5.9,6.2-.2.6-.4,1.3-.5,1.9,0-.3-.2-.7-.2-1.1,0-1.6.4-3.2,1.1-4.6,1.7-3.3,4.8-4.4,8-6,.6-.3.4-1.1-.3-1.1-3.8.4-7.7,3.3-9.6,6.5-.5.9-.9,2.2-1.1,3.5,0-2.2,1-4.5,2.1-6.2,1.4-2.3,3.6-4.4,6.1-5.5,5.4-2.5,13.4-.8,14.4,5.8h0ZM605.4,231c-3,4.1-5.7,8.5-7.1,13.3-.7,2.5-1.1,5-1.1,7.5s.5,5,.7,7.6c0,2.3,0,4.6-1.4,6.6-1.1,1.6-2.7,2.8-4.5,3.8-4,2.1-8.6,2.9-13.1,3.2-5,.3-10,0-14.9-.9-5.5-1-10.8-2.8-15.7-5.2-5.1-2.5-9.2-5.8-13.5-9.3l-.6-.3c.2-1,.4-2,.6-3,1.1,1.3,2.6,2.5,3.8,3.4,1.9,1.5,4.2,3.3,6.8,3.6.6,0,1.1-.6.7-1.1-1.5-1.8-4-3-5.9-4.4-1.6-1.3-3.1-2.8-4.8-4,.2-.8.5-1.7.8-2.5,0-.3.2-.5.3-.8.6.9,1.5,1.7,2.2,2.4,1.2,1.2,2.4,2.6,4.2,3,.6.1,1.1-.5.9-1.1-.7-1.5-2.2-2.3-3.4-3.4-.9-.8-1.9-2.1-3.1-2.8.5-1,1-2.1,1.5-3.1.5.7,1,1.3,1.5,1.9.8.9,1.6,1.7,2.9,1.9.7.1,1.1-.6.9-1.1-.3-1.1-1.2-1.8-2-2.6-.7-.7-1.4-1.5-2.2-2.2.5-.8,1-1.6,1.5-2.3.2-.2.3-.5.5-.7,0,.2.2.5.4.7.6.9,1.4,1.4,2.4,1.8.6.3,1.5-.4,1.2-1.1-.5-.8-.9-1.5-1.6-2.2-.4-.3-.8-.6-1.2-.9.8-.9,1.5-1.9,2.4-2.8v.2c.3.4.6.8,1,1.1.6.6,1.5,1.1,2.3,1.5.7.3,1.4-.4,1.2-1.1-.4-.9-1-1.7-1.7-2.3-.3-.3-.7-.5-1.1-.8,0,0-.2,0-.4-.1.8-.8,1.5-1.6,2.3-2.4.2-.2.5-.5.7-.7.4.6.8,1.2,1.4,1.7.8.7,1.6,1.2,2.7,1.6.9.3,1.6-.6,1.1-1.3-.6-.9-1.3-1.6-2.2-2.2-.6-.4-1.3-.7-1.9-1,.6-.7,1.2-1.4,1.7-2.1,0,.1.2.3.4.4,1.1,1,2.2,1.8,3.7,2.2.6.1,1.2-.6.9-1.1-.5-.9-1.1-1.6-2-2.1-.6-.4-1.2-.7-1.8-1.2.4-.7.7-1.5,1-2.3.3.4.6.8.9,1.1.9.8,1.7,1.4,2.9,1.8.7.3,1.4-.6.9-1.2-.7-.9-1.3-1.6-2.2-2.3-.6-.5-1.3-.9-2-1.4.2-1.2.3-2.5,0-3.8.5.5,1,1,1.5,1.4,1.4,1.2,2.8,2.3,4.6,2.8.8.2,1.5-.5,1-1.2-1-1.4-2.5-2.3-3.8-3.3-1.2-.9-2.4-2-3.9-2.7-.2-.6-.4-1.2-.6-1.8-.2-.5-.5-1-.8-1.5.4.3.8.5,1.2.8,1.9,1.3,4,3.2,6.3,3.7.7.2,1-.7.7-1.1-1.3-2-4.1-3.3-6-4.6-2-1.4-4.1-2.7-6.2-4-.7-.6-1.4-1.2-2.2-1.7-1-.6-2-1.1-3-1.6-.4-.2-.7-.5-1.1-.7-2.1-1.3-4.3-2.9-6.7-3.6h-.3c-.7-.5-1.4.4-1,1,1.8,2.8,5.1,4.1,7.9,5.6,2.7,1.5,5.1,3.6,6.8,6.1,1.6,2.4,2.7,5.2,2.6,8.1,0,3.3-1.9,6.1-4.2,8.5-2.4,2.5-5,4.8-7.1,7.5-2.3,2.8-4,5.9-5.4,9.2-2.8,6.4-4.8,13.2-6,20-.6,3.4-.7,7.7-4.5,9.4-2.2,1-4,.6-5.7-.4,0-.3-.3-.5-.6-.7-.6-.4-1.2-.7-1.8-1.1-.4-.4-.8-.7-1.1-1.1-.3-.3-.8-.4-1.1-.3-4-2.1-8.3-3.7-12.4-5.3-5.6-2.2-11.4-4.1-17.1-6-12.5-4.1-24.9-8.4-37.2-12.7-23.6-8.2-47.8-14-72.5-16.8-6.8-.8-13.6-1.3-20.4-1.7-3.5-.2-7-.3-10.5-.3s-6.7-.2-10,.6c-2.9-.7-5.9-.6-9-.6s-6.1,0-9.2.2c-6.1.2-12.2.7-18.3,1.3-12.3,1.2-24.5,3.1-36.6,5.8-12,2.6-23.9,5.9-35.6,9.9-12.5,4.2-25,8.7-37.6,12.9-6.4,2.1-12.8,4.2-19.2,6.5-4.9,1.8-10,3.7-14.6,6.1-.4-.1-.8,0-1.1.3-.4.4-.8.7-1.1,1.1-.6.4-1.2.7-1.8,1.1-.3.2-.5.5-.6.8-1.3.7-2.8,1.1-4.6.7-3.7-.9-4.7-4.3-5.2-7.4-1.2-6.9-2.9-13.7-5.5-20.3-1.3-3.2-2.7-6.2-4.6-9.1-2.1-3-4.6-5.5-7.2-8-2.3-2.3-4.7-4.8-5.4-8-.7-2.9,0-5.8,1.2-8.5,1.5-3,3.9-5.4,6.8-7.2,3.1-2,7-3.2,9-6.3.4-.6-.4-1.5-1-1h-.3c-2.4.7-4.6,2.4-6.7,3.6-.4.2-.8.5-1.2.8-.5.2-1.1.5-1.6.7-1.2.6-2.2,1.4-3.2,2.3,0,0-.2.1-.3.2-2.1,1.3-4.2,2.7-6.2,4.1-2,1.3-4.7,2.6-6,4.6-.3.4,0,1.3.7,1.1,2.3-.6,4.4-2.4,6.3-3.7.4-.3.8-.5,1.2-.8-.6,1-1,2.1-1.4,3.3-1.4.6-2.7,1.8-3.9,2.7-1.4,1-2.8,1.9-3.8,3.3-.5.7.2,1.4,1,1.2,1.8-.5,3.2-1.7,4.6-2.8.5-.4,1-.9,1.5-1.4v2.3c0,.5,0,1,.2,1.4-.7.4-1.4.9-2.1,1.4-.9.7-1.6,1.4-2.2,2.3-.4.6.2,1.5.9,1.2,1.1-.5,2-1,2.9-1.8.4-.3.6-.7.9-1.1.3.8.6,1.6,1,2.3-.6.4-1.2.8-1.8,1.2-.9.6-1.5,1.2-2,2.1-.3.5.3,1.2.9,1.1,1.5-.3,2.6-1.1,3.7-2.2,0-.1.2-.3.4-.4.5.7.9,1.3,1.5,1.9,0,0,0,.1.2.2-.7.3-1.3.5-1.9,1-.9.6-1.6,1.3-2.2,2.2-.5.7.2,1.7,1.1,1.3,1-.4,1.9-.9,2.7-1.6.6-.5,1-1.1,1.4-1.7,1,1,2,2.1,3,3.1h-.2c-.4.2-.9.5-1.2.8-.7.6-1.3,1.4-1.7,2.3-.3.7.5,1.3,1.2,1.1.9-.3,1.7-.9,2.3-1.5s.6-.6.9-1c0-.1,0-.2.2-.3.8.8,1.5,1.7,2.2,2.6v.2c-.4.3-.8.6-1.2.9-.7.6-1.1,1.4-1.6,2.2-.4.6.5,1.4,1.2,1.1,1-.5,1.8-1,2.4-1.8.2-.2.3-.5.4-.7.7,1,1.4,2,2.1,3-.8.7-1.5,1.5-2.2,2.2s-1.7,1.5-2,2.6c0,.6.2,1.2.9,1.1,1.3-.2,2-1,2.9-1.9.6-.6,1.1-1.2,1.5-1.9.6,1,1.1,2,1.5,3.1-1.2.7-2.2,2-3.1,2.9-1.2,1.1-2.7,2-3.4,3.4-.2.5.3,1.2.9,1.1,1.8-.4,3-1.8,4.2-3s1.6-1.5,2.2-2.4c.4,1.1.8,2.2,1.1,3.3-1.7,1.2-3.2,2.8-4.8,4-1.9,1.5-4.3,2.6-5.9,4.4-.4.5,0,1.2.7,1.1,2.5-.3,4.9-2.2,6.8-3.6,1.3-1,2.7-2.1,3.8-3.4.2,1,.4,2,.6,3-.2,0-.4.1-.6.3-3.8,3-7.4,6-11.7,8.3-4.3,2.3-8.9,4.1-13.7,5.3-4.8,1.2-9.8,1.8-14.9,1.8s-9.4-.4-13.7-2c-4-1.4-8.1-4-8.9-8.2-.5-2.5,0-5,.2-7.5.3-2.5.4-5,0-7.5-.7-4.9-3-9.5-5.7-13.8s-6.5-8.1-8.3-12.8c-.8-2-1.1-4.1-1.1-6.1,1.4,2.8,3.9,5.1,7.1,6.7,6.8,3.3,14.7,1.7,21.4-.6,7.1-2.4,14.2-5.5,20.4-9.6,6.4-4.3,11.7-9.9,18.2-14,1.9-1.2,3.9-2.3,5.9-3.2,1.6-.8,3.6-1.6,5.5-1.3,3.6.5,3.1,4.7,1.4,6.8-2.4,2.9-6.5,3.9-9.6,5.9h0c-1.4.7-2.7,1.7-3.8,2.9-1.7,1.8-3.3,4.3-2.6,6.9,1.4,5,8.2,3.7,11.7,2.2,5.2-2.2,9.7-5.7,14.5-8.6,4.8-2.8,9.7-5.4,14.7-7.8,21-10.2,43.2-17,65.6-22.5,6.7-1.6,13.4-3.1,20-4.6.9-.2,1.7-.4,2.6-.6,10.4-1.3,20.7-3.4,31-4.7,11.4-1.5,22.9-2.5,34.4-2.9,6.5-.3,12.9-.1,19.4-.4,5.6.2,11.2.1,16.9.3,5.8.2,11.7.5,17.5,1,5.7.5,11.5,1.1,17.2,1.8s11.4,1.7,17.1,2.5c3.3.5,6.6,1,9.9,1.6,1.9.3,3.8.6,5.6.8,6.1,1.4,12.3,2.6,18.5,4.1,11.7,2.8,23.3,5.8,34.8,9.5,10.7,3.5,21.2,7.4,31.5,12.2,5.2,2.4,10.3,5,15.3,7.8,4.8,2.7,9.3,5.8,14.1,8.6,3.8,2.2,11.3,5.9,14.9,1.2,1.8-2.4.5-5.5-1.2-7.5-1.4-1.8-3.3-3.2-5.4-4.1-2.4-1.4-5.1-2.5-6.9-3.9-2-1.4-4.1-4.1-2.9-6.7,1.5-3.2,6.2-1.2,8.4-.2,7.1,3.4,12.8,8.6,18.9,13.5,5.9,4.7,12.5,8.3,19.6,11.1,6.9,2.8,14.7,5.7,22.4,4.2,4.8-.9,9.4-3.8,11.6-7.9,0,.9,0,1.8-.2,2.7-.7,4.9-4.1,8.7-7,12.7h-.3.2,0Z"/>
      <path class="cls-3" d="M516.5,264.8c-.8,0-.9,1-.3,1.4,1.1.5,2.4,1.1,3.6,1,.8,0,1-1,.5-1.4-1-.8-2.6-1-3.8-.9h0Z"/>
      <path class="cls-3" d="M511.7,262.6c-.5-.1-1-.2-1.5-.3-.8-.2-1.1.8-.6,1.3,1,.9,2.1,1.2,3.4.7.5-.2.5-.8,0-1.1-.5-.2-.9-.4-1.3-.6h0Z"/>
      <path class="cls-3" d="M504.8,259.6c-.5-.1-1,0-1.5,0s-.7.3-.7.6.1.7.4.8c.5.1.9.4,1.4.4s1-.1,1.5-.2c.6,0,.7-.8.2-1.1-.4-.2-.8-.5-1.3-.7v.2h0Z"/>
      <path class="cls-3" d="M496.2,257.7h-1.3c-.4,0-.7.3-.7.7s.2.6.6.7.7.3,1.2.3.7-.2,1.1-.2c.6,0,.8-.9.2-1.1-.4-.1-.7-.4-1.2-.5h0Z"/>
      <path class="cls-3" d="M491.3,256c-.3,0-.6-.2-.9-.3h-.9c-.8,0-1.2.9-.5,1.3.3.2.7.3,1.1.4.4,0,.8,0,1.1-.2.3,0,.6-.2.6-.6s-.2-.6-.5-.6h0Z"/>
      <path class="cls-3" d="M483.1,253.5h-.8c-.7,0-.8.9-.2,1.2.2.1.5.2.7.3h.8c.6,0,.7-.8.2-1.1-.2-.1-.4-.3-.7-.3h0Z"/>
      <path class="cls-3" d="M477,252.1c-.7-.1-1,.8-.4,1.1s.9.3,1.3.4c.7.2,1-.8.4-1.1s-.9-.3-1.3-.4Z"/>
      <path class="cls-3" d="M541.5,223.3c.6.2,1.1.5,1.7.4.4,0,.8-.6.6-1,0-.3-.2-.6-.6-.6s-.5-.2-.5-.2c-.3,0-.5-.2-.8-.3-.6-.2-1.1-.3-1.7-.4-.8-.1-1,.9-.4,1.2.5.3,1.1.5,1.7.8h0Z"/>
      <path class="cls-3" d="M536.9,220.3c.4,0,.7-.6.4-.9-.4-.4-.8-.8-1.4-1-.6-.2-1.2-.3-1.8-.4-.7,0-1.2.8-.6,1.3,1,.7,2.1,1.2,3.4,1.1h0Z"/>
      <path class="cls-3" d="M528,216.1c.2,0,0,0,0,0,0,0,.2.1.2.2.2.2.4.4.7.5.6.3,1.2.3,1.7,0,.5-.2.5-1.1,0-1.2h0s-.2-.2-.3-.3c-.2-.2-.5-.4-.8-.5-.5-.3-1.2-.4-1.7-.1-.7.3-.5,1.5.3,1.3h-.1Z"/>
      <path class="cls-3" d="M522.4,214.2c.5,0,1,0,1.5-.1.6-.1.8-1.1,0-1.2-.4,0-.6-.2-.9-.3s-.7-.2-1-.3c-.6-.2-1.3.5-.9,1,.3.4.8.8,1.3.9h0Z"/>
      <path class="cls-3" d="M515.5,211.1c.3,0,.6.1.9.2.6.1,1-.7.5-1-.2-.2-.5-.4-.8-.5-.3-.2-.7-.2-1-.3-.7-.1-1.1.8-.6,1.2.3.2.6.4.9.5h0Z"/>
      <path class="cls-3" d="M509.1,208.4c.4,0,.7,0,1-.1.6-.2.5-1-.1-1.1-.2,0-.3,0-.5-.2-.3-.1-.2,0-.4-.1h-.1c-.3-.1-.7,0-.9.3-.2.3-.1.6.1.9.2.2.6.5.9.5v-.2h0Z"/>
      <path class="cls-3" d="M502.7,205.9c.2.2.5.2.7.1h.2s.1-.1.2-.2v-.3c0-.1,0-.2-.1-.3h-.2c0-.1-.2-.1-.2-.1h-.4s-.2,0-.2.1c0,0-.1.1-.2.2v.3c0,.1,0,.2.1.3h.1c0,.1,0-.1,0-.1Z"/>
      <path class="cls-3" d="M496.7,203.2h.8c.5,0,.8-.7.3-1-.2-.2-.5-.4-.8-.4h-.8c-.7,0-1.1.9-.4,1.2.3.1.5.3.8.3h.1Z"/>
      <path class="cls-3" d="M489.7,201.3c.2,0,.4,0,.7.1.7,0,1-.8.4-1.1l-.6-.3c-.2,0-.5-.1-.7-.2-.7-.1-1.1.9-.4,1.2.2,0,.4.2.6.2h0Z"/>
      <path class="cls-3" d="M472.6,249.8c-.3,0-.7.1-.8.4-.1.3,0,.6.2.8.2.1.3.3.5.4.1.1.3.2.5.2h.7c.4-.1.6-.6.5-.9-.2-.6-.9-.7-1.5-.9h-.1Z"/>
      <path class="cls-3" d="M523.1,260.6c-1.1-.9-2.3-1.2-3.8-1-.8.1-.8,1.1,0,1.3.6.2,1.1.4,1.7.5s1.1.1,1.7.2c.6,0,.9-.6.5-1h-.1Z"/>
      <path class="cls-3" d="M515.7,258.7c-.6-.4-1.1-.9-1.8-1.3-.7-.3-1.4-.4-2.2-.4s-.9.9-.4,1.3,1.1.7,1.7.9c.3.1.6.2.9.3.4,0,.8,0,1.1.2.6.2,1.3-.5.7-1h0Z"/>
      <path class="cls-3" d="M506.4,255.1c-.5-.1-1-.1-1.5,0-.7,0-.9,1-.2,1.3.4.2.8.3,1.3.4h1.4c.3,0,.6-.1.7-.4,0-.2,0-.6-.3-.7-.5-.1-.9-.3-1.3-.5h-.1Z"/>
      <path class="cls-3" d="M500.7,253.7c-.6,0-1.1-.3-1.7-.4-.6-.1-1.1.8-.6,1.1.3.2.7.4,1.1.4h1.1c.7,0,.8-1.1,0-1.1h.1Z"/>
      <path class="cls-3" d="M494.5,251.5c-.7-.2-1.3-.5-2-.5s-1.1.8-.4,1.1c.6.3,1.3.3,2,.5.6,0,1-.9.4-1.1Z"/>
      <path class="cls-3" d="M485.3,249.1c-.3,0-.5.5-.4.7,0,.3.4.5.7.5.5,0,1,0,1.5.1.7.2,1-.8.4-1.1-.7-.3-1.4-.4-2.1-.2h-.1Z"/>
      <path class="cls-3" d="M524.6,255.3c.5.4.9.7,1.5,1,.6.2,1.2.2,1.8.2s1.1-.8.4-1.1c-.5-.2-.9-.5-1.4-.7s-1-.3-1.5-.5c-.8-.3-1.4.7-.8,1.2h0Z"/>
      <path class="cls-3" d="M519.7,254c.6.1,1.1,0,1.7,0s.7-1,0-1.2c-.5-.1-.9-.4-1.3-.5s-.9-.2-1.3-.3c-.7-.2-1.2.9-.6,1.3.5.3,1,.6,1.5.8h0Z"/>
      <path class="cls-3" d="M514.4,251.3c.7-.2.4-1.2-.3-1.1-.5,0-1.1,0-1.6-.2-.3-.1-.7,0-.9.2-.2.3-.1.6.1.8.8.6,1.7.6,2.6.3h0Z"/>
      <path class="cls-3" d="M507.6,248.5h-.6c-.2,0-.5-.1-.7-.2-.7-.3-1.2.6-.7,1,.3.3.7.5,1.1.5s.8,0,1.2-.2c.7-.2.4-1.1-.3-1.1Z"/>
      <path class="cls-3" d="M502.4,247.5c0-.3-.2-.6-.5-.7-.3,0-.7-.1-1-.2-.3,0-.7.2-.7.5s.2.6.5.7c.3,0,.7.1,1,.2.3,0,.7-.2.7-.5Z"/>
      <path class="cls-3" d="M525.2,247.2c-.2.2,0,.6,0,.8.8.5,1.6.6,2.5.6s.7-1,0-1.1c-.6,0-1.3-.3-1.9-.5-.3-.1-.6,0-.8.2h.2Z"/>
      <path class="cls-3" d="M520.1,246.3c.4.1.9.2,1.3.3.3,0,.6-.1.7-.4,0-.2,0-.6-.3-.7-.5-.1-1-.3-1.5-.4-.3,0-.7.2-.7.5s.2.6.5.7h0Z"/>
      <path class="cls-3" d="M514.2,245c.6.1,1.2,0,1.8,0,.7-.1.8-1.1,0-1.2-.6,0-1.2-.2-1.8,0-.3,0-.6.3-.6.6s.2.6.5.6h0Z"/>
      <path class="cls-3" d="M531.6,242.7c-.4,0-.7,0-1-.1-.3,0-.6-.1-.9-.3-.7-.4-1.4.7-.8,1.2.4.3.9.6,1.4.7.5,0,1.1,0,1.6-.3.6-.3.4-1.2-.3-1.1h0Z"/>
      <path class="cls-3" d="M525.7,240.9c-.4.1-.9.2-1.3,0-.8-.1-1,1-.2,1.2.7.1,1.3,0,1.9-.2.7-.3.3-1.3-.4-1.1h0Z"/>
      <path class="cls-3" d="M520.3,240.4c.3,0,.7-.2.7-.5s-.2-.6-.5-.7c-.3,0-.6-.1-.8-.2-.3,0-.7.2-.7.5s.2.6.5.7c.3,0,.6.2.8.2Z"/>
      <path class="cls-3" d="M532.1,237c.6-.2.5-1.1,0-1.1s-1.6-.2-2.3-.4c-.3,0-.7,0-.9.3s0,.7,0,.8c1,.6,2,.8,3.1.4h.1Z"/>
      <path class="cls-3" d="M525.2,234.6c.7,0,.7-1.1,0-1.2-.8,0-1.7-.3-2.4-.5-.8-.3-1.3.8-.6,1.2.9.5,1.9.6,3,.5Z"/>
      <path class="cls-3" d="M517,232.4h1.6c.7,0,.7-1.1,0-1.1h-1.8c-.3,0-.6.3-.6.7s.3.5.7.5h0Z"/>
      <path class="cls-3" d="M538.7,233.8c.7-.2.4-1.2-.3-1.1-.4,0-.7-.2-1-.3s-.6-.3-.9-.5c-.2-.3-.6-.4-1-.2-.3.2-.5.6-.3.9.3.6.8,1.1,1.4,1.3.6.2,1.4.1,2,0h0Z"/>
      <path class="cls-3" d="M532.9,229.3c-.7-.1-1.5-.4-2.1-.7-.7-.3-1.3.6-.7,1.1.8.6,1.8.8,2.8.8s.7-1,0-1.1h0Z"/>
      <path class="cls-3" d="M525.7,227c-.6.1-1.3,0-1.8-.3-.7-.4-1.4.4-.8,1,.8.7,1.9.8,2.9.5.6-.2.4-1.3-.3-1.1h0Z"/>
      <path class="cls-3" d="M519.5,224.6c-.6,0-1.2,0-1.8-.2-.7-.3-1.3.8-.5,1.1s1.6.4,2.4.3c.8-.1.7-1.2,0-1.2h-.1Z"/>
      <path class="cls-3" d="M512.9,223.2c.3-.1.5-.5.4-.8s-.5-.4-.8-.3c-.2,0-.4.1-.6.2-.3.1-.5.5-.4.8s.5.4.8.3c.2,0,.4-.1.6-.2Z"/>
      <path class="cls-3" d="M536.5,226.7c.9.6,1.9.9,3,.9s.7-1.1,0-1.2c-.8,0-1.6-.4-2.4-.8-.6-.3-1.2.6-.7,1h.1Z"/>
      <path class="cls-3" d="M529.9,223.7c.5.3,1.1.7,1.6.9.6.2,1.2.3,1.9.4.7.1,1-.9.4-1.1-.5-.2-1-.5-1.5-.7s-1.1-.4-1.6-.6c-.7-.2-1.4.7-.7,1.1h-.1Z"/>
      <path class="cls-3" d="M523.2,221.2c.9.8,2,1.1,3.2.8.6-.1.8-1.1,0-1.2-.9,0-1.8-.3-2.6-.7-.7-.4-1.3.6-.7,1.1h0Z"/>
      <path class="cls-3" d="M517,218.6c0,.3.2.6.5.7.5,0,1,.1,1.5.2.3,0,.7-.2.7-.5s-.2-.6-.5-.7c-.5,0-1-.1-1.5-.1s-.7.2-.7.5h0Z"/>
      <path class="cls-3" d="M510.6,216.5c1.1.4,2,.4,3.1,0,.6-.2.4-1.2-.3-1.1-.8.1-1.6,0-2.4,0-.7-.1-1.1.9-.4,1.2h0Z"/>
      <path class="cls-3" d="M503.5,213.7c0,.3.2.7.5.7.8.1,1.6,0,2.4-.2.7-.2.4-1.2-.3-1.1-.6,0-1.3.1-1.9,0-.3,0-.7.1-.7.5h0Z"/>
      <path class="cls-3" d="M498.7,211.8c.1.3.5.4.8.3.4-.1.7-.2,1.1-.2s.6-.3.5-.6c0-.3-.3-.5-.7-.5s-1,.1-1.4.3c-.3.1-.5.4-.4.7h.1Z"/>
      <path class="cls-3" d="M550,261.8c-.6-.3-1.2-.4-1.9-.5-.5,0-.9.5-.6.9.4.5.8.9,1.4,1.3.6.4,1.2.5,1.9.7.8.2,1.4-.7.8-1.2-.5-.5-1-.9-1.6-1.2h0Z"/>
      <path class="cls-3" d="M555.6,264.6h-1.6c-.7,0-1,.8-.3,1.1.5.2.9.5,1.4.8.5.2,1.1.2,1.7.2s.9-.9.4-1.3c-.5-.3-.9-.6-1.5-.7h-.1Z"/>
      <path class="cls-3" d="M560.3,266c-.6-.3-1.4.3-.9.8.6.7,1.6,1.3,2.6.9.6-.2.5-1,0-1.2-.6-.3-1.2-.2-1.7-.6h0Z"/>
      <path class="cls-3" d="M548.8,257.6c.7.2,1.4-.5.9-1.1-.3-.5-.7-.9-1.3-1.2-.5-.2-1.1-.3-1.7-.5-.6-.2-1.2.6-.6,1,.4.3.8.7,1.2,1.1s1,.6,1.5.7h0Z"/>
      <path class="cls-3" d="M554.8,260.4c.6,0,.9-.9.4-1.2-.3-.2-.7-.5-1.1-.6-.4-.1-.7-.3-1-.5-.6-.4-1.5.3-.9.9.7.8,1.5,1.5,2.7,1.4h-.1Z"/>
      <path class="cls-3" d="M559.7,261.2v-.4c0-.1-.2-.2-.4-.2h-.5c-.3,0-.6.1-.7.4,0,.2,0,.6.3.7,0,0,.3,0,.4.1h.3c.3,0,.7-.2.7-.5h0Z"/>
      <path class="cls-3" d="M563.2,216.1c.2.3.4.6.7.8.2.2.5.3.8.4.3,0,.6,0,1,.1.6,0,1.2-.7.7-1.2-.2-.2-.3-.4-.4-.5-.2-.3-.5-.5-.8-.6-.2-.1-.5-.3-.8-.3s-.6,0-.7-.1c-.4-.2-1.1.3-.8.8,0,.2.2.5.3.7h0Z"/>
      <path class="cls-3" d="M569.7,219.8c.6,0,.8-.7.5-1.1-.4-.6-1.2-.8-1.8-1.2-.5-.4-1.2.2-1,.7.4.8,1.1,1.8,2.3,1.6Z"/>
      <path class="cls-3" d="M572.9,221.2c.3,0,.6-.3.6-.6s-.2-.5-.5-.6h-.5s-.3,0-.4.1c-.2.2-.3.5-.2.7.2.5.7.7,1.2.6l-.3-.2h.1ZM572.9,220h0ZM572.9,220h0Z"/>
      <path class="cls-3" d="M568.6,221.8c-.7-.9-2.1-.7-3.1-1.1-.5-.2-1.1.5-.7.9.9.9,2.2,2.2,3.7,1.3.3-.2.4-.7,0-1h0Z"/>
      <path class="cls-3" d="M570.6,222.6h-.2c.2,0,0,0,0,0h-.3c-.5-.3-1.2.2-.9.7.2.4.3.8.7,1.1.5.4,1.1.4,1.7.1.5-.2.7-1,.2-1.3h0c0-.1-.2-.2-.3-.3,0,0-.2,0-.2-.1,0,0-.5-.1-.3,0l-.2-.2h-.2Z"/>
      <path class="cls-3" d="M573.8,224.4c0-.1-.2-.3-.3-.4h-.2c0-.1-.2-.2-.4-.2s-.3,0-.4.1c-.2.2-.3.4-.2.7v.2c0,.1.2.3.3.4,0,0,.3.1.4.1s.3,0,.4-.1c0,0,.2-.2.2-.3v-.5h.2Z"/>
      <path class="cls-3" d="M562.5,227.8c.5.5,1.1.6,1.8.7.9.2,1.2-.9.6-1.4-.4-.4-.8-.7-1.3-.9s-.9-.3-1.3-.6c-.6-.3-1.3.3-.9.8.4.5.7,1,1.1,1.4h0Z"/>
      <path class="cls-3" d="M567.5,228.7c-.3-.1-.6-.2-.9-.5-.4-.4-1.2.2-.9.7.3.4.5.9.9,1.2.5.4,1,.5,1.7.4.8,0,.8-1.1.2-1.4-.3-.1-.6-.3-1-.5h0Z"/>
      <path class="cls-3" d="M571.3,230.3c-.3,0-.6,0-.8.3v.7c.4.2.8.6,1.3.6s.5,0,.6-.3v-.7c-.3-.3-.8-.5-1.3-.7h.2Z"/>
      <path class="cls-3" d="M563.9,231.8c0-.4-.2-.6-.5-.8-.5-.3-.9-.6-1.4-.7-.5-.2-.9-.3-1.4-.7-.6-.4-1.2.3-.9.8.4.5.8,1.1,1.3,1.5.6.5,1.3.5,2.1.5s.6-.3.7-.6h.1Z"/>
      <path class="cls-3" d="M565.2,233.6c.2.2.3.4.5.6,0,.1.2.3.4.4.3.2.6.2,1,.1.3,0,.5-.4.5-.7s0-.5-.2-.7c0-.1-.2-.2-.4-.2h-.4s-.2,0,0,0,0,0,0,0h-.4c-.6-.5-1.3.2-.9.7v-.2h0ZM567,234.5h.2-.2ZM566.9,233.1h0ZM566.5,233.2h0ZM566.3,233.3h0Z"/>
      <path class="cls-3" d="M560.5,234.8c0-.1,0-.2-.2-.3,0,0-.2-.1-.3-.2-.2-.1-.4-.2-.7-.3-.4-.2-.7-.3-1-.6-.2-.2-.6-.1-.8,0-.2.2-.2.5,0,.8.3.4.5.7.8,1.1.2.2.4.4.7.6.3.1.6.2.8.2.6,0,1.3-.7.8-1.2h0Z"/>
      <path class="cls-3" d="M564.2,236.5c-.5-.4-1.1-.4-1.7-.5-.3,0-.5.1-.6.3,0,.2,0,.6.2.7.5.3,1,.6,1.6.7.3,0,.6-.1.7-.4,0-.3,0-.6-.2-.8Z"/>
      <path class="cls-3" d="M547,249.9c.5.5,1,.7,1.8.8.6,0,1.2-.7.7-1.2-.4-.5-.7-.8-1.3-1.1-.5-.2-.9-.4-1.3-.7-.6-.4-1.3.3-.9.8.3.4.6.9,1,1.3h0Z"/>
      <path class="cls-3" d="M552.7,251.6c-.5-.4-1.3.3-.9.8.6.8,1.5,1.4,2.6,1.3.7,0,.8-1,.2-1.2-.6-.3-1.4-.5-2-.9h.1Z"/>
      <path class="cls-3" d="M558.2,253.1h-.9v.5h0c0,.1,0,.3.2.3s.3.1.4.1h.2c.2,0,.3,0,.4-.2v-.4h0c0-.1,0-.3-.2-.3h-.1Z"/>
      <path class="cls-3" d="M549.6,244.9c.6.6,1.3.8,2.1.9.7,0,1.4-.9.7-1.4-.6-.3-1-.7-1.7-.9-.6-.2-1.1-.5-1.5-1-.6-.5-1.4,0-1,.7.4.6.8,1.2,1.4,1.7Z"/>
      <path class="cls-3" d="M557.7,247.7c-.6-.7-1.5-.9-2.4-1.3-.6-.2-1.2.6-.6,1,.7.6,1.4,1.2,2.4,1.4.6.1,1.1-.6.7-1.1h-.1Z"/>
      <path class="cls-3" d="M560.6,248.6s-.3-.1-.5-.1-.3.1-.4.2c0,.1-.2.3,0,.4,0,.1,0,.3.2.4,0,0,.2.2.4.3,0,0,.3.1.4.1s.3-.1.4-.2c0-.1.2-.3,0-.4,0-.2,0-.3-.2-.4,0,0-.2-.2-.4-.3h0Z"/>
      <path class="cls-3" d="M555.6,240.6c.4-.1.6-.6.4-1-.4-1.1-1.7-1.2-2.6-1.9-.5-.4-1.2.1-1,.7.2.5.5,1.1.9,1.5.5.6,1.4.9,2.2.6h0Z"/>
      <path class="cls-3" d="M559.6,241.6c-.2-.2-.6-.2-.8,0s-.3.6,0,.8c.6.6,1.3,1,2.2,1.3.3,0,.6-.2.7-.4,0-.3,0-.6-.4-.7-.6-.3-1.1-.6-1.6-.9h-.1Z"/>
      <path class="cls-3" d="M566.7,245.3c-.4-.3-.8-.5-1.2-.7-.3-.1-.6,0-.8.3-.2.2,0,.6,0,.8.4.3.8.5,1.2.7.3.1.6,0,.8-.3s0-.6,0-.8Z"/>
      <path class="cls-3" d="M591,264.9c-.4.4-1.7.2-2.2.2-1,0-1.9.6-2.8.5-.9,0-1.7-.2-2.7,0-1.1.1-2.2.3-3.1-.4-.5-.4-1.2.2-1,.7.4,1,1.3,1.5,2.3,1.7.8.2,1.7,0,2.5.2.7,0,1.4.4,2.2.4s1.2-.2,1.8-.4c.8-.2,1.5,0,2.3-.2,1.2-.2,2.1-.9,2.1-2.1s-.9-1.1-1.4-.5h0Z"/>
      <path class="cls-3" d="M596.6,228.3c-1.6-.2-3.2-.6-4.8-.4-.6,0-.6.7-.3,1,1.3,1.1,3.1,1.5,4.7,1.8,1.7.3,3.4.5,4.9-.4.4-.3.4-1,0-1.3-1.4-.8-3-.6-4.5-.8h0Z"/>
      <path class="cls-3" d="M599,233.3c-1,0-2,.3-3,.3s-2-.2-2.9-.4c-.4,0-.9.5-.7.8,1.3,2,5.6,3,7.2.6.3-.5,0-1.3-.6-1.3h0Z"/>
      <path class="cls-3" d="M596.9,238.4c-.7,0-1.4.3-2.2.4-.7,0-1.4,0-2.1-.2-.6-.1-.8.6-.6,1,1.1,1.7,4.4,2,5.6.2.4-.6,0-1.3-.8-1.3h0Z"/>
      <path class="cls-3" d="M590.4,258.9c-1.2,0-2.8.2-4,0-.8-.2-1.1.8-.8,1.3.8,1.1,2.9,1.3,4.2,1.3s3.5,0,4.4-1.3c.3-.5.2-.9-.3-1.2-1.1-.5-2.4,0-3.5,0h0Z"/>
      <path class="cls-3" d="M594.2,253.3c-1.7.3-3.7,0-5.3.7-.6.3-.7,1.2,0,1.5,1.2.5,6.9.9,6.2-1.5,0-.4-.4-.7-.9-.6h0Z"/>
      <path class="cls-3" d="M593.3,248.1c-.8,0-1.6,0-2.3.3-.7.2-1.2,1.1-.4,1.5,1.4.8,4.3,1.1,5.2-.5.2-.3,0-.7-.3-.9-.6-.5-1.4-.4-2.2-.4h0Z"/>
      <path class="cls-3" d="M594.1,244.1h-.5c-.7-.2-1.2.6-.6,1,.7.6,2.6.9,2.8-.4,0-.3,0-.6-.4-.7-.4-.1-.8,0-1.2.1h0Z"/>
      <path class="cls-3" d="M577.6,265s-.2-.1-.3-.1c-.3,0-.5-.1-.8,0-.4,0-.8.2-1.2,0-.8-.1-1.3,1-.6,1.4.5.3,1.2.7,1.8.7s.8-.1,1.1-.3c.2-.2.4-.5.6-.6.6-.4,0-1.2-.6-1h0Z"/>
      <path class="cls-3" d="M571.9,264.6c-.3.1-.7.1-1,.1s-.8.1-1.1.2c-.7.2-.5,1,0,1.3,1,.5,2,0,2.8-.7.5-.4,0-1.3-.6-1h-.1Z"/>
      <path class="cls-3" d="M581.3,258.6v.3c.2.5.7.8,1.3.8s1.4-.7,1.3-1.3v-.2c0-.6-.6-.8-1-.5h-.4c-.2-.1-.4-.2-.6-.1-.3,0-.6.3-.6.6v.6h0v-.2h0ZM583,257.6h0Z"/>
      <path class="cls-3" d="M585,253.1v.4h0c0,.2,0,.4.3.5,0,.1.3.2.4.2h.6c.2-.1.5-.3.6-.5v-.7h0v-.2h0l-.2-.2h-.6c-.2-.2-.6-.2-.8,0-.2.1-.4.4-.4.7v-.2h.1Z"/>
      <path class="cls-3" d="M587.9,248.3v.4c0,.2.2.5.4.6s.5.2.8.2.4,0,.5-.2c0-.1.2-.2.3-.4v-.5c0-.2,0-.3-.2-.4,0-.1-.2-.2-.4-.3h-.6c-.3,0-.5.2-.7.4,0,0,0,.2-.2.3h.1Z"/>
      <path class="cls-3" d="M591.1,242.3s-.2-.2-.3-.2h-.7s-.2.2-.2.3c0,.2-.2.5,0,.7,0,.1,0,.2.2.3,0,0,.2.1.3.1h.3s.3,0,.4-.2c0,0,0-.1.2-.2,0-.1,0-.3.2-.4,0-.2,0-.4-.2-.6h0l-.2.2h0Z"/>
      <path class="cls-3" d="M588.4,237.8c.3.2.6.3,1,.2.3,0,.6-.3.7-.5v-.2c0-.2,0-.5-.2-.7s-.4-.3-.6-.3h-.7c-.3,0-.7.1-.8.4,0,.3,0,.7.2.8,0,0,.3.2.4.3h0Z"/>
      <path class="cls-3" d="M583,236.8c.3-.1.5-.5.3-.8,0-.2-.2-.4-.3-.6,0-.1-.3-.2-.4-.2h-.4c-.3.2-.4.4-.3.7,0,.2,0,.3.2.4,0,.3.5.4.8.3v.2h.1Z"/>
      <path class="cls-3" d="M589.6,232.7v-.9c-.3-.3-.7-.5-1.1-.4h-.3c-.2,0-.4,0-.5.2-.2.2-.3.5-.2.8,0,.3.3.6.6.8.6.3,1.5,0,1.7-.6h-.2ZM588.1,231.5h0Z"/>
      <path class="cls-3" d="M584.5,229.5s0,.1.2.2h.7c0-.1,0-.2,0-.1h0v-.2h0v-.2h0s-.2-.2-.3-.2h-.5l-.2.2h0v.4h0v.2-.3h0ZM584.5,229.4h0ZM584.7,229.6h0c0-.1,0,0,.2,0h-.2ZM584.8,228.7h0Z"/>
      <path class="cls-3" d="M591.3,215.3h-.4c-.2,0-.5.1-.6.3s0,.5,0,.6c.2.2.5.4.7.5.4,0,.9-.1,1-.5,0-.3,0-.6-.2-.7-.2-.1-.4-.2-.6-.2h0Z"/>
      <path class="cls-3" d="M591.3,218.1h0c0-.3-.5-.4-.8-.3-.3.1-.4.4-.3.8.2.7,1,1,1.7.7.3-.1.4-.4.3-.7,0-.3-.4-.5-.7-.4h-.2Z"/>
      <path class="cls-3" d="M596.8,201.4c.5,0,.9-.2,1.2-.6.3-.5,0-1-.7-.9h-.4s-.2,0,0,0,0,0,0,0c-.3-.2-.6-.2-.8,0s-.3.5-.2.8c.2.4.6.7,1.1.8h-.2,0Z"/>
      <path class="cls-3" d="M593.7,201.5c.2-.2.5-.4.6-.6.2-.2.2-.6,0-.8s-.6-.2-.8,0h-.2c-.3,0-.5.1-.8.3-.4.3-.3.9.2,1.1.4.2.8,0,1.2-.2l-.2.2Z"/>
      <path class="cls-3" d="M590.4,204.2h.7c0-.1.2-.3.3-.4.2-.2.2-.5,0-.7s-.5-.3-.7-.2c0,0-.3.1-.4.2h0s0,.1-.2.2v.6c0,.1.2.2.4.2h0Z"/>
      <path class="cls-3" d="M599.5,204.2h.5c.3,0,.5-.1.6-.4,0-.3,0-.5-.2-.7,0-.1-.3-.3-.4-.3-.2,0-.4-.1-.5-.1-.3,0-.6.1-.7.4,0,.3,0,.6.2.7,0,.1.3.2.5.3h0Z"/>
      <path class="cls-3" d="M153.6,265.5c-1.3,0-2.9.2-3.8,1.1-.5.4-.3,1.4.5,1.4,1.2,0,2.5-.6,3.6-1.2.6-.3.5-1.3-.3-1.3Z"/>
      <path class="cls-3" d="M159.8,262.8c-.5.1-1,.2-1.5.4s-.9.4-1.3.6c-.5.2-.4.9,0,1.1,1.3.4,2.4.1,3.4-.8.5-.5.1-1.5-.7-1.2h.1Z"/>
      <path class="cls-3" d="M166.6,259.9c-.5,0-1-.2-1.5,0-.5.1-.8.5-1.3.7-.5.3-.4,1.1.3,1.1s1,.2,1.5.1c.5,0,.9-.3,1.4-.4.3-.1.5-.5.4-.8,0-.3-.4-.5-.7-.6h0Z"/>
      <path class="cls-3" d="M174.9,257.5c-.5,0-.9-.1-1.3,0-.4.1-.7.4-1.1.5-.6.2-.3,1,.3,1.1.4,0,.7.2,1.1.2s.8-.2,1.2-.4c.4-.1.6-.4.6-.7s-.3-.6-.7-.6h-.1Z"/>
      <path class="cls-3" d="M180.2,255.2c-.3,0-.6,0-.9.1-.3,0-.6.2-.9.3-.3,0-.5.3-.5.6s.3.5.6.5.7.2,1.1.1c.4,0,.7-.2,1-.4.7-.4.3-1.4-.5-1.3h0Z"/>
      <path class="cls-3" d="M187.3,252.8h-.8c-.3,0-.5.2-.7.4-.5.3-.4,1,.3,1.1h.8c.3,0,.5-.2.7-.3.6-.3.4-1.2-.3-1.2Z"/>
      <path class="cls-3" d="M192.5,251.2c-.5.1-.9.3-1.3.5-.6.3-.2,1.2.4,1.1.4-.1.9-.2,1.3-.5.6-.3.2-1.3-.4-1.1Z"/>
      <path class="cls-3" d="M125.1,225.4c.6,0,1.1-.2,1.7-.5.6-.2,1.1-.5,1.6-.8.6-.4.4-1.4-.4-1.2-.6.1-1.2.3-1.7.5-.3,0-.5.2-.8.3,0,0-.3.1-.5.2-.3,0-.6.3-.5.6-.2.4.2.9.7.9h0Z"/>
      <path class="cls-3" d="M131.3,221.8c1.3,0,2.3-.5,3.3-1.2.6-.5,0-1.3-.6-1.2-.6,0-1.2.2-1.8.5s-1,.6-1.4,1.1c-.3.3,0,.9.5.9h0Z"/>
      <path class="cls-3" d="M137.3,218.2c.5.2,1.1.2,1.7-.1.3-.2.5-.3.7-.5l.2-.2h0c.9,0,1-1,.3-1.3-.6-.2-1.2,0-1.7.2-.3.1-.5.3-.7.5l-.3.3h0c-.6,0-.6,1,0,1.2h-.3.1Z"/>
      <path class="cls-3" d="M144.1,215.1c.5,0,1,.2,1.5,0,.5-.1.9-.5,1.3-.9.5-.6-.3-1.2-.9-1-.3.1-.7.2-1,.3s-.5.3-.9.4c-.7,0-.5,1.1,0,1.2h0Z"/>
      <path class="cls-3" d="M151.3,212c.3,0,.6,0,.9-.2.3-.1.6-.4.9-.6.6-.4,0-1.3-.6-1.2-.3,0-.7.2-1,.3-.3.2-.5.4-.7.6-.5.4,0,1.1.5,1h0Z"/>
      <path class="cls-3" d="M157.5,208.7c.3,0,.7.1,1,0,.3,0,.7-.3.9-.5s.3-.6.1-.9c-.2-.3-.6-.4-.9-.2h-.1s-.1,0,0,0c-.1,0-.3,0-.4.1-.2,0-.3.1-.5.2-.6.1-.7,1,0,1.1v.2h-.1Z"/>
      <path class="cls-3" d="M163.8,205.9s0,.1.1.1c0,0,.1.1.2.1h.4s.2,0,.2-.1l.2-.2s.1-.2.1-.3v-.3h-.1c-.1-.3-.4-.4-.7-.3h-.2s-.2.1-.2.2v.6h0v.2Z"/>
      <path class="cls-3" d="M169.9,203.1h.8c.3,0,.5-.2.8-.4.7-.3.3-1.3-.5-1.2-.3,0-.5,0-.8.1-.3,0-.5.3-.8.5-.4.3-.1,1,.4,1h.1Z"/>
      <path class="cls-3" d="M150.6,260.4c-1.5-.1-2.7.2-3.8,1.1-.4.4,0,1.1.5,1,.6,0,1.1-.1,1.7-.3.6-.2,1.1-.4,1.6-.6.7-.2.7-1.2-.1-1.3h.1Z"/>
      <path class="cls-3" d="M158.1,257.5c-.8,0-1.5.2-2.2.5s-1.1.9-1.7,1.3c-.6.4,0,1.2.7.9.3-.1.7,0,1-.2.4,0,.7-.2,1-.3.6-.2,1.2-.6,1.7-1s.2-1.3-.5-1.3h0Z"/>
      <path class="cls-3" d="M165,256.5c.6-.3.4-1.3-.3-1.3s-1,0-1.4.2c-.5.1-.9.4-1.3.5-.3,0-.4.5-.3.7.1.3.4.4.7.4h1.4c.5,0,.9-.2,1.3-.4h0Z"/>
      <path class="cls-3" d="M170.5,253.3c-.6.1-1.1.3-1.6.4-.7,0-.6,1.1.1,1.1h1.1c.4,0,.7-.2,1-.4.6-.4,0-1.2-.6-1.1Z"/>
      <path class="cls-3" d="M177,250.7c-.7,0-1.3.4-2,.6-.6.2-.2,1.2.4,1.1.7-.1,1.3-.2,2-.5s.2-1.2-.4-1.1h0Z"/>
      <path class="cls-3" d="M184.1,248.6c-.8-.1-1.4,0-2.1.3-.6.3-.3,1.3.4,1.1.5-.1,1-.2,1.5-.2s.6-.2.7-.5c0-.3-.1-.6-.4-.7h0Z"/>
      <path class="cls-3" d="M144.3,255.1c-.5.2-1,.4-1.5.6-.5.2-.9.6-1.4.8-.7.3-.3,1.1.4,1.1s1.2,0,1.8-.3c.6-.2,1-.6,1.5-1,.6-.5,0-1.5-.8-1.1h0Z"/>
      <path class="cls-3" d="M149.5,253.1c-.5.1-.9.4-1.3.6-.6.2-.7,1.1,0,1.2.6,0,1.1.2,1.7,0,.6-.2,1-.5,1.5-.8.6-.4,0-1.5-.7-1.3-.4.1-.9.2-1.3.4h.1Z"/>
      <path class="cls-3" d="M155.4,250.8c-.7,0-.9,1-.2,1.2,1,.3,1.9.2,2.6-.4.3-.2.3-.6,0-.8-.2-.3-.5-.3-.9-.2-.5.2-1.1.3-1.6.3h0Z"/>
      <path class="cls-3" d="M163.9,249.5c.5-.5,0-1.3-.8-1-.2.1-.5.1-.7.2-.2,0-.4.1-.6.1-.7,0-.9.9-.2,1.1.4.1.8.2,1.2.1.4,0,.8-.3,1.1-.6h0Z"/>
      <path class="cls-3" d="M169.1,247.1c0-.3-.4-.5-.7-.4-.3,0-.7.1-1,.2-.3,0-.5.4-.5.7s.4.5.7.4c.3,0,.7-.1,1-.2.3,0,.5-.4.5-.7Z"/>
      <path class="cls-3" d="M141.6,249.7c.9,0,1.7-.2,2.5-.7.3-.2.3-.6,0-.8-.2-.3-.5-.3-.8-.2-.6.2-1.2.4-1.9.6-.7.1-.6,1.1,0,1.1h.2Z"/>
      <path class="cls-3" d="M147.9,247.5c.5,0,.9-.2,1.3-.3.3,0,.6-.4.5-.7,0-.3-.4-.6-.8-.5-.5.1-1,.3-1.5.4-.3,0-.4.5-.3.7.1.3.4.4.7.4h.1Z"/>
      <path class="cls-3" d="M153.2,245.6c.6,0,1.2.1,1.8,0,.3,0,.5-.3.5-.6s-.3-.5-.6-.6c-.6-.1-1.2,0-1.8,0-.7.1-.6,1.1.1,1.2h0Z"/>
      <path class="cls-3" d="M138.9,245.3c.5,0,1-.4,1.4-.7.6-.5,0-1.5-.8-1.1-.3.2-.6.2-.9.3-.3,0-.6.2-1,.2-.7,0-.9.9-.2,1.1.5.2,1,.3,1.6.2h-.1Z"/>
      <path class="cls-3" d="M144.9,243.1c.8-.2.5-1.3-.3-1.1h-1.3c-.7-.2-1.1.8-.4,1.1.6.2,1.3.3,1.9.1h.1Z"/>
      <path class="cls-3" d="M148.8,241.3c.3,0,.5-.2.8-.3.3,0,.6-.4.5-.7,0-.3-.4-.5-.7-.4-.3,0-.6.2-.8.3-.3,0-.6.4-.5.7,0,.3.4.6.7.5h0Z"/>
      <path class="cls-3" d="M136.9,237.2c-.6,0-.6,1,0,1.1,1.2.4,2.2.2,3.1-.5.3-.2.3-.6,0-.9-.2-.3-.5-.3-.9-.2-.7.2-1.5.4-2.3.5h0Z"/>
      <path class="cls-3" d="M143.6,235.6c1.1,0,2-.1,2.9-.7.7-.4.2-1.5-.6-1.2s-1.6.5-2.4.6c-.7,0-.6,1.1,0,1.2h.1Z"/>
      <path class="cls-3" d="M149.9,232c-.7,0-.6,1.1,0,1.1h1.6c.3,0,.6-.2.7-.6,0-.3-.3-.6-.6-.6h-1.8.1Z"/>
      <path class="cls-3" d="M137.8,229.9c-.7.3-1.4.6-2.1.8-.6.2-.6,1.1,0,1.1,1.1,0,2-.2,2.8-.9.6-.5,0-1.4-.7-1h0Z"/>
      <path class="cls-3" d="M144.6,227.7c-.5.4-1.2.5-1.8.4-.7-.1-.9,1-.2,1.1,1,.3,2.1.1,2.9-.6.6-.6-.2-1.4-.9-.9Z"/>
      <path class="cls-3" d="M150.7,225.1c-.6.2-1.2.3-1.8.3s-.8,1.1,0,1.2c.8,0,1.7,0,2.4-.4.7-.3.2-1.3-.6-1.1h0Z"/>
      <path class="cls-3" d="M156,223.9c.3,0,.7,0,.8-.4,0-.3,0-.6-.4-.7-.2,0-.4-.1-.6-.2-.3,0-.7,0-.8.4,0,.3,0,.6.4.7.2,0,.4.1.6.2Z"/>
      <path class="cls-3" d="M129,229.2c1.1,0,2.1-.3,3-1,.6-.4,0-1.4-.7-1s-1.5.7-2.3.9c-.7,0-.6,1.2,0,1.1Z"/>
      <path class="cls-3" d="M135,226.4c.6-.1,1.2-.2,1.8-.5.6-.2,1.1-.6,1.6-1,.6-.5,0-1.4-.8-1.1-.5.2-1.1.4-1.6.6-.5.2-1,.5-1.5.8-.6.3-.3,1.3.4,1.1h.1Z"/>
      <path class="cls-3" d="M141.8,223.1c1.2.2,2.3-.1,3.2-.9.5-.5,0-1.5-.7-1.1-.7.5-1.7.7-2.5.8-.8,0-.5,1.1,0,1.2Z"/>
      <path class="cls-3" d="M149.2,220.3c.5,0,1-.1,1.5-.2.3,0,.5-.4.5-.7s-.4-.5-.7-.5c-.5,0-1,.1-1.5.2-.3,0-.5.4-.5.7s.4.5.7.5Z"/>
      <path class="cls-3" d="M154.3,217c1.1.3,2,.3,3-.1.7-.3.3-1.3-.4-1.2-.8.2-1.6.2-2.4.1-.7,0-.9.9-.2,1.1h0Z"/>
      <path class="cls-3" d="M161.5,214.6c.8.2,1.6.2,2.4,0,.3,0,.6-.4.5-.7,0-.4-.4-.5-.8-.5h-1.9c-.7,0-.9,1-.2,1.1h0Z"/>
      <path class="cls-3" d="M167.2,212c.4,0,.7,0,1.1.2.3.1.7,0,.8-.4.1-.3,0-.6-.4-.7-.5-.2-.9-.3-1.4-.3s-.6.2-.6.6.2.6.6.6h-.1Z"/>
      <path class="cls-3" d="M121.7,261.3c-.6,0-1.3.2-1.9.5s-1.1.7-1.6,1.2c-.6.6,0,1.5.8,1.2.7-.2,1.3-.3,1.9-.7.5-.3,1-.8,1.4-1.3.3-.4,0-1-.6-.9h0Z"/>
      <path class="cls-3" d="M115.9,264.5h-1.6c-.6,0-1,.3-1.5.7-.5.3-.3,1.3.4,1.3s1.1,0,1.7-.2c.5-.2.9-.5,1.4-.8.6-.3.4-1.2-.3-1.1h0Z"/>
      <path class="cls-3" d="M107.8,267.8c1,.4,2-.2,2.6-.9.5-.5-.3-1.2-.9-.8-.5.3-1.2.3-1.7.6-.5.2-.6,1,0,1.2h0Z"/>
      <path class="cls-3" d="M121.5,255.2c-.6.3-1,.7-1.3,1.2-.4.6.2,1.4.9,1.1.6-.2,1.1-.4,1.5-.7.4-.4.7-.7,1.2-1.1.6-.4,0-1.2-.6-1s-1.1.2-1.7.5h0Z"/>
      <path class="cls-3" d="M116.8,258.1c-.3.2-.7.3-1,.5-.4.1-.8.4-1.1.6-.5.3-.3,1.2.4,1.2,1.2,0,2-.6,2.7-1.4.5-.6-.4-1.3-.9-.9h0Z"/>
      <path class="cls-3" d="M110.9,261.7h.3s.3,0,.4-.1c0,0,.3-.2.3-.3v-.4c0-.3-.4-.4-.7-.4h-.5c-.2,0-.3,0-.4.2v.4c0,.3.4.5.7.5h-.1Z"/>
      <path class="cls-3" d="M104.1,217.4c.3,0,.6,0,1-.1.3,0,.6-.2.8-.4.3-.2.5-.5.7-.8,0-.2.2-.5.3-.7.3-.5-.4-.9-.8-.8h-.6c-.3,0-.6.2-.9.4s-.5.3-.7.6c-.2.2-.3.4-.4.6-.5.5,0,1.3.7,1.2h0Z"/>
      <path class="cls-3" d="M100.2,219.8c1.1.2,1.9-.8,2.3-1.6.3-.5-.5-1.1-1-.7-.6.4-1.4.6-1.8,1.2-.3.4,0,1.1.5,1.1Z"/>
      <path class="cls-3" d="M97,221.2c.5,0,1-.2,1.2-.6,0-.2,0-.6-.2-.7,0,0-.2-.1-.3-.1s-.4,0-.5.1h-.2c-.3,0-.5.3-.5.6s.2.6.6.6h-.2,0ZM97.1,219.9h0ZM97,220h0Z"/>
      <path class="cls-3" d="M105,221.6c.4-.4-.2-1.1-.7-.9-1,.5-2.3.2-3.1,1.1-.2.3-.2.8,0,1,1.4.9,2.7-.4,3.7-1.3h0Z"/>
      <path class="cls-3" d="M98.5,224.3c.6.3,1.1.2,1.7-.1.4-.3.5-.7.7-1.1.2-.5-.5-1-.9-.7h-.3s-.4.1-.3,0h-.4s-.2.1-.3.2c0,0,0,.1-.2.2h0c-.5.3-.3,1,.2,1.3l-.2.2h0Z"/>
      <path class="cls-3" d="M97.4,224.8v-.6c0-.1,0-.2-.2-.3,0,0-.2-.1-.3-.1-.2,0-.3,0-.5.1h-.2c0,.1-.2.3-.3.5v.4c0,.1,0,.3.2.3,0,0,.2.1.3.1.2,0,.4,0,.5-.1,0,0,.2-.2.3-.4h.2Z"/>
      <path class="cls-3" d="M105,227.1c-.6.5-.2,1.6.6,1.4.7-.1,1.2-.2,1.8-.7.4-.4.8-.9,1.1-1.4.4-.6-.3-1.2-.9-.8-.4.2-.9.4-1.3.6-.5.2-.9.6-1.3.9Z"/>
      <path class="cls-3" d="M104.2,228.9c.3-.5-.5-1.1-.9-.7-.3.2-.5.4-.9.5s-.7.3-1,.5c-.6.3-.6,1.3.2,1.4.6,0,1.2,0,1.7-.4.4-.3.7-.8.9-1.2h0Z"/>
      <path class="cls-3" d="M98.5,230.3c-.5.2-1,.3-1.3.7-.2.2-.2.5,0,.7,0,.2.4.3.6.3.5,0,.9-.4,1.3-.6.3-.2.3-.5,0-.7-.2-.3-.5-.3-.8-.3h.2Z"/>
      <path class="cls-3" d="M106.5,231c-.3.2-.5.4-.5.8s.3.6.7.6c.8,0,1.5,0,2.1-.5.5-.4.9-1,1.3-1.5.3-.5-.3-1.3-.9-.8-.4.3-.9.5-1.4.7s-.9.5-1.4.7h.1Z"/>
      <path class="cls-3" d="M103.2,233h-.3c-.2,0-.3.1-.4.2,0,.2-.2.4-.2.7s.2.6.5.7c.4,0,.7,0,1-.1,0-.1.3-.2.4-.4.2-.2.4-.4.5-.6.4-.6-.3-1.2-.9-.8h-.4s-.2,0,0,0,0,0,0,0l-.2.3h0ZM102.9,233.1h0ZM102.7,234.5h.2-.2ZM103.6,233.4h0ZM103.4,233.2h0Z"/>
      <path class="cls-3" d="M109.4,234.7c0,.2,0,.3,0,.2-.5.5,0,1.3.8,1.2.2,0,.5,0,.8-.2.3-.1.5-.4.8-.6.3-.3.6-.7.8-1.1.2-.3.2-.6,0-.8s-.6-.3-.8,0c-.3.3-.6.5-1,.6-.2,0-.5.2-.7.3,0,0-.2.1-.3.2,0,0,0,.1-.2.2h-.2Z"/>
      <path class="cls-3" d="M107.4,236c-.6,0-1.2.1-1.7.5-.2.2-.3.5-.2.8,0,.3.4.4.7.4.6,0,1.1-.4,1.6-.7.2-.1.3-.5.2-.7,0-.2-.4-.4-.6-.3Z"/>
      <path class="cls-3" d="M120.4,249.5c-.4.5,0,1.2.7,1.2s1.3-.3,1.8-.8c.4-.4.7-.9,1-1.3.4-.5-.3-1.3-.9-.8-.4.3-.8.5-1.3.7-.6.2-.9.6-1.3,1.1h0Z"/>
      <path class="cls-3" d="M118,252.4c.4-.5-.3-1.2-.9-.8s-1.3.6-2,.9c-.6.3-.5,1.2.2,1.2,1.1.1,2-.5,2.6-1.3h.1Z"/>
      <path class="cls-3" d="M111.4,254h0c0,.1.2.2.3.2h.6v-.9c0-.1-.2-.2-.4-.2h-.2c-.2,0-.3,0-.4.1v.9h0Z"/>
      <path class="cls-3" d="M118.2,245.8c.9,0,1.5-.3,2.1-.9.5-.5,1-1.1,1.4-1.7.4-.7-.4-1.3-1-.7-.4.4-.9.7-1.5,1-.6.2-1.1.6-1.7.9-.8.5,0,1.4.7,1.4Z"/>
      <path class="cls-3" d="M112.9,248.7c1-.2,1.6-.8,2.4-1.4.5-.4,0-1.2-.6-1-.9.3-1.8.6-2.4,1.3-.4.4,0,1.2.7,1.1h0Z"/>
      <path class="cls-3" d="M110.1,249.5s.2-.2.2-.4v-.4c0-.1-.2-.2-.4-.2s-.3,0-.5.1c0,0-.2.2-.4.3,0,0-.2.2-.2.4v.4c.2.2.6.3.9.1,0,0,.2-.2.4-.3h0Z"/>
      <path class="cls-3" d="M114.3,240.6c.8.2,1.6,0,2.2-.6.4-.4.7-1,.9-1.5.2-.5-.5-1-1-.7-.9.6-2.1.8-2.6,1.9,0,.4,0,.9.4,1h0Z"/>
      <path class="cls-3" d="M111.2,242.5c.5-.5-.3-1.2-.9-.8-.5.4-1.1.7-1.6.9-.3.1-.5.4-.4.7,0,.3.4.5.7.4.9-.2,1.6-.6,2.2-1.3h0Z"/>
      <path class="cls-3" d="M104.3,244.6c-.4.2-.8.4-1.2.7-.2.2-.3.5,0,.8s.5.4.8.3c.4-.2.8-.4,1.2-.7.3-.2.3-.5,0-.8,0-.2-.5-.4-.8-.3Z"/>
      <path class="cls-3" d="M89.7,265.2c-.9.7-1.8.5-2.8.4s-1.9,0-3,0-1.6-.5-2.5-.5-2,.3-2.5-.2c-.6-.6-1.5-.2-1.4.5,0,1,.8,1.8,1.9,2,.8.2,1.6,0,2.5.2.6.2,1.1.4,1.8.4s1.4-.3,2.2-.4c.8,0,1.5,0,2.3-.1,1.1-.2,2.1-.7,2.5-1.7.2-.5-.5-1.1-1-.7h0Z"/>
      <path class="cls-3" d="M78.3,228.9c.3-.3.3-1-.3-1-1.6-.1-3.2.3-4.8.4-1.6.2-3.1,0-4.5.8-.4.2-.4,1,0,1.3,1.5.9,3.2.6,4.9.4,1.7-.3,3.5-.7,4.7-1.8h0Z"/>
      <path class="cls-3" d="M77.5,234c.2-.4-.2-.9-.7-.8-1,.2-1.9.4-2.9.4s-2-.4-3-.3c-.7,0-.9.8-.6,1.3,1.5,2.4,5.9,1.4,7.2-.6h0Z"/>
      <path class="cls-3" d="M77.8,239.5c.3-.4,0-1.1-.6-1s-1.4.3-2.1.2c-.7,0-1.4-.3-2.2-.4-.8,0-1.2.7-.8,1.3,1.2,1.9,4.5,1.5,5.6-.2h0Z"/>
      <path class="cls-3" d="M84.2,260.1c.4-.5,0-1.4-.8-1.3-1.2.3-2.8.2-4,0-1.2,0-2.4-.5-3.5,0-.5.2-.6.7-.3,1.2.9,1.3,2.9,1.3,4.4,1.3s3.4-.2,4.2-1.3h0Z"/>
      <path class="cls-3" d="M80.9,255.5c.7-.3.6-1.1,0-1.5-1.6-.8-3.6-.4-5.3-.7-.5,0-.8.2-.9.6-.7,2.5,5,2,6.2,1.5h0Z"/>
      <path class="cls-3" d="M79.3,249.9c.7-.4.3-1.4-.4-1.5-.7-.2-1.6-.2-2.3-.3-.8,0-1.5-.1-2.2.4-.3.2-.4.6-.3.9.9,1.6,3.8,1.3,5.2.5h0Z"/>
      <path class="cls-3" d="M75.6,245.6c.5,0,.9-.2,1.3-.5.5-.4,0-1.2-.6-1h-.5c-.4-.1-.8-.2-1.2-.1-.3.1-.5.4-.4.7,0,.7.8,1,1.5.9h-.1Z"/>
      <path class="cls-3" d="M94.5,264.8h-2s-.2,0-.3.1c-.6-.2-1.3.6-.6,1,.2.1.3.4.6.6.3.3.7.4,1.2.4s1.3-.4,1.8-.7c.7-.4.2-1.5-.6-1.4h0Z"/>
      <path class="cls-3" d="M100.1,265c-.4-.1-.7-.2-1.1-.2s-.7,0-1-.1c-.7-.3-1.1.6-.6,1,.8.7,1.7,1.2,2.8.7.5-.3.7-1.1,0-1.3h-.1Z"/>
      <path class="cls-3" d="M87.3,259.6c.5,0,1.1-.3,1.3-.7v-.3h0v-.6c0-.6-.8-.8-1.2-.5h-.5c-.4-.3-1.1,0-1,.5v.2c0,.7.6,1.3,1.3,1.3h0ZM86.8,257.6h0ZM86.8,257.6h0ZM87,257.6h0ZM86.8,257.6h0Z"/>
      <path class="cls-3" d="M83,253.6v.2c0,.1.3.2.4.3h.5c.2,0,.4-.1.5-.2.2-.2.3-.5.2-.8h0v.2-.8c0-.1-.2-.3-.3-.3-.3-.1-.6-.1-.8,0h-.6s0,.2-.2.3h0c0-.1,0,0,0,0h0v1h.3Z"/>
      <path class="cls-3" d="M80.2,247.9c0,.1-.2.3-.2.4v.5c0,.2.2.3.3.4,0,.1.4.2.5.2.3,0,.5,0,.8-.2,0,0,.2-.2.2-.3v-.3c0-.2,0-.5-.2-.7s-.4-.3-.7-.4h-.6c-.2,0-.3.2-.4.3h.3,0Z"/>
      <path class="cls-3" d="M78.7,243.4s0,.1.2.2c0,0,.2.1.4.2h.3s.2,0,.3-.1c0,0,.2-.2.2-.3v-.7c0-.1,0-.2-.2-.2h-.2c0-.1-.4-.1-.4-.1,0,0-.2.1-.3.2h0v.5h0c0,.2,0,.4.2.5l-.2-.2h-.3Z"/>
      <path class="cls-3" d="M80.6,236.4c-.2,0-.4.1-.6.3s-.3.6-.2.9h0c0,.2.4.5.7.5s.6,0,1-.2c0,0,.3-.2.4-.3.3-.2.4-.6.2-.8,0-.3-.4-.5-.8-.4h-.7Z"/>
      <path class="cls-3" d="M86.9,236.8c.3.1.7,0,.8-.3,0-.1.2-.3.2-.4,0-.3,0-.6-.3-.7-.2-.1-.6-.1-.8.1l-.3.6c0,.3,0,.7.3.8h.1Z"/>
      <path class="cls-3" d="M82,233.3c.3-.2.5-.5.6-.8,0-.3,0-.6-.2-.8s-.4-.2-.6-.2h-1c-.2,0-.3.2-.5.3-.3.2-.2.6,0,.9.2.7,1.1.9,1.7.6h0ZM81.7,231.5h0Z"/>
      <path class="cls-3" d="M84.1,229.2v.2h0v.2h1v-.5h0v-.5h0c0-.1-.2-.2-.3-.2h-.3s-.2.1-.3.2v.4h0v.2h0ZM85,228.7h0ZM85.2,229.6h0s.2-.1.2-.2h0v.2h-.2ZM85.3,229.4h0ZM84.9,228.6h-.2.2Z"/>
      <path class="cls-3" d="M79.5,216.3c0-.2.2-.4,0-.6,0-.2-.4-.4-.6-.3h-.3c-.2,0-.4,0-.6.2s-.3.5-.2.7c.2.4.6.6,1,.5.3,0,.6-.3.7-.5h0Z"/>
      <path class="cls-3" d="M79.6,217.8c-.3-.1-.6,0-.8.3h0c-.3,0-.6.1-.7.4,0,.3,0,.6.3.7.7.3,1.5,0,1.7-.7,0-.3,0-.6-.3-.8h-.2Z"/>
      <path class="cls-3" d="M73.1,201.4c.5,0,.9-.4,1.1-.8,0-.3,0-.6-.2-.8-.3-.2-.6-.2-.8,0h-.6c-.5,0-.9.4-.6.9.2.4.7.7,1.2.6h0Z"/>
      <path class="cls-3" d="M76.2,201.5c.4.3.8.4,1.2.2.5-.2.5-.8.2-1.1s-.5-.3-.8-.3h0c-.2-.3-.6-.3-.8-.1s-.2.5,0,.8c.2.2.4.5.6.6h-.4,0Z"/>
      <path class="cls-3" d="M78.8,204h0s.2.1.3.1h.2c.2,0,.3-.1.4-.2,0-.1.2-.3,0-.4,0-.2,0-.3-.2-.4h-.2c0-.1-.3-.2-.4-.3-.2,0-.6,0-.7.2v.7c0,.1.2.2.3.3h.3,0Z"/>
      <path class="cls-3" d="M69.9,202.9c-.2,0-.3.2-.4.3-.2.2-.3.4-.2.7,0,.2.4.4.6.4h.5c.2,0,.3-.2.5-.3.2-.2.3-.5.2-.7s-.4-.4-.7-.4-.4,0-.5.1h0Z"/>
    </g>
  </g>
  <g>
    <g>
      <path class="cls-9" d="M650.6,185.5h0v-.8c-3.2-8.5-5.3-17-6.2-25.2l-2.6-22.4c.4-2.2,1.3-4.2,2.5-5.8.3-.4.3-.8,0-1.2,0-.3.2-.7,0-1v-2.6c0-.3.2-.7,0-1v-2c-3.1-4.5-5.1-9.3-5.7-14.4l-2.5-23.6c-.2-2.2-.4-4.4-.5-6.5.2-3.4.5-6.6,1.2-9.5v-6.4c0-.6-.2-1.2-.8-1.3-15.6-4.1-23.3-5.9-39.1-9.5-.4,0-.8,0-1,.3-.3.3-.4.6-.3,1v6.3c.7,4,1.2,7.7,1.3,11.2,0,1.8-.2,3.6-.4,5.3l-2.7,22.3c-.5,4.5-2.4,8.3-5.6,11.3-.3.3-.4.8-.3,1.2v5.5c-.2.3-.2.7,0,1.1,1.3,2.3,2.2,4.8,2.6,7.3l-2.4,21.2c-1,7-2.6,13.2-4.9,18.9-4.5-7.9-8.3-15.7-11.3-23.3-8.1-20.5-12.5-31.4-20-50.4,3.9-5.1,6.4-8.4,10.8-14.2,5.5-7.5,11.4-14.1,18.1-20.1.3-.3.4-.7.3-1.1v-.2c0-.2.2-.5,0-.8v-.2c0-.2.2-.5,0-.8h0v-.7h0v-.9c0-.2.2-.5,0-.8v-.2c0-.2.2-.5,0-.8h0v-.7c0-.4-.4-.7-.9-.8-10-2.1-14.9-3.1-25-5-.4,0-.7,0-1,.3s-.4.6-.3,1v5.6h0c-.4,5-2.1,9.6-4.9,13.3-5.8,7.8-9,12.1-14.2,19.2v-13.3c0-8,1.2-15.1,3.6-21.7v-.8h0v-.9h0v-.9h0v-.7h0v-.8h0v-.9h0v-.9h0v-1c-.2-.3-.5-.5-.8-.6-10.1-1.7-15-2.5-25.1-4-.4,0-.8,0-1,.4-.3.3-.3.7-.2,1.1h0c0,.3-.1.6,0,.8v.2c0,.2-.1.5,0,.8v.2c0,.2-.1.5,0,.8h0v.7h0c0,.3-.1.6,0,.8v.2c0,.2-.1.5,0,.8v.2c0,.2-.1.5,0,.8,2.5,7.8,3.8,15.8,3.8,23.7v65.1c0,7.9-1.3,15.4-3.8,22.5v.7h0v2.7h0v.7h0v2c-.1.3,0,.7,0,1,.2.3.5.5.8.5,10.1,1.5,15,2.3,25.1,4,.4,0,.8,0,1.1-.4.3-.3.3-.7.2-1.1v-2h0v-.8h0v-2.7h0v-.8c-2.4-7.5-3.6-15.5-3.6-23.7v-14.5c0-3.8.8-7.3,2.5-10.2,7,17.4,10.7,26.8,18,45,1.9,4.4,2.8,9.1,2.8,14s.4,1,.9,1.1c9.6,1.8,14.5,2.8,23.7,4.8h0c10,2.1,14.9,3.2,24.8,5.6.4.1.8,0,1.1-.3s.4-.7.3-1.1v-6c-.8-4-1.3-7.9-1.5-11.7,0-1.3.2-2.5.3-3.7,6.7,1.6,10.5,2.5,17.3,4.2.2,1.5.3,3,.3,4.5-.2,3.7-.7,7.3-1.5,10.8v6.4c0,.6.2,1.2.8,1.4,9.9,2.5,14.8,3.8,24.7,6.5h.3c.3,0,.6-.1.8-.4.3-.3.4-.8.2-1.2h0c0-.4.2-.7,0-.9h0c0-.4.2-.7,0-.9h0v-.8h0v-.7h0c0-.4.2-.7,0-.9h0c0-.4.2-.7,0-.9v-.9h0ZM616.1,86.6l6.3,55.8c-4.7-1.2-7.8-1.9-12.6-3.1,0,0,6.3-52.7,6.3-52.7Z"/>
      <path class="cls-5" d="M148.3,157.7c-3.3-7-5.4-14.6-6.3-22.4l-2.6-21.3c.4-2.4,1.3-4.9,2.6-7.1.2-.3.2-.7,0-1,.2-.3,0-.7,0-1,.2-.3,0-.6,0-.9v-1.6c.2-.3,0-.7,0-1,.2-.3,0-.6,0-.9.2-.4,0-.9-.2-1.2-3.1-3-5-7-5.7-11.6l-2.6-22.5c-.3-2.1-.4-4.2-.5-6.3.2-3.5.5-6.8,1.2-10.1v-6.4c0-.4,0-.8-.3-1s-.6-.4-1-.3c-15.9,2.8-23.7,4.2-39.4,7.5-.6,0-1,.7-.9,1.3v6.5c.7,3.7,1.2,7.2,1.3,10.6,0,1.9-.2,3.7-.4,5.5l-2.7,23.5c-.5,4.8-2.4,9.5-5.8,14.1-.2.3-.2.7,0,1.1v.9c-.2.3-.2.7,0,1v2.6c-.2.3-.2.7,0,1-.2.4-.2.8,0,1.2,1.3,1.7,2.1,3.7,2.5,6l-2.4,22.2c-1.1,8.9-3.2,17.1-6.3,24.9v.8h0v.8h0v.9h0v.8h0v.8h0v.8h0v.9h0c-.2.5,0,.9.2,1.3.2.3.5.4.9.4s.2,0,.2,0c10-2.2,14.9-3.2,24.9-5.2.3,0,.6-.2.7-.5s.2-.6.2-.9v-6.4c-.8-3.6-1.3-7.2-1.5-10.9,0-1.5.2-3,.3-4.5,6.9-1.4,10.7-2.1,17.5-3.3,0,1.2.2,2.5.3,3.8-.2,3.9-.7,7.7-1.5,11.6v6c0,.4,0,.8.3,1,.3.3.6.4,1,.3,10-1.8,14.9-2.7,25-4.3.4,0,.7-.3.8-.6s.2-.7,0-1h0c.1-.3.2-.6,0-1h0c.1-.3.1-.6,0-.9,0-.3.1-.5,0-.8,0-.3.1-.6,0-.8h0c.1-.3.2-.6,0-1h0c.1-.3.1-.6,0-.9.1-.3.1-.6,0-.9l.2.4h0ZM113.5,74.2l6.4,53.1c-4.8.9-8,1.5-12.7,2.4l6.4-55.6h-.1Z"/>
      <path class="cls-12" d="M206.4,86.3c-2.4-3.3-3.6-7.1-3.6-11.3v-42.6c0-.3-.1-.6-.4-.9-.2-.2-.6-.3-.9-.3-19.5,2.2-29,3.5-48.3,6.5-.6,0-1,.6-1,1.1v31c0,.5.3.9.8,1.1.5,0,1,0,1.3-.4,4.8-6.3,9.2-10.6,13.2-12.7,3.8-2,8.9-3.5,15.6-4.4v79.3c0,2-.8,3.8-2.3,5.5-1.7,1.9-3.4,2.9-5.4,3.2-1.9.3-3.7-.3-5.1-1.6-1.5-1.3-2.2-2.9-2.2-4.7v-12.3c0-3.7.2-6.6.7-9.1.6-3.2,1.6-6.2,3-9,.2-.3.1-.6,0-1h0c.2-.3.1-.6,0-1h0c.1-.3.1-.6,0-.9.1-.3,0-.5,0-.8.1-.3,0-.6,0-.8h0c.2-.3.1-.6,0-1h0c.1-.3.1-.6,0-.9.2-.4.1-.8-.1-1.1-.2-.3-.7-.5-1.1-.5-8.7,1.2-12.9,1.9-21.5,3.2-.6,0-1,.6-1,1.1v45.6c0,5.2,1.8,9.2,5.5,12.3,3,2.5,6.3,3.7,10.3,3.7s2,0,3.1-.2c6.9-1,10.3-1.5,17.2-2.4,5.1-.7,9.4-2.9,13-6.9,3.7-4,5.4-8.5,5.4-13.6v-33.4c0-4.3,1.2-8.4,3.7-12.5.2-.3.2-.7,0-1.1.2-.3.1-.7,0-1,.1-.3.1-.6,0-.9.1-.3,0-.5,0-.8.1-.3,0-.6,0-.8.2-.3.1-.7,0-1,.1-.3.1-.6,0-.9.1-.4.1-.8-.1-1.1l.2.3h0Z"/>
      <path class="cls-13" d="M305.3,79.2c-17.6.5-26.2.8-43.8,2-.6,0-1.1.5-1.1,1.1v23.4c0,.3.1.6.4.8.2.2.5.3.8.3s0,0,0,0c17.6-1.1,26.1-1.5,43.7-1.9.6,0,1.1-.5,1.1-1.1v-23.4c0-.3-.1-.6-.3-.8-.2-.2-.5-.3-.8-.3h0Z"/>
      <path class="cls-8" d="M366,93.2c-3.5-3.6-5.2-5.4-8.7-9-1.7-1.8-3-4.9-4-7.4-.8-2-1.4-3.5-2.1-4.2s-2-1.3-3.9-2.1c-2.5-1.1-5.6-2.5-7.4-4.3l-3.4-3.5c-1.6-1.5-2.4-3.5-2.4-5.7v-6c0-1.9.8-3.8,2.2-5.2,1.5-1.5,3.5-2.3,5.5-2.3h1c10,0,17.3,3.9,25.4,13.4.3.4.8.5,1.3.3.4-.2.7-.6.7-1.1v-31c0-.6-.5-1.1-1.1-1.1-14.5-.4-21.6-.5-36.1-.4-10.4,0-18.9,8.4-18.9,18.6v23c0,5.8,2.3,11.5,6.6,16.1l2.9,2.8c1.7,1.7,2.9,4.9,3.9,7.4.8,2.1,1.4,3.5,2.2,4.3.7.7,1.9,1.2,4.1,2.1,2.5,1.1,5.7,2.5,7.4,4.1,3.5,3.7,5.3,5.5,8.9,9.3,1.6,1.6,2.4,3.5,2.4,5.7v6c0,1.9-.8,3.7-2.2,5.1-1.5,1.4-3.4,2.3-5.5,2.3h-3.4c-10-.2-17.4-3.9-25.4-12.8-.3-.4-.8-.5-1.3-.3-.4.2-.7.6-.7,1.1v31c0,.3.1.6.3.8.2.2.5.3.8.3h0c15.4-.3,23-.3,38.4,0,5.2.2,10-1.8,13.6-5.4,3.4-3.4,5.3-7.9,5.3-12.7v-23c0-6.1-2.3-11.8-6.6-16.3h.2Z"/>
      <path class="cls-10" d="M439.2,83.5c-2.2-3.5-3.5-8-3.5-12.1v-25.2c0-10.2-8.4-19.1-18.8-19.8-8.3-.6-12.4-.8-20.7-1.2-5.1-.3-9.8,1.5-13.3,4.8s-5.5,7.9-5.5,12.9v25.2c0,4-1.3,8.2-3.7,11.7-.2.3-.2.7,0,1.1-.1.3-.1.6,0,.9-.1.3-.2.7,0,1-.1.3-.1.6,0,.9v.8c-.1.3-.1.6,0,.9-.1.3-.2.7,0,1-.2.3-.2.7,0,1.1,2.4,3.9,3.7,8.1,3.7,12.2v33.4c0,10.2,8.2,18.7,18.6,19.2,8.3.4,12.3.7,20.7,1.2h1.4c4.7,0,9-1.6,12.2-4.7,3.4-3.2,5.3-7.6,5.3-12.4v-33.4c0-4.2,1.2-8.3,3.5-11.7.2-.3.2-.8,0-1.1.1-.3.2-.7,0-1,.1-.3.1-.6,0-.9,0-.3.1-.5,0-.8.1-.3.1-.6,0-.9.1-.3.2-.7,0-1,.1-.3.1-.6,0-.9.1-.3.1-.7,0-1v-.2h0ZM412,81.6c-.2.3-.2.7-.1,1.1-.1.3-.1.6,0,.9-.1.3-.2.7,0,1-.1.3-.1.6,0,.9v.8c-.1.3-.1.6,0,.9-.1.3-.2.7,0,1-.2.4-.2.8,0,1.1,2.4,3.7,3.7,7.9,3.7,12.3v24.4c0,1.9-.8,3.7-2.2,5-1.5,1.4-3.5,2.1-5.5,2l-3-.2c-4.2-.2-7.8-3.9-7.8-8v-24.4c0-4,1.3-8.1,3.7-11.8.2-.3.2-.8,0-1.1.1-.3.2-.7,0-1,.1-.3.1-.6,0-.9,0-.3.1-.5,0-.8.1-.3.1-.6,0-.9.1-.3.2-.7,0-1,.1-.3.1-.6,0-.9.1-.3.1-.7,0-1-2.3-3.7-3.7-8-3.7-12v-16.3c0-1.9.8-3.7,2.2-5.1,1.5-1.4,3.4-2.1,5.4-2l3,.2c4.2.3,7.8,4,7.8,8.1v16.3c0,4.3-1.3,8.4-3.6,11.5h.1Z"/>
      <path class="cls-6" d="M507.4,91.5c-1.2-2.2-2.1-4.2-2.6-6.1-.6-2-.9-4.2-.9-6.3v-13.6c0-7.4,1.2-14.7,3.6-21.8v-2.7h0v-.7h0v-2.7h0c.1-.3,0-.7-.1-1-.2-.3-.5-.5-.8-.5-8.5-1.2-12.7-1.8-21.3-2.9-.3,0-.7,0-.9.3-.2.2-.4.5-.4.9v42.9c-6.8-17.1-10.9-27.2-18.4-45.8-.2-.4-.5-.7-.9-.7-8.7-.9-12.9-1.4-21.4-2.1-.4,0-.8.1-1,.4s-.3.7-.2,1.1h0c0,.2-.1.5,0,.7v.2c-.1.2-.1.5,0,.8v.2c-.1.2-.1.5,0,.8h0v.7h0c0,.2-.1.5,0,.7v.2c-.1.2-.1.5,0,.8v.2c-.1.2-.1.5,0,.8,2.5,7.7,3.8,15.5,3.8,23.4v12.8c0,4-1.3,8.1-3.7,11.4-.2.3-.2.7,0,1.1-.1.3-.1.6,0,.9-.1.3-.2.7,0,1-.1.3-.1.6,0,.9v.8c-.1.3-.1.6,0,.9-.1.3-.2.7,0,1-.2.3-.2.7,0,1,2.4,4.1,3.7,8.3,3.7,12.4v21c0,7.9-1.3,15.5-3.8,22.7v.7h0v2.7h0v.7h0v2c-.1.3,0,.7.1,1,.2.3.5.5.9.5,10.2.9,15.2,1.4,25.2,2.6.4,0,.8-.1,1-.4.2-.3.3-.7.2-1.1v-.2c.1-.2.1-.5,0-.8v-.2c.1-.2.1-.5,0-.8h0c0-.2.1-.5,0-.7h0v-.9c.1-.2.1-.5,0-.8v-.2c.1-.2.1-.5,0-.8h0c0-.2.1-.5,0-.7-1.1-3.5-2-7.1-2.7-11.5-.5-3.1-1.1-7.2-1.1-11.5v-53.1c6.8,16.9,10.9,27.1,18.3,45.6v9.4c0,7.9-1.3,15.5-3.8,22.6v.7h0v2.7h0v.7h0v2c-.1.3,0,.7.1,1s.5.5.8.5c10.1,1.2,15,1.9,25.1,3.4h.2c.3,0,.6-.1.9-.4.3-.3.3-.7.2-1.1v-1.8h0c0-.4.1-.6,0-.8h0v-2.6h0c0-.4.1-.6,0-.8l-.2-.7c-1-3.7-2-7.2-2.5-10.9-.6-4.4-.9-8.1-.9-11.5v-21.5c0-4.2,1.2-8.2,3.5-11.4.2-.3.3-.8,0-1.2.1-.3.2-.7,0-1,.1-.3.1-.6,0-.9,0-.3.1-.5,0-.8.1-.3.1-.6,0-.9.1-.3.2-.7,0-1,.1-.3.1-.6,0-.9.1-.3.1-.6,0-.9h0Z"/>
      <path class="cls-2" d="M79.2,159.5v-22.1c0-6.1-2.3-11.4-6.6-14.8h0c-3.4-2.8-5.1-4.1-8.5-6.8-1.7-1.4-3-4.4-4-6.6-.9-2-1.4-3-2-3.5s-1.6-.7-3.5-1.1c-2.4-.5-5.8-1.1-7.5-2.5l-3.3-2.6c-1.4-1.1-2.2-2.8-2.2-4.9v-6c0-4.2,3.6-8.7,7.8-9.7l.9-.2c9.7-2.4,16.8-.4,24.7,7,.3.3.8.4,1.2.2.4-.2.7-.6.7-1v-31c0-.3-.2-.7-.4-.9-.3-.2-.6-.3-1-.2-14.3,3.2-21.2,4.9-35.3,8.5-10,2.6-18.2,12.9-18.2,23v23c0,5.9,2.3,11.1,6.6,14.6l2.8,2.1c1.7,1.3,3,4.4,3.9,6.6.9,2,1.4,3.1,2,3.6.6.4,1.6.7,3.7,1.1,2.5.5,5.8,1.1,7.5,2.4,3.5,2.8,5.2,4.2,8.7,7.1,1.5,1.1,2.3,2.8,2.3,4.9v6c0,4.2-3.6,8.6-7.8,9.7l-3.2.8c-9.7,2.3-16.8.4-24.6-6.4-.3-.3-.8-.4-1.2-.2-.4.2-.7.6-.7,1v31c0,.4.2.7.4.9.2.2.4.2.7.2h.3c15-4.1,22.4-6,37.5-9.6,10.1-2.4,18.3-12.5,18.3-22.4,0,0,0-1.2,0-1.2Z"/>
      <path class="cls-11" d="M245.5,47.1c9.8,0,15.3,8.7,16.8,11.5.3.5.8.7,1.3.6.5,0,.9-.6.9-1.1v-31c0-.3-.1-.6-.4-.8-.2-.2-.5-.3-.9-.3-22.5,1.4-33.5,2.3-55.9,4.8-.6,0-1,.6-1,1.1v31c0,.5.4,1,.9,1.1s1,0,1.3-.6c3.1-6.2,9.1-13.1,16.8-14.5v23.6c0,4.2-1.3,8.6-3.5,12.2-.2.3-.2.7,0,1-.1.3-.1.6,0,.9-.2.3-.1.7,0,1-.1.3-.1.6,0,.9v.8c-.1.3-.1.6,0,.9-.2.3-.1.7,0,1-.2.4-.2.8,0,1.1,2.3,3.4,3.5,7.4,3.5,11.6v21c0,7.7-1.2,15.6-3.6,23.5v.7h0v2.6h0v.7h0v1.9c-.1.4,0,.8.2,1.1s.5.4.9.4,0,0,.1,0c10.1-1,15.1-1.4,25.2-2.2.4,0,.7-.2.9-.5s.2-.7.1-1h0c.1-.4.1-.7,0-.9h0c.1-.4.1-.7,0-.9h0c0-.2.1-.5,0-.8h0v-.7h0c.1-.4.1-.7,0-.9h0c.1-.4.1-.7,0-.9h0c0-.2.1-.5,0-.8-1.3-3.5-2.3-7.2-2.9-10.9-.6-3.6-.9-7.4-.9-11.3v-21.5c0-4.3,1.3-8.6,3.7-12.3.2-.3.2-.7,0-1.1.2-.3.1-.7,0-1,.1-.3.1-.6,0-.9.1-.3.1-.5,0-.8.1-.3,0-.6,0-.9.2-.3.1-.7,0-1,.1-.3.1-.6,0-.9.1-.4.1-.8-.1-1.1-2.3-3.1-3.6-7.2-3.6-11.5v-23.8h.3-.1,0Z"/>
    </g>
    <g>
      <path class="cls-22" d="M71.9,122.6c4,3.2,6.2,8.2,6.2,13.9v16.8c0,9.6-7.8,19-17.4,21.3-15.1,3.6-22.6,5.5-37.5,9.6v-24.7c7.2,6.3,14.6,9.2,25.6,6.6,1.3-.3,2-.5,3.3-.8,4.7-1.2,8.7-6.1,8.7-10.8v-12.3c0-2.5-.9-4.5-2.7-5.8-3.5-2.8-5.2-4.3-8.7-7.1-3.1-2.3-10.1-2.6-11.2-3.5-1.2-.9-2.9-7.7-5.9-10.2-1.2-.8-1.7-1.3-2.9-2.1-3.8-3.1-6.1-7.9-6.1-13.7v-16.8c0-9.6,7.7-19.4,17.3-21.9,14.1-3.6,21.1-5.3,35.3-8.5v24.7c-7.3-6.8-14.7-10-25.7-7.3-.4,0-.5,0-.9.2-4.7,1.2-8.7,6.2-8.7,10.9v12.3c0,2.3.9,4.5,2.7,5.8,1.3,1,2,1.6,3.3,2.6,3.1,2.5,10,2.8,11,3.6,1.2.9,2.9,7.6,6,10.1,3.4,2.7,5.1,4.1,8.5,6.9l-.2.2h0Z"/>
      <path class="cls-21" d="M122.2,161.7c1.1-5.1,1.6-10,1.6-15.1s-.2-5.6-.5-8.2c-7.8,1.4-11.7,2.2-19.5,3.7-.4,2.8-.5,5.7-.5,8.4,0,5,.5,9.8,1.6,14.5-10,2-15,3-24.9,5.2,3.3-8.3,5.3-16.7,6.4-25.2,1-9.4,1.5-14.1,2.5-23.4.2-.8.2-1.5.2-2.2,0-3.6-1.1-7-3.1-9.6,3.3-4.5,5.5-9.5,6-14.6,1.1-9.4,1.6-14.1,2.7-23.5.4-2.8.5-5.7.5-8.6,0-4.7-.5-9.4-1.5-14.1,15.7-3.3,23.6-4.8,39.4-7.5-.9,4.7-1.3,9.2-1.3,13.9s.2,6.1.5,9.1c1,9,1.5,13.5,2.6,22.5.7,4.9,2.7,9.1,6,12.3-2,3.4-3.1,7.2-3.1,10.8s0,1.4.2,2.1c1.1,9,1.6,13.5,2.7,22.4.9,8,3.1,15.7,6.4,22.7-10,1.6-15,2.5-25.1,4.3h.2ZM121.8,127.3c-2.8-23.3-5.6-46.7-8.4-70-2.8,24.4-5.6,48.8-8.4,73.2,6.7-1.3,10.1-2,16.8-3.2Z"/>
      <path class="cls-24" d="M181.5,138.3c1.7-1.8,2.6-3.9,2.6-6.3V45.1c-7.3,1-13,2.5-17.3,4.7-4.2,2.2-8.8,6.7-13.6,13v-24.7c19.3-3,28.9-4.3,48.3-6.5v42.6c0,4.5,1.3,8.5,3.9,12-2.6,4.3-3.9,8.5-3.9,13.1v33.4c0,4.9-1.7,9-5.2,12.9-3.5,3.8-7.5,6-12.3,6.6-6.9.9-10.4,1.4-17.3,2.4-5,.7-9-.3-12.5-3.2s-5.1-6.6-5.1-11.5v-39.3c8.6-1.4,12.9-2,21.5-3.2-1.7,3.3-2.6,6.5-3.1,9.3-.6,2.9-.7,6.1-.7,9.3v18.6c0,2.3,1,4.2,2.6,5.6,1.6,1.5,3.7,2.2,6.1,1.9,2.2-.3,4.2-1.5,6.1-3.5v-.3h-.1Z"/>
      <path class="cls-15" d="M263.3,26.1v24.7c-3.3-6.1-10-12.7-19.2-12v31.2c0,4.3,1.3,8.7,3.9,12.1-2.6,4-3.9,8.4-3.9,12.9v27.8c0,4,.3,7.8.9,11.5.6,3.8,1.7,7.6,3,11.1-10.1.8-15.2,1.2-25.3,2.2,2.4-7.8,3.7-15.9,3.7-23.8v-27.2c0-4.5-1.3-8.7-3.7-12.3,2.4-3.8,3.7-8.5,3.7-12.8v-31.2c-9,.8-15.7,8.6-19,15.3v-24.7c22.3-2.4,33.5-3.4,55.9-4.8h0Z"/>
      <path class="cls-17" d="M261.6,81.5c17.5-1.1,26.2-1.5,43.7-2v17.2c-17.5.5-26.3.8-43.7,2v-17.2h0Z"/>
      <path class="cls-19" d="M365.2,93.1c4.1,4.2,6.3,9.7,6.3,15.5v16.8c0,9.6-7.9,17.1-17.7,16.9-15.4-.2-23.1-.2-38.5,0v-24.7c7.4,8.2,15,12.9,26.3,13.2h3.3c4.8,0,8.9-3.9,8.9-8.6v-12.3c0-2.5-.9-4.7-2.8-6.5-3.5-3.7-5.3-5.6-8.9-9.3-3.1-3.1-10.1-5-11.5-6.3-1.5-1.4-3-8.5-6.1-11.7-1.2-1.1-1.8-1.7-3-2.9-3.9-4.1-6.3-9.5-6.3-15.2v-16.8c0-9.6,8-17.5,17.7-17.5,14.4,0,21.6,0,36.1.4v24.7c-7.4-8.7-15-13.7-26.3-13.8h-.9c-4.8,0-8.9,4-8.9,8.6v12.3c0,2.3.9,4.7,2.8,6.5,1.3,1.4,2,2.1,3.3,3.4,3.1,3.3,9.9,5,11.3,6.4,1.4,1.5,3,8.3,6.1,11.6,3.5,3.6,5.2,5.4,8.7,9v.3h.1Z"/>
      <path class="cls-20" d="M434.5,95.6v33.4c0,9.6-7.9,16.6-17.7,16-8.3-.6-12.4-.8-20.7-1.2-9.8-.5-17.6-8.5-17.6-18.1v-33.4c0-13.4-1.5-8.9-3.9-12.8,2.4-3.5,3.9-8,3.9-12.3v-25.2c0-9.6,7.8-17,17.6-16.6,8.3.4,12.4.7,20.7,1.2,9.8.7,17.7,9.1,17.7,18.6v25.2c0,4.3,1.3,8.9,3.7,12.8-2.4,3.6-3.7,7.8-3.7,12.3h0ZM408,133c4.8.3,8.9-3.4,8.9-8.1v-30.7c0-4.5-1.3-8.9-3.9-12.9,2.6-3.4,3.9-7.9,3.9-12.2v-22.5c0-4.7-4.1-8.9-8.9-9.2-1.2,0-1.8,0-3-.2-4.8-.3-8.9,3.5-8.9,8.2v22.5c0,4.3,1.5,8.9,3.9,12.6-2.4,3.7-3.9,7.9-3.9,12.4v30.7c0,4.7,4.1,8.9,8.9,9.1,1.2,0,1.8,0,3,.2h0Z"/>
      <path class="cls-18" d="M502.8,103.2v27.8c0,4,.4,7.8.9,11.7.6,4,1.7,7.8,2.8,11.8-10.1-1.5-15.1-2.1-25.2-3.4,2.6-7.3,3.9-15,3.9-23v-15.9c-8.2-20.6-12.4-30.8-20.6-51.3v65.3c0,4,.5,7.9,1.1,11.7.6,3.9,1.5,7.7,2.8,11.7-10.1-1.1-15.1-1.6-25.2-2.6,2.6-7.3,3.9-15.2,3.9-23.1v-27.2c0-4.5-1.5-9-3.9-13,2.4-3.4,3.9-7.8,3.9-12.1v-19.1c0-7.6-1.3-16-3.9-23.8,8.6.8,12.8,1.2,21.4,2.1,8.2,20.4,12.4,30.7,20.6,51.3v-48.8c8.5,1.1,12.8,1.7,21.3,2.9-2.4,7-3.7,14.4-3.7,22.2v19.8c0,2.2.3,4.5.9,6.6.6,2.2,1.7,4.4,2.8,6.3-2.4,3.4-3.7,7.6-3.7,12.1h0Z"/>
      <path class="cls-14" d="M570.7,141.4c3.6,9.2,8.2,18.3,13.3,26.9-10-2.1-15-3.1-24.9-5,0-4.9-.9-9.7-2.9-14.4-7.5-18.9-11.3-28.3-18.8-47-2.6,3.5-3.8,8-3.8,12.7v20.7c0,7.9,1.1,16,3.7,24.1-10-1.7-15-2.5-25.1-4,2.6-7.2,3.8-14.9,3.8-22.9V61c0-7.9-1.3-16.1-3.8-24,10,1.5,15.1,2.3,25.1,4-2.6,7-3.7,14.3-3.7,22.1v23.1c6.5-8.9,9.8-13.3,16.3-22,3.5-4.6,5.3-10.4,5.3-16.7s0-2.2-.2-3.3c10,1.9,15,2.9,25,5-6.7,6.2-12.7,12.9-18.2,20.3-5.1,6.7-7.7,10.1-12.8,16.9,8.8,21.9,13.1,32.9,21.9,55h-.2,0Z"/>
      <path class="cls-23" d="M624.8,177.8c1.1-4.6,1.6-9.3,1.6-14.4s-.2-5.6-.5-8.4c-7.7-1.9-11.6-2.9-19.4-4.7-.4,2.6-.5,5.5-.5,8.2,0,5,.5,10,1.6,15.2-9.9-2.3-14.9-3.4-24.9-5.6,3.3-6.9,5.3-14.4,6.4-22.4,1-8.9,1.5-13.4,2.5-22.3.2-.7.2-1.4.2-2.1,0-3.6-1.1-7.5-3.1-11,3.3-3.1,5.4-7.1,6-12,1.1-8.9,1.6-13.4,2.7-22.3.4-2.6.5-5.5.5-8.4,0-4.7-.5-9.7-1.5-14.8,15.7,3.5,23.5,5.4,39.1,9.5-.9,4.3-1.3,8.7-1.3,13.4s.2,6.2.5,9.3c1,9.4,1.5,14.1,2.5,23.6.7,5.2,2.7,10.3,5.9,14.9-2,2.5-3.1,5.9-3.1,9.5s0,1.4.2,2.2c1.1,9.4,1.6,14.2,2.7,23.6.9,8.4,3.1,17,6.3,25.5-9.9-2.7-14.8-4-24.7-6.5h.3ZM624.5,143.2c-2.8-24.5-5.5-49.1-8.3-73.6-2.8,23.2-5.6,46.4-8.3,69.6,6.7,1.6,10,2.4,16.6,4Z"/>
    </g>
  </g>
  <g>
    <path class="cls-4" d="M191,223.7c-2.3-.2-5.1.2-8.3,1.3h0c2.4-1.3,4.2-2.6,5.4-4.2,1.3-1.5,2.1-3,2.5-4.5s.4-2.8,0-4c-.8-2.3-2.5-3.7-5.2-4.4-2.7-.6-6.3-.1-10.8,1.6-.6.2-1.7.7-3.2,1.3s-3,1.3-4.7,1.9c-1.6.6-3.1,1.3-4.7,1.9-1.5.6-2.8,1.1-3.7,1.5.1.3.3.6.4,1,1-.4,1.8-.6,2.3-.6s1.1.2,1.5.7.8,1.3,1.3,2.5c1.4,3.3,2.8,6.5,4.1,9.8.2,1.3-.3,2.8-.3,2.8,0,0,1.4.6,2.2,1.7,1.3,3.2,2.7,6.3,4,9.5.5,1.1.8,2,.9,2.7,0,.6,0,1.1-.4,1.5s-1,.8-1.9,1.3c.1.3.3.6.4,1,.8-.4,1.9-1,3.3-1.6,1.4-.6,2.8-1.2,4.3-1.8,1.9-.8,3.6-1.4,5-1.9s2.5-.9,3.2-1.2c2.8-1.1,5.1-2.3,6.9-3.7,1.8-1.4,3-3,3.6-4.8s.5-3.8-.2-6c-.5-1.3-1.3-2.5-2.7-3.5-1.3-1-3.1-1.5-5.4-1.7h.2,0ZM173.6,215.6c-.7-1.7-.9-2.8-.8-3.5.1-.7.7-1.2,1.8-1.7,1.2-.5,2.3-.2,3.3.8s1.9,2.7,2.8,5.1c.5,1.4.9,2.7,1.1,4.1.2,1.3.1,2.5-.3,3.4-.4,1-1.2,1.7-2.4,2.2-.4.2-.8.3-1.3.5-1.4-3.6-2.9-7.3-4.3-10.9h0ZM190.4,238.9c-.2,1.8-1.2,3-2.8,3.6s-1.5.5-2,.4c-.5,0-.9-.3-1.3-.8-.4-.5-.8-1.3-1.2-2.5-1.6-4.1-3.2-8.1-4.8-12.2.2,0,.4-.2.7-.3,2.7-1,4.8-1.1,6.5-.1,1.7.9,2.9,2.7,3.9,5.2,1,2.7,1.4,5,1.2,6.7h-.2,0Z"/>
    <path class="cls-4" d="M204.1,199.3c-1.8.5-3.5,1.1-5.1,1.5-1.6.5-2.9.9-3.8,1.1.1.3.2.7.3,1,1-.3,1.8-.4,2.4-.4s1,.3,1.4.9c.3.5.7,1.4,1.1,2.6,1.1,3.4,2.2,6.7,3.2,10.1.1,1.4-.6,2.8-.6,2.8,0,0,1.4.8,2.1,1.9,1,3.2,2.1,6.5,3.1,9.7.4,1.2.6,2.1.6,2.7s-.1,1.1-.5,1.5c-.4.3-1,.7-2,1.1.1.3.2.7.3,1,.9-.4,2-.8,3.4-1.3s3-1,4.6-1.5c1.4-.4,2.8-.9,4.2-1.2,1.4-.4,2.5-.7,3.5-.9,0-.3-.2-.7-.3-1-.9.2-1.7.3-2.2.2-.5,0-.9-.4-1.3-.9-.3-.5-.7-1.4-1-2.6-1-3.3-1.9-6.6-2.9-9.9,0-1.3.6-2.7.6-2.7,0,0-1.3-.8-2-1.9-1-3.4-2-6.8-3-10.2-.4-1.2-.5-2.2-.6-2.8,0-.6.2-1.1.7-1.5s1.2-.7,2.2-1c0-.3-.2-.7-.3-1-1,.3-2.2.7-3.7,1.2s-3,1-4.6,1.4h.2Z"/>
    <path class="cls-4" d="M259.7,221.1c-.2.1-.5.2-.8.3-.5,0-1,0-1.4-.5-.4-.4-.9-1.2-1.3-2.4-.7-1.7-1.3-3.4-2-5.1-.8-2-2.2-3.4-4.1-4.2-1.9-.7-4.5-.8-7.8-.3,1.4-.5,2.7-1,3.7-1.5,1.9-1,3.4-2.1,4.3-3.3,1-1.2,1.6-2.4,1.9-3.7.3-1.3.3-2.6,0-3.8-.4-2-1.2-3.6-2.6-4.7-1.4-1.1-3.2-1.7-5.6-1.9-2.4-.2-5.3.1-8.7.9-.6.1-1.7.4-3.3.8-1.5.4-3.2.8-4.8,1.2s-3.2.8-4.8,1.2-2.9.7-3.9.9c0,.3.2.7.3,1,1-.2,1.8-.3,2.4-.2.6,0,1,.4,1.3.9s.6,1.4,1,2.7c.9,3.4,1.8,6.7,2.6,10.1.1,1.4-.7,2.9-.7,2.9,0,0,1.5.9,2,2.2.8,3.2,1.7,6.5,2.5,9.7.3,1.2.5,2.1.5,2.8s-.2,1.1-.6,1.4c-.4.3-1.1.6-2,1,0,.3.2.7.3,1,.9-.3,2-.7,3.5-1.1,1.5-.4,3-.8,4.7-1.2,1.4-.4,2.9-.7,4.3-1,1.4-.3,2.6-.5,3.5-.7,0-.3-.2-.7-.2-1-.9.1-1.7.2-2.2,0-.5,0-.9-.4-1.2-1s-.6-1.5-.9-2.7c-.9-3.9-1.8-7.8-2.7-11.6.6-.1,1.2-.3,1.8-.4h.4c.8-.2,1.6,0,2.2.5.6.5,1.2,1.3,1.7,2.3s1,2.2,1.5,3.5c.6,1.6,1.2,3.3,1.8,4.9.7,2,1.8,3.3,3.2,3.8s3.1.6,5.1.2c1.4-.3,2.7-.7,3.7-1.3,1.1-.6,2-1.5,2.8-2.8-.2-.2-.5-.4-.7-.6-.2.3-.4.5-.6.6v.2h-.1ZM241.3,207c-.7,1-1.9,1.6-3.5,2-.4.1-.9.2-1.3.3-1-4.1-2-8.3-2.9-12.4-.4-1.8-.5-3-.3-3.6.2-.7.9-1.1,2-1.4,1.8-.4,3.2,0,4.2,1.4,1,1.3,1.9,3.3,2.4,6,.3,1.6.5,3,.5,4.3s-.4,2.5-1.1,3.4h0Z"/>
    <path class="cls-4" d="M372.8,214.2c-1-3.9-2-7.7-3-11.6,0-1.4.7-2.8.7-2.8,0,0-1.4-.8-2-2.1-1.6-5.6-3.2-11.2-4.9-16.8h-2.7c-1,0-1.9-.1-2.7-.3-4.4,9.7-8.5,19.4-12.4,29.1-.8,2.1-1.6,3.6-2.4,4.5-.7.9-1.5,1.4-2.2,1.5v1h3.6c1.1,0,2.1,0,3,.1.9,0,2,.1,3.1.3v-1c-.9,0-1.8-.3-2.4-.6-.7-.3-1.2-.8-1.5-1.6-.3-.7-.3-1.8-.1-3.1.2-1.4.8-3.2,1.7-5.4.3-.8.6-1.5.9-2.3,3.3.1,6.6.3,9.8.5.8,2.9,1.5,5.8,2.3,8.7.5,1.8.5,3,0,3.5s-1.5.7-3.1.7v1h3.4c1.4,0,2.9.2,4.5.3s3.1.3,4.6.4c1.5.2,2.8.3,3.9.5,0-.3,0-.7.1-1-.4,0-.8-.4-1.3-.9s-.8-1.4-1.2-2.6h.3ZM350,202c1.7-4.3,3.5-8.5,5.4-12.8,1.3,4.4,2.5,8.8,3.8,13.2-3-.2-6.1-.3-9.1-.5h0Z"/>
    <path class="cls-4" d="M408.6,214.3c.4-1.9.7-3.5,1-4.7-.4,0-.7-.1-1.1-.2-.6,1.6-1.4,3.1-2.3,4.5s-2,2.6-3.1,3.6-2.2,1.8-3.2,2.3c-1.1.5-2,.7-2.8.6-.5,0-1-.2-1.5-.2-.7-.1-1.1-.3-1.5-.5-.3-.2-.5-.5-.6-1,0-.5,0-1.2.1-2.1.6-3.7,1.1-7.4,1.7-11,.4-1.3,1.8-2.3,1.8-2.3,0,0-1-1.4-1-2.8.5-3.5,1-6.9,1.6-10.4.2-1.3.4-2.2.7-2.8.3-.6.8-.9,1.4-1.1.6-.1,1.5-.1,2.7,0,0-.3.1-.7.2-1-1.1-.1-2.4-.3-4.1-.5-1.6-.2-3.3-.4-5-.7-1.8-.3-3.6-.5-5.2-.7s-2.9-.4-3.9-.6c0,.3,0,.7-.1,1,1,.2,1.8.4,2.3.7s.8.7.9,1.4v2.8c-.4,3.5-.9,7-1.3,10.5-.4,1.3-1.7,2.3-1.7,2.3,0,0,1,1.3,1.1,2.6-.4,3.4-.8,6.7-1.3,10.1-.2,1.2-.4,2.2-.6,2.8s-.6,1-1.1,1.1-1.2.2-2.2.2c0,.3,0,.7-.1,1,1.4.1,2.9.3,4.4.5,1.6.2,3.1.4,4.6.6,1.5.2,2.9.4,4.2.6,1.3.2,2.4.4,3.2.5,1.6.2,3.3.5,5.3.9s3.8.7,5.3,1.1c.2-1.8.4-3.6.7-5.3.3-1.7.5-3,.7-3.9h-.2Z"/>
    <path class="cls-4" d="M503.7,217.1c.4-.5.9-.7,1.5-.7s1.4.2,2.3.6c.1-.3.3-.6.4-1-1-.4-2.3-.9-3.9-1.5s-3.2-1.3-4.8-1.9c-.7-.3-1.4-.6-2.1-.9-.7-.3-1.4-.6-2.1-.8-5.4,5.7-10.6,11.6-15.7,17.5-.4-8-.9-16-1.6-24.1-1.4-.5-3-1-4.8-1.5-1.8-.6-3.6-1.1-5.5-1.8-.7-.2-1.5-.5-2.2-.8-.8-.3-1.4-.5-1.9-.7-.1.3-.2.7-.3,1,1,.3,1.7.7,2.1,1.1.4.4.7.9.6,1.5,0,.6-.2,1.6-.6,2.8-2.2,7-4.5,14.1-6.7,21.1-.6,1.8-1.1,3.3-1.6,4.3s-1,1.7-1.6,2-1.4.5-2.4.4c-.1.3-.2.7-.3,1,.5,0,1.1.2,1.8.4.7.2,1.4.4,2.1.6.9.3,1.8.6,2.7.9,1,.3,1.7.6,2.3.9.1-.3.2-.7.3-1-1.3-.7-2.3-1.4-2.8-2.1-.5-.7-.6-1.7-.4-2.9s.7-2.9,1.4-5.1c2.4-7.4,4.7-14.7,7.1-22.1,1.2,12.1,2.1,24.1,2.6,36.1.2,0,.5.2.7.3,7.3-8.7,14.8-17.3,22.6-25.7-1.4,3.5-2.8,7-4.1,10.5-.7,1.2-2.3,1.9-2.3,1.9,0,0,.7,1.6.4,2.9-1.2,3.1-2.5,6.3-3.7,9.4-.5,1.2-.9,2-1.3,2.5s-.9.8-1.5.7c-.6,0-1.4-.2-2.5-.5-.1.3-.2.6-.4,1,.9.3,2.1.7,3.5,1.2s2.9,1.1,4.5,1.8c1.5.6,2.9,1.2,4.4,1.8,1.4.6,2.6,1.2,3.5,1.6.1-.3.3-.6.4-1-.9-.4-1.5-.9-1.8-1.2-.4-.4-.5-.9-.4-1.5,0-.6.4-1.5.8-2.7,1.3-3.1,2.6-6.2,3.9-9.3.8-1.2,2.3-1.8,2.3-1.8,0,0-.6-1.6-.3-2.9,1.4-3.2,2.7-6.4,4.1-9.7.5-1.2.9-2,1.3-2.5h0Z"/>
    <path class="cls-4" d="M453.4,204.8c-.8-3.1-2.4-5.8-4.8-8s-5.6-3.8-9.4-4.8c-3.7-.9-7.2-.9-10.5,0-3.2.9-5.9,2.7-8.1,5.2-1.7,1.9-2.9,4.2-3.7,6.8-.5,1.3-1.9,2.3-1.9,2.3,0,0,.8,1.3.9,2.7-.3,3-.1,5.6.6,8.1.9,3.1,2.5,5.6,4.9,7.6,2.3,2,5.2,3.5,8.7,4.3,3.4.8,6.6.9,9.7,0s5.7-2.4,8-4.8c1.7-1.7,3.1-3.8,4.1-6.3.6-1.2,2-2,2-2,0,0-.6-1.1-.6-2.3.8-3.2.8-6.2.2-9v.2h-.1ZM441.9,215.1c-.8,2.4-1.7,4.5-2.7,6.4-1.3,2.5-2.8,4.3-4.3,5.6-1.5,1.2-3.1,1.6-4.6,1.2-1.4-.4-2.6-1.4-3.5-3.1-.9-1.7-1.4-4-1.5-6.8,0-2.2.1-4.7.6-7.3.6-1.1,1.8-1.9,1.8-1.9,0,0-.7-1.2-.8-2.5.7-2.6,1.6-4.9,2.6-6.9,1.3-2.5,2.7-4.4,4.3-5.6,1.6-1.2,3.2-1.6,4.9-1.2,1.6.4,2.8,1.5,3.8,3.2.9,1.8,1.4,4.1,1.5,6.9,0,2.3-.3,4.8-.9,7.6-.6,1.1-1.9,1.9-1.9,1.9,0,0,.7,1.3.7,2.6h0Z"/>
    <path class="cls-4" d="M294.7,189.4c-1.8-2.6-4.3-4.6-7.3-5.7-3.1-1.2-6.5-1.5-10.4-1-3.8.5-7,1.8-9.7,3.8-2.6,2-4.5,4.7-5.7,7.8-.9,2.4-1.2,4.9-1,7.7,0,1.4-.9,2.8-.9,2.8,0,0,1.3.9,1.8,2.2.8,2.9,1.9,5.3,3.5,7.3,2,2.5,4.4,4.3,7.3,5.4,2.9,1.1,6.1,1.4,9.6.9,3.5-.4,6.4-1.6,9-3.5,2.5-1.9,4.4-4.4,5.7-7.4.9-2.2,1.5-4.7,1.5-7.3.1-1.4,1.2-2.6,1.2-2.6,0,0-.9-.8-1.4-1.9-.5-3.3-1.5-6.1-3.1-8.4h-.1ZM287.8,203.2c.1,2.5,0,4.8-.2,6.9-.3,2.8-1,5-2,6.7s-2.3,2.6-3.8,2.8-2.9-.4-4.3-1.6c-1.4-1.3-2.7-3.2-3.8-5.8-.9-2-1.6-4.3-2.1-6.9.1-1.3,1-2.5,1-2.5,0,0-1.2-.9-1.7-2.2-.3-2.6-.3-5.1-.1-7.3.3-2.8.9-5.1,2-6.8,1-1.7,2.4-2.7,4.1-2.9,1.6-.2,3.2.3,4.7,1.6s2.8,3.3,3.9,5.9c.9,2.1,1.5,4.6,1.9,7.4-.2,1.3-1.1,2.5-1.1,2.5,0,0,1.1.9,1.6,2.2h-.1Z"/>
    <path class="cls-4" d="M339.9,201.1c.2-1.4,1.5-2.6,1.5-2.6,0,0-.8-.9-1.2-2.1-.2-5.1-1.8-9.1-4.9-11.9-3.4-3.1-8.8-4.7-16-4.4-1.1,0-2.4,0-4,.2-1.6,0-3,.2-4.3.3-1.6.1-3.3.2-4.9.3-1.6,0-2.9,0-3.9.1v1c1,0,1.8,0,2.4.2.5.2.9.6,1.1,1.2.2.6.4,1.5.4,2.8.2,3.5.4,7,.7,10.5-.2,1.4-1.2,2.6-1.2,2.6,0,0,1.2,1.1,1.5,2.5.2,3.4.4,6.7.6,10.1v2.8c-.1.6-.4,1.1-.9,1.3s-1.2.4-2.1.6v1c.9-.1,2.1-.3,3.6-.4,1.5-.1,3-.2,4.6-.3h7.1c4.2-.1,7.8-1,10.7-2.5,3-1.6,5.3-3.7,6.9-6.6,1.2-2,1.9-4.2,2.3-6.7h0ZM329.7,200.8c0,2.6-.4,4.9-.8,6.8-.6,2.6-1.5,4.6-2.8,6s-3,2.1-5.1,2.2c-1.5,0-2.4-.2-2.9-.8s-.8-1.8-.8-3.6c-.3-8.6-.7-17.3-1-25.9,0-1.8.1-3,.6-3.6s1.5-.9,3.1-1c2.3,0,4.1.5,5.6,1.8,1.4,1.2,2.5,3.1,3.2,5.7.6,2.1.9,4.6,1,7.5-.3,1.3-1.4,2.5-1.4,2.5,0,0,1.1,1.1,1.4,2.4h-.1Z"/>
  </g>
</svg>