<?xml version="1.0" encoding="UTF-8"?>
<svg id="Layer_1" data-name="Layer 1" xmlns="http://www.w3.org/2000/svg" version="1.1" viewBox="0 0 918.8 922.1">
  <defs>
    <style>
      .cls-1 {
        fill: #fff;
        stroke-width: 0px;
      }
    </style>
  </defs>
  <path class="cls-1" d="M231.4,605.3v10.2h-6.4c-42.7,0-85.4,0-128.1.3-6,0-10.9-1.3-15.3-5.2-1.9-1.7-4.1-3.1-6.9-5.3h156.7Z"/>
  <path class="cls-1" d="M687.6,615.3v-10h154.2c-4.4,3.4-8.3,6.5-12.3,9.4-.9.6-2.3.8-3.4.8h-135.9c-.7,0-1.4,0-2.5-.3h0Z"/>
  <path class="cls-1" d="M231.4,627.5v9.7h-6.4c-35.3,0-70.5.2-105.8.2s-5.1-.9-7.2-2.2c-3.4-2-6.4-4.7-10.4-7.7h129.8Z"/>
  <path class="cls-1" d="M687.4,637.3v-9.8h126.8c-7,4.3-11.3,10.2-20,10.1-33.7-.4-67.4-.3-101.1-.3h-5.7Z"/>
  <path class="cls-1" d="M386.4,650.4c-1.9,5.3-5.3,8-10.4,8h-36.4c-.5-2.9-.8-5.3-1.3-8.1h48.1,0Z"/>
  <path class="cls-1" d="M526.3,650.2h48.1c-.3,2.7-.6,5.2-1,8.2h-14.4c-7.4,0-14.7,0-22.1,0-5.5,0-9.5-1.7-10.6-8.2Z"/>
  <path class="cls-1" d="M340.9,672.4h44.3c-.6,2.5-1.1,4.7-1.7,7.3-12.1,0-24,.2-35.9,0-3.8,0-5.8-3.2-6.7-7.2h0Z"/>
  <path class="cls-1" d="M530.3,679.8c-1-2.4-1.8-4.5-2.8-7.1h43.9c-.7,4.6-2.6,7.1-6.3,7.1-11.5,0-23.1,0-34.7,0h-.1Z"/>
  <path class="cls-1" d="M591.9,614.9v-8.1h18v8.1h-18Z"/>
  <path class="cls-1" d="M262.9,606.3v8.7h-17.7v-8.7h17.7Z"/>
  <path class="cls-1" d="M641.8,606.3v8.7h-17.7v-8.7h17.7Z"/>
  <path class="cls-1" d="M673.5,606.3v8.5h-17.6v-8.5h17.6Z"/>
  <path class="cls-1" d="M293.9,606v9.1c-5.2,0-10.4.2-15.5-.2-.9,0-2.1-2.4-2.2-3.7,0-2-.6-5,2.9-5.1,4.8,0,9.7,0,14.8,0h0Z"/>
  <path class="cls-1" d="M307.8,614.5v-8h17.2v8h-17.2Z"/>
  <path class="cls-1" d="M262.9,636.6h-17.3v-7.9h17.3v7.9Z"/>
  <path class="cls-1" d="M245.4,650.6h17.5v7.5h-17.5v-7.5Z"/>
  <path class="cls-1" d="M655.8,636.4v-7.8h17.3v7.8h-17.3Z"/>
  <path class="cls-1" d="M655.8,658.2v-7.3h17.5v7.3h-17.5Z"/>
  <path class="cls-1" d="M558,614v-6.7h19.3v6.7h-19.3Z"/>
  <path class="cls-1" d="M641.9,629v7.2h-18v-7.2h18Z"/>
  <path class="cls-1" d="M339.6,607.1h18.9v6.8h-18.9v-6.8Z"/>
  <path class="cls-1" d="M276.4,636.3v-7.3h17.9c.1,2.3.2,4.6.4,7.3h-18.3Z"/>
  <path class="cls-1" d="M591.4,635.1v-5.7h18.5v5.7h-18.5Z"/>
  <path class="cls-1" d="M325.2,635.5h-17.5v-6h17.5v6Z"/>
  <path class="cls-1" d="M640.1,656.2h-15.6c-.8-2-.9-3.6,1.7-3.7,4.2,0,8.4-.2,12.5,0,.9,0,1.6,1.7,2.5,2.6-.4.3-.7.6-1.1.9h0Z"/>
  <path class="cls-1" d="M277.5,655.3c.8-1,1.6-2.7,2.5-2.8,3.5-.3,7-.2,10.5,0,.9,0,1.6,1.3,2.4,2-.9.6-1.7,1.7-2.6,1.7-4,.2-8,0-12,0-.3-.4-.6-.7-.9-1.1v.2Z"/>
  <path class="cls-1" d="M462.9,94.7h-6.8c-131.7,0-247.5,69.6-312.5,173.9,5.5,1.8,10.1,4.9,13.6,8.8,61.1-98.4,169.4-164.3,293.3-166.3h17.9c123.9,1.9,232.1,67.9,293.3,166.3,3.6-3.9,8.1-6.9,13.6-8.8-65-104.3-180.8-173.9-312.5-173.9h.1Z"/>
  <path class="cls-1" d="M746.3,673.7c-1.4,0-2.6.6-3.4,1.7-64.2,84.5-165.8,139-280.1,139h-6.6c-114.3,0-215.9-54.5-280.1-139-.8-1.1-2.1-1.7-3.4-1.7-5.1,0-17.6.4-17.6.4,67.2,95.5,178.7,157.6,304.4,156.5,125.7,1.1,237.2-61,304.4-156.5,0,0-12.5-.3-17.6-.4h0Z"/>
  <path class="cls-1" d="M462.7,804.2c114.9,0,216.7-57.1,278.6-144.4h5.6c7-.2,13.6,0,20,0s8.3-.6,10.7-2c4.8-2.8,7.3-4.3,12.1-8.2h-102.3v10.2h33.8c-59.4,77.9-153.1,128.2-258.6,128.2h-6.6c-105.5,0-199.2-50.3-258.6-128.2h33.8v-10.2h-102.3c4.8,3.8,7.3,5.4,12.1,8.2,2.4,1.4,7.9,2,10.7,2,6.4,0,13,0,20,0h5.6c61.9,87.2,163.7,144.4,278.6,144.4h6.8Z"/>
  <path class="cls-1" d="M462.9,137.6c126.3,0,235.6,72,289.5,177.2v-4.5c-1.2-7.9-.2-16.2,3-23.4-59.8-99.2-168.6-165.6-292.6-165.6h-6.8c-124,0-232.8,66.5-292.6,165.6,3.3,7.2,4.2,15.5,3,23.4.1,1.5.1,3,0,4.5,53.8-105.2,163.2-177.2,289.5-177.2h7Z"/>
  <g>
    <path class="cls-1" d="M380,384.6c10.3,8.1,22.3,13,35.1,15.6,34.4,7,68.6,6.7,102.6-2.9.8-.2,1.7-.1,3.2-.3-6.2,8.9-16.1,10.3-24.3,14.5,11.6-.1,22.4-3.5,33-7.8-7.9,9.9-20.2,12-30.5,17.7,14.9-2.2,29.1-6,41.3-15.4-11.7,12.8-27.3,19-42,25.5,6.3,1,11.7-.9,38.6-14.2-3.9,6.8-12.6,12.2-41.2,26,14.7-1.1,27.4-7,38.7-15.7-1.5,4.6-6.3,9.5-18,16.3-7.3,4.2-15.3,7.4-23.3,11.2,12.9-.4,23.9-5.4,34.3-12.1-9.3,12.4-22.4,18.1-37,21.9,3.3-.4,6.6-.7,9.9-1.1.2.3.3.5.5.8-3,1.7-5.9,3.7-9.1,4.9-16.1,6-32.6,7.9-49.6,5.3-31.8-4.9-53.8-23.4-70-49.9-11.8-19.3-18.4-40.4-19.6-63.2,0-1.6-.1-3.2-.4-4.7-2.7-14.4,3.9-24.4,15.2-32.1,12.1-8.2,25.6-13,39.7-16.3,21.9-5.1,44.1-6.7,66.4-5.1,23.2,1.7,46.1,5.2,66.8,16.8,5.8,3.2,11.3,7.2,16,11.9,10.5,10.3,10.5,23.1.8,34.3-6,6.9-13.4,11.8-21.5,15.8-16.6,8.2-34.4,12.1-52.7,13.7-12.4,1.1-24.8,1.4-37.3,1.2-22.1-.3-43.6-4.2-64.3-12-.5-.2-1-.3-1.4-.4v-.2ZM466.4,317.4v-1.1c-15.2,1.3-30.5,1.7-45.5,4.3-11.6,2-23,6-34.1,10.3-5.6,2.2-10.8,6.5-15.1,11-5,5.3-4.8,12.4.1,17.6,3.4,3.6,7.7,6.6,12.2,8.9,11.6,5.9,24.1,9.6,37,11.7,17.9,3,35.9,3.5,54,2.3,18.5-1.3,36.5-4.6,53.4-12.4,4.6-2.1,9.1-4.7,12.9-8,8.9-7.7,8.7-16.9-.6-23.9-5.1-3.9-10.9-7-16.8-9.5-18.3-7.7-37.8-10.3-57.5-11.1h0Z"/>
    <path class="cls-1" d="M591.8,412.5c16.4,14.7,19.5,33.1,9.9,48.2-10.9,17.1-25.7,30.1-43.5,39.7-21.3,11.4-43.9,18.3-67.9,21.3-35.3,4.4-70.1,2.3-104-8.8-22.4-7.3-43.3-17.6-60.1-34.7-5.1-5.2-9.7-11.2-13.4-17.5-8.3-14.3-6.4-28.8,5-40.5,9.4-9.6,21.2-15.2,33.6-19.9,3.1,6.7,5.9,13.1,9,19.3,2,4.1,4,8.3,6.7,11.9,4.2,5.9,6.6,11.2,3.2,19-3.3,7.4-1,15.5,4.9,21.4,4.5,4.6,9.6,8.9,15.1,12.1,17.3,10.2,36.5,14.6,56.5,16-.9-.3-1.7-.6-2.6-.8-18.9-5.1-37.2-11.5-52.5-24.4-5.2-4.4-9.3-9.6-11.5-16.1-.8-2.3-.7-4.9-1-7.3.5-.2,1-.5,1.5-.7,1.4,1.4,2.9,2.7,4.2,4.2,22.7,24.7,51.4,33,83.9,30,36.1-3.3,61.3-22.9,78.8-53.6,1.8-3.2,3.6-4.8,7.5-5.1,10-.8,19.8-2.8,28.6-8,2.7-1.6,5.1-3.6,8-5.6h0ZM575.9,428q-5.3,1.7-4,6.6c2,7.6,2.4,15.3.3,22.9-1.9,7-4.8,13.7-7,20,14.8-10.7,18.5-36.9,10.7-49.4h0ZM583.6,469.9c9.3-12.9,10.9-26.9,5.2-41.7-1.1-3-3-4.1-5.9-1.6,5.3,14.4,6.2,28.8.7,43.3h0Z"/>
    <path class="cls-1" d="M449.8,664.2c-2.4-.6-4.4-1.1-6.4-1.6-20.3-5.2-36.4-24.2-38.9-45.1-1.5-12.1,1.4-23.7,2.7-35.6.7-6.3,1.8-12.5,2.8-18.7.5-3.1,1.3-6.1,2.1-9.4h91.8c.8,4.7,1.7,9.6,2.4,14.5,1.8,12.5,3.6,25,5.1,37.5,3.6,29.9-21.2,55.4-43.8,57.3-.3,0-.6.3-1.3.7v33.7c6.2,0,12.3,0,18.3,0,1.9,0,4.2.7,5.7,1.9,2.6,2.2,3.3,5.2,2,8.6-1.2,3.2-3.6,4.8-6.8,4.9-4,.2-8.1,0-12.1,0h-38.5c-1.9,0-3.9,0-5.7-.5-3.8-1-6-4.6-5.6-8.4.5-3.6,3.1-6.3,7.1-6.4,5.1-.2,10.2-.2,15.3,0,2.6,0,3.8-.9,3.8-3.7v-29.7h0ZM422,593.4c-6.5,27,4.6,42.7,16.5,49.6,13.8,8,31.1,6.3,43.7-4.3,12.4-10.4,16.7-26.9,10.8-45.4h-71ZM423.4,582.2h68.2c-.5-3.1-1.3-5.6-1.4-8.2-.1-4.1-2.1-5.1-6-5.1-17.9.2-35.8,0-53.6,0s-3.1.2-4.6.3c-.9,4.3-1.7,8.2-2.6,12.9h0Z"/>
    <path class="cls-1" d="M545.7,540.7c.9-.5,1.6-1,2.4-1.3,3.3-1.1,6.6-2.2,9.4-3.1,3.4,2.8,6.1,5.5,9.2,7.7,3.8,2.8,8,2.9,11.7-.2,4.7-3.9,9.1-8.2,13.6-12.4,4.3-4.1,8.1-8.8,12.8-12.5,7.3-5.9,15.8-8.1,25.2-6,10.5,2.4,17.2,12.8,14.4,23.3-3.8,14.4-14.1,22.5-27.9,25.8-15.7,3.8-31.7,3.6-47.4-.6-9.8-2.7-17.9-8-22.4-17.6-.4-.9-.6-1.9-1-3.1h0ZM602.6,546.6c2.7,0,6.9.4,10.9,0,6-.8,10.8-4.1,13.8-9.4.9-1.6,1.3-4.7.4-5.6-1.4-1.5-4.2-2.6-6.3-2.4-2.4.3-5,1.9-6.7,3.7-4.4,4.5-8.3,9.5-12.1,13.9h0Z"/>
    <path class="cls-1" d="M371.1,540.2c-3.7,10.6-10.9,17-20.4,20-17.9,5.7-36.3,6.3-54.3.8-10.5-3.1-18.6-9.7-22.9-20.2-3-7.6-2.5-14.9,2.7-21.3,5.2-6.6,12.5-7.9,20.4-6.9,7.1.8,13,4.2,18,9.1,4.6,4.6,9,9.3,13.6,14,1.3,1.4,2.7,2.8,4.1,4,9.5,8.5,15,8.3,23.7-1.1,1.8-1.9,3.2-2.8,5.8-1.6,2.8,1.3,5.9,2,9.4,3.1h-.1ZM314.6,546.5c-4.8-5.2-9.4-10.5-14.5-15.3-3.5-3.3-9.5-3.2-11.5-.6-1.9,2.4-.8,6.5,3,10.1,6.7,6.5,14.7,7.2,23,5.8Z"/>
    <path class="cls-1" d="M656.5,532.8c0-6.9,5.2-15.2,13.6-21,12.8-8.8,27.1-11,42.1-6.1,12.3,4,17.3,15.2,12.8,27.3-7.8,21-32.9,32.5-53.5,24.4-9.4-3.7-14.8-11.2-15-24.6h0ZM684.7,545.4c10.6,0,21.3-7.1,25.2-16.7,1.9-4.6,1.1-6.7-3.4-8.7-10.6-4.8-24.1-1.4-31.3,7.8-2.5,3.2-5,6.9-3.3,11.1,1.8,4.6,6.3,5.7,10.7,6.5.7,0,1.4,0,2.1,0h0Z"/>
    <path class="cls-1" d="M221.7,503.3c11.5.7,23.5,4.5,31.9,15.5,3,3.9,5.3,8.8,6.3,13.6,2.4,12.6-5.1,22.7-18.6,26.4-20.4,5.6-44.7-8.5-50.1-29-2.1-8.1.2-14.9,6.8-20.1,6.4-4.9,13.8-6.5,23.6-6.4h.1ZM220.4,517.7c-2.7.5-5.6.7-8.2,1.6-6.2,2.1-7.4,5.5-4.4,11.3,5.4,10.2,14.5,14.4,25.5,14.8,4.5,0,8.7-1.8,10.9-6.1,2.3-4.4.2-8.3-2.5-11.6-5.4-6.7-12.9-9.4-21.4-10h0Z"/>
    <path class="cls-1" d="M555.1,414.6c1.3-3.4,2.6-6.3,3.4-9.2,2.2-8.1,4.3-16.2,6.1-24.4.6-2.8,1.7-3.7,4.4-3.9,7-.4,12.9,1.3,16.5,7.8,3.6,6.6,2.2,13.1-2.2,18.6-2.4,3-5.9,5.5-9.3,7.3-5.6,2.9-11.9,3.7-18.8,3.8h-.1Z"/>
    <path class="cls-1" d="M451,276.2c-2.9-2.2-5.9-4.1-8.5-6.4-5.1-4.3-9.5-9-8.6-16.4,0-.5,0-1.1.2-1.6,1.1-1.9,2-4.5,3.7-5.2,1.1-.5,3.8,1.3,5.1,2.8,1.3,1.5,2.3,3.7,2.4,5.6.3,5.7,3.3,9.4,7.9,12.2,5.7,3.4,9.2,8.5,10.9,14.9.4,1.7.6,3.5.4,5.2-.3,3.1-3,4.7-5.1,2.7-6.3-6-12.2-3.1-18.2.2-1.4.8-2.6,2-4,2.4-1.5.5-3.8.9-4.6.2-.9-.9-1.2-3.4-.6-4.6,1.2-2.2,3-4.5,5.1-5.7,4.2-2.3,8.8-4,13.9-6.2h0Z"/>
    <path class="cls-1" d="M473.1,293.5c.7-8.9-2.6-15.9-8.5-21.7-7.1-7-8.2-15.1-5.2-24.2,1.4-4.2,2.7-8.5,4-12.6,6.9,1.8,11,8.8,10.1,15.9-.4,2.9-.9,6-2.2,8.6-2.1,4.1-1,6.8,2.2,9.6,4.9,4.2,7.8,9.5,7.1,16.2-.5,4.7-3,7.7-7.6,8.2h.1Z"/>
    <path class="cls-1" d="M580.9,356.7c15.6-1.5,27.3,14.3,28.3,27.6.2,3.1,0,6.3,0,9.5,0,3.4-2,4.8-5.1,4.4-2.8-.4-5.7-.7-5.4-4.9.6-7-.9-13.5-5.3-19.2-4.5-5.8-10.1-9.5-17.4-10.8-1-.2-2.2-.3-3-.8-.8-.6-1.8-1.9-1.7-2.7,0-.9,1.3-2.2,2.2-2.4,2.4-.4,4.9-.4,7.3-.5v-.2Z"/>
    <path class="cls-1" d="M281.4,382.8c-4.7,3-10,4.1-15.7,3.5-1.3-.1-3-.9-3.6-1.9-1-1.8-2.2-4.3-1.7-6,.3-1.3,3.5-2.8,4.9-2.5,5.5,1.3,10.8,3.2,16.2,4.9,0,.7-.1,1.4-.2,2h.1Z"/>
    <path class="cls-1" d="M638.5,381.1c5.9-2,10.9-3.8,16-5.2,2.5-.7,5.5.2,5.9,2.9.3,1.9-1.1,4.7-2.7,6.1-4,3.4-13.7,1.7-19.2-3.8Z"/>
    <path class="cls-1" d="M381.4,260.7c0-3.6,3.2-6.3,7-6.2,3.8.2,7.5,3.8,7.5,7.5s-3.7,7.3-7.1,7.1c-3.6-.2-7.5-4.6-7.4-8.4Z"/>
    <path class="cls-1" d="M528.2,254.5c4,0,7.2,3.1,7.1,6.8,0,3.7-3.7,7.4-7.4,7.5s-7-3.2-7-7,3.5-7.3,7.4-7.3h0Z"/>
    <path class="cls-1" d="M630.5,359c-1.5-1.1-2.9-1.6-3.2-2.5s.2-2.6.9-3.1c3.5-2.6,7.1-5.1,11-7.1,1.1-.6,3.5.2,4.4,1.2.6.6.3,3.5-.5,4.1-4,2.7-8.3,4.9-12.6,7.4h0Z"/>
    <path class="cls-1" d="M304.2,340.8c-1.7.2-3.5.9-5.1.5-3.4-.9-6.7-2-9.8-3.6-1.3-.7-2.8-3-2.6-4.3.6-2.4,3-3.6,5.4-2.6,4.6,1.9,9.1,4.3,12.2,8.4,0,.6-.2,1.1-.3,1.7h.2Z"/>
    <path class="cls-1" d="M615.5,338.7c3.3-3.9,7.6-6.6,12.4-8.2,1.4-.5,4,.9,5.1,2.2,1.7,2.1-.3,3.6-2,4.4-3.5,1.6-7.1,3-10.7,4.1-1.3.4-3.1-.6-4.6-.9,0-.5,0-1,0-1.6h-.1Z"/>
    <path class="cls-1" d="M638.8,372.1c-1-.8-2.5-1.4-2.9-2.4-.3-.6.7-2.3,1.5-2.8,3.1-1.9,6.3-3.7,9.7-5.2,2.5-1.1,5.1-.5,6.2,2.2,1.1,2.9-1.3,4-3.5,4.8-3.4,1.2-6.9,2.2-10.9,3.5h0Z"/>
    <path class="cls-1" d="M292.8,356.6c-.9.4-2.4,1.6-3.3,1.3-4.4-1.7-8.8-3.5-12.8-5.9-2.5-1.5-2-4.2.5-5.3,2.9-1.3,15.2,5.9,15.6,10h0Z"/>
    <path class="cls-1" d="M284.8,369.5c-6,2.3-11.2.9-16.1-2.1-.8-.5-1.6-2.5-1.3-2.9,1-1.2,2.7-3,3.9-2.8,5.3.9,10.1,3.3,13.5,7.9h0Z"/>
    <path class="cls-1" d="M593.5,294.7c-.3.6-.5,1.7-1.1,2.4-2.8,2.9-5.6,5.8-8.6,8.5-.8.7-2.4.5-3.7.6,0-1.3-.7-3,0-3.8,2.6-3.5,5.4-6.9,8.5-10,2.1-2,4.8-.9,5,2.2h0Z"/>
    <path class="cls-1" d="M337.7,307.8c-3.9-4.1-7.4-7.5-10.6-11.2-2.3-2.6-2.1-2.7,1.6-6.4,4,4.2,8,8.5,12.3,13-1,1.4-1.8,2.5-3.2,4.5h0Z"/>
    <path class="cls-1" d="M606.1,330.3c-1-2.7-2.1-4.7-1.8-5.1,3.6-3.3,7.3-6.4,11.2-9.2.5-.3,2.3.6,3,1.4.5.6.7,2.4.3,2.8-3.8,3.2-7.7,6.2-12.8,10.2h0Z"/>
    <path class="cls-1" d="M300.2,318.9c1.9-3.1,3.9-4,6.8-1.6,3.2,2.7,6.5,5.2,10.7,8.6-2.1,1.1-3.8,2.6-4.6,2.2-4.8-2.2-9.8-4.4-12.9-9.3h0Z"/>
    <path class="cls-1" d="M567.1,274.9c-3,3.4-5.9,6.8-9,10.1-.5.5-2.2.3-2.8-.2s-1.1-2.1-.7-2.7c1.9-3.3,3.8-6.7,6.2-9.7.7-.8,2.9-.7,4.3-.5.6.1,1.1,1.5,2.1,3h0Z"/>
    <path class="cls-1" d="M590.7,314.5c3.7-3.6,7-7.1,10.7-10.3.8-.7,2.5-.3,3.8-.4,0,1.4.2,3.1-.5,4.1-2.1,2.8-4.7,5.2-7,7.8-2.2,2.4-4.2,2.1-6.9-1.2h0Z"/>
    <path class="cls-1" d="M566.4,292.4c2.9-3.4,5.6-7,8.7-10.2.7-.7,2.5-.7,3.7-.4.5.1,1.2,2.1.8,2.6-2.6,3.5-5.2,6.9-8.2,10-.6.7-2.7,0-4.1-.2-.3-.6-.6-1.2-.8-1.8h-.1Z"/>
    <path class="cls-1" d="M316.5,301.8c3.4,3.8,6.8,7.5,10.1,11.2,2.1,2.4,0,3.3-2.1,4.7-3.3-3.2-6.6-6.5-10-9.8-2.1-2.1-1.8-4,1.9-6.1h.1Z"/>
    <path class="cls-1" d="M350,296.1c-1.4-.6-2-.7-2.3-1.1-2.7-3-5.5-5.8-7.9-9.1-.6-.8.3-2.7.5-4.1,1.2.3,2.9.2,3.6,1,2.6,2.8,5,5.8,7.1,9.1.5.8-.6,2.6-1,4.2h0Z"/>
    <path class="cls-1" d="M362.4,285.3c-1.5-.4-3.4-.4-4.3-1.4-2.2-2.4-4.2-5.1-5.9-8-.5-.9.2-2.5.3-3.7,1.4.2,3.5-.1,4.2.7,2.6,3.3,4.8,7,7.1,10.6-.5.6-.9,1.2-1.4,1.8h0Z"/>
    <path class="cls-1" d="M318.6,387.1v-8.6h8.1v8.6h-8.1Z"/>
    <path class="cls-1" d="M373.1,278.1c-2.4-3.1-4.9-6.2-7-9.5-.5-.8-.2-2.8.5-3.7.4-.6,2.8-.8,3.2-.4,2.3,3.1,4.5,6.4,6.4,9.9.4.7-.9,2.2-1.4,3.4-.5,0-1.1.2-1.6.2h-.1Z"/>
    <path class="cls-1" d="M551.8,267.3c-2.6,3.1-4.9,6.5-8,9.2-1.5,1.3-3.9-.4-2.9-2.4,1.6-3.4,4-6.4,6.4-9.3.4-.5,2.6.5,3.9.9.2.6.4,1.1.6,1.7h0Z"/>
    <path class="cls-1" d="M454.2,342.1c19.3.7,36.8,1.6,53.2,8.6,3.5,1.5,6.9,3.6,9.5,6.3,4.2,4.2,3.5,8.6-2.2,10.5-9.1,3-18.4,5.7-27.8,7.1-23.2,3.7-46.5,2.7-69.5-2-6.1-1.2-12.2-3.3-18-5.6-4.4-1.8-5.3-4.5-2.5-8.3,2.2-2.9,5.4-5.6,8.7-7.2,10.4-5,21.6-6.9,32.9-8.3,5.7-.7,11.5-.9,15.6-1.2h0ZM461.1,348.4c-11.9.9-20.6,1.4-29.3,2.5-4.3.5-8.5,2-12.6,3.6-1.2.5-1.6,2.9-2.4,4.5,1.6.7,3.2,1.5,4.9,1.9.7.2,1.6-.5,2.5-.8,21.9-6.7,43.9-6.1,65.9-.4,1.5.4,3.2,1.5,4.5,1.2,1.7-.4,3.1-1.9,4.6-2.9-.9-1.3-1.6-2.9-2.8-3.8-1.2-.9-2.9-1.3-4.4-1.5-11.2-1.6-22.5-3.2-30.8-4.3h-.1Z"/>
    <path class="cls-1" d="M386.7,360.1c-8.2-1.1-10.3-8.3-3.8-13.5,4.4-3.5,9.7-6.5,15-8.5,21.6-7.9,44.1-9.9,66.8-9.2,16.9.5,33.7,2.1,49.7,7.9,5.7,2.1,11,5.3,16.3,8.3,1.5.8,2.7,2.3,3.7,3.7,3.4,4.5,2.6,7.5-2.5,10-.9.5-2,.7-3.3,1.2-3.5-13.1-14.7-15.9-25.3-18.4-32.2-7.5-64.3-7.6-96.2,1.7-1,.3-2,.6-3,1-8.1,2.7-15.3,6.4-17.4,15.8h0Z"/>
    <path class="cls-1" d="M441.8,598.7h7.8c.4,4.9-.3,10.2,4.1,13.6,1.9,1.4,4.4,2.8,6.6,2.8s5.2-1.1,7.2-2.6c1.9-1.4,3.3-3.7,4.2-5.9.9-2.4,1-5.1,1.5-7.8h7.8c.8,8.1-.5,15.2-7.1,20.4-6.2,4.9-16,5.6-22.8,1.5-7.7-4.6-10.8-10.2-9.2-22.1h-.1Z"/>
    <path class="cls-1" d="M697.4,531.5c-3.2,4.2-8,5.5-12.6,6.7-.7.2-2.4-.9-2.4-1.3,0-1.6,0-3.6,1-4.8,2.7-3.6,9.1-3.7,14.1-.6h0Z"/>
    <path class="cls-1" d="M234.2,538.4c-6.1-.8-11.4-2.1-14.4-8,9.4-2.6,15.5.6,14.4,8Z"/>
    <g>
      <path class="cls-1" d="M270.4,709.4l.6-15-7.5,9.6-6.1-4.7,17-22,6.1,4.7-7.3,9.5,14.2-4.2,7,5.5-16.3,4.4-.3,17.9-7.4-5.7h0Z"/>
      <path class="cls-1" d="M299.1,723.3l-8.3-5.2-3.7,3.1-6.9-4.3,23.3-18.2,7.6,4.7-6.2,28.9-6.9-4.3,1.1-4.6h0ZM300.6,717.3l2.2-9.2-7.3,6,5,3.2h0ZM314.2,698.9l-10.4-2,2.8-4.4,10.7,1.5-3.1,4.9Z"/>
      <path class="cls-1" d="M343.1,720.4l-21,20.5-8.8-4.4,3.9-29.1,7.4,3.7-3.4,20.8,14.6-15.1,7.4,3.7h-.1Z"/>
      <path class="cls-1" d="M349.2,729.3l-1.7,4.2,8.2,3.3-2.2,5.5-8.2-3.3-1.8,4.6,9.3,3.7-2.3,5.7-16.5-6.6,10.3-25.8,16.5,6.6-2.3,5.8-9.3-3.7ZM358.9,720.6h-10.6l1.9-4.9,10.8-.5-2.2,5.4h.1Z"/>
      <path class="cls-1" d="M387.8,735.6l-7.9,26.6-7.4-2.2,3.2-10.7-9-2.7-3.2,10.7-7.4-2.2,7.9-26.6,7.4,2.2-3,10,9,2.7,3-10,7.4,2.2Z"/>
      <path class="cls-1" d="M403.5,762.4l-9.7-1.9-2.3,4.2-8-1.5,15.2-25.4,8.8,1.7,4.7,29.2-8-1.5-.6-4.7h-.1ZM402.7,756.3l-1.3-9.4-4.6,8.3,5.8,1.1h.1ZM408.8,734.2l-10.4,1.9,1-5.1,10.5-2.5-1.1,5.7h0Z"/>
      <path class="cls-1" d="M424.9,763.6l11.5,1.1-.6,6.2-20.1-2,.6-5.8,12.9-14.5-11.4-1.1.6-6.2,20.1,2-.6,5.8-13,14.5Z"/>
      <path class="cls-1" d="M455.2,749.9v4.5h8.9c0,0,0,5.8,0,5.8h-8.8v5.1l10.1-.2v6.2l-17.7.3-.5-27.8,17.8-.3v6.2c.1,0-9.9.2-9.9.2h.1ZM460.8,738.1l-9.8,4v-5.2l9.7-4.6v5.8h0Z"/>
      <path class="cls-1" d="M473.3,769c-2.2-1.4-3.5-3.5-3.9-6.3l8.2-.6c.2,1,.5,1.6,1,2s1.2.6,2,.5c.7,0,1.3-.3,1.7-.7.4-.4.6-.9.6-1.5s-.5-1.4-1.3-1.8c-.8-.4-2.1-.8-3.8-1.2-1.9-.5-3.4-.9-4.5-1.4-1.2-.5-2.2-1.2-3.1-2.2s-1.4-2.4-1.6-4.2c-.1-1.8.2-3.3,1-4.7.8-1.3,1.9-2.4,3.5-3.2,1.5-.8,3.3-1.2,5.3-1.4,3.2-.3,5.9.3,7.9,1.6,2,1.4,3.2,3.4,3.6,6.1l-8.4.7c0-.8-.4-1.4-.9-1.8-.5-.4-1.2-.5-1.9-.5s-1,.3-1.4.6c-.3.4-.5.9-.4,1.5,0,.5.3,1,.7,1.3.4.3,1,.6,1.6.9.6.2,1.5.5,2.8.8,1.8.5,3.3.9,4.5,1.4s2.2,1.2,3.1,2.2,1.4,2.3,1.6,3.9c.1,1.7-.2,3.2-.9,4.5-.7,1.4-1.8,2.5-3.3,3.4s-3.3,1.4-5.4,1.6c-3.2.3-5.9-.3-8.1-1.7l-.2.2Z"/>
      <path class="cls-1" d="M522.1,752.5c1.2,1,1.9,2.4,2.2,3.9.4,2.3,0,4.3-1.4,5.9-1.4,1.6-3.5,2.7-6.4,3.2l-13.5,2.6-5.2-27.3,13.1-2.5c2.8-.5,5.1-.3,6.9.6,1.8.9,2.9,2.5,3.4,4.8.3,1.6,0,3-.5,4.2s-1.6,2.2-2.9,2.8c1.7,0,3.1.6,4.3,1.7h0ZM507.5,750.2l3.8-.7c1.9-.4,2.7-1.3,2.4-2.9-.3-1.6-1.4-2.3-3.3-1.9l-3.8.7.9,4.8h0ZM516.3,756.8c-.2-.8-.5-1.4-1.1-1.8-.6-.3-1.3-.4-2.3-.2l-4.4.8.9,5,4.4-.8c1.9-.4,2.7-1.3,2.4-2.9h0Z"/>
      <path class="cls-1" d="M535.9,759.5c-2.4-.6-4.6-1.7-6.4-3.4-1.8-1.7-3.1-3.9-3.9-6.5-.8-2.6-.8-5.1-.2-7.6.6-2.4,1.8-4.5,3.6-6.3s3.9-3,6.4-3.8c2.5-.7,5-.8,7.4-.3,2.4.6,4.5,1.7,6.4,3.4,1.8,1.7,3.1,3.9,3.9,6.5.8,2.6.9,5.1.3,7.6-.6,2.4-1.8,4.5-3.5,6.3-1.8,1.8-3.9,3-6.4,3.8-2.5.7-5,.8-7.4.3h-.2ZM545.2,749.2c.7-1.6.8-3.4.2-5.4-.6-2.1-1.7-3.6-3.1-4.5-1.5-.9-3.1-1.1-5-.5s-3.2,1.6-4,3.2c-.7,1.5-.8,3.4-.2,5.5s1.6,3.6,3.1,4.5c1.4.9,3.1,1.1,5,.5s3.2-1.6,3.9-3.2h0Z"/>
      <path class="cls-1" d="M574.5,748l-9-7.4-.8.3,3.8,9.5-7.2,2.9-10.4-25.8,11.3-4.6c2.1-.8,4-1.2,5.7-1,1.7,0,3.2.7,4.4,1.6s2.2,2.2,2.8,3.8c.7,1.8.8,3.5.4,5.2-.4,1.7-1.5,3.2-3.1,4.5l9.9,7.7-8,3.2h.2ZM562.8,735.9l3.5-1.4c1-.4,1.6-.9,1.9-1.6.3-.7.3-1.4,0-2.3-.3-.8-.8-1.4-1.5-1.7s-1.5-.2-2.5.2l-3.5,1.4,2.2,5.4h-.1Z"/>
      <path class="cls-1" d="M600.8,722.3c1.4.7,2.5,1.7,3.2,3.2,1.1,2.1,1.2,4.1.4,6.1-.8,1.9-2.6,3.6-5.2,4.9l-12.2,6.3-12.7-24.7,11.9-6.1c2.5-1.3,4.8-1.8,6.8-1.4,2,.4,3.5,1.6,4.6,3.6.7,1.4,1,2.9.7,4.2-.3,1.4-.9,2.5-2,3.5,1.6-.4,3.1-.3,4.6.4h0ZM586.2,724.2l3.5-1.8c1.7-.9,2.2-2,1.5-3.5-.8-1.5-2-1.8-3.7-.9l-3.5,1.8,2.2,4.4ZM596.5,728c-.4-.7-.9-1.2-1.6-1.4-.7-.2-1.4,0-2.3.4l-4,2,2.3,4.5,4-2c1.7-.9,2.2-2.1,1.5-3.5h0Z"/>
      <path class="cls-1" d="M608.1,692.6l-6.2,8.6-2.8-4.4,5.9-9.1,3.1,4.9ZM623.6,716.8l-8.3,5.3,1.2,4.6-6.8,4.4-6.4-28.9,7.5-4.8,23.5,18-6.9,4.4-3.7-3h0ZM618.8,712.8l-7.4-6,2.3,9.2,5-3.2h.1Z"/>
      <path class="cls-1" d="M648.2,704.5l-10.7-4.7-.7.5,6.3,8.1-6.1,4.7-17.1-21.9,9.6-7.5c1.8-1.4,3.5-2.2,5.2-2.6,1.7-.3,3.3-.2,4.7.4,1.5.6,2.7,1.5,3.7,2.9,1.2,1.5,1.8,3.1,1.8,4.9s-.5,3.5-1.7,5.2l11.6,4.7-6.8,5.3h.2ZM633.7,696.1l3-2.4c.8-.6,1.3-1.3,1.4-2,0-.7,0-1.5-.7-2.2-.5-.7-1.2-1.1-1.9-1.2s-1.5.2-2.3.8l-3,2.3,3.6,4.6h0Z"/>
    </g>
    <g>
      <path class="cls-1" d="M222.3,361.6c-4.1,2.1-8.5,2.1-13.3.1l6.6-13.2c1.6.6,3,.7,4.1.3,1.1-.4,2-1.3,2.6-2.6.6-1.1.7-2.2.5-3.2s-.8-1.8-1.8-2.3c-1.3-.6-2.6-.5-3.9.3-1.3.9-3.1,2.4-5.4,4.7-2.4,2.4-4.5,4.3-6.3,5.7-1.8,1.3-3.9,2.2-6.3,2.7-2.4.5-5,0-7.9-1.4s-5-3.4-6.3-5.8-1.9-5.2-1.7-8.3c.2-3.1,1.1-6.2,2.7-9.4,2.6-5.2,5.9-8.7,9.8-10.6,4-1.9,8.2-1.9,12.7.1l-6.7,13.5c-1.4-.6-2.6-.7-3.7-.3-1.1.4-1.9,1.3-2.5,2.5-.5.9-.6,1.8-.3,2.7.3.9.9,1.5,1.9,2,.8.4,1.7.5,2.7.1.9-.3,1.9-.9,2.8-1.6.9-.7,2.2-1.9,3.8-3.5,2.4-2.3,4.5-4.2,6.4-5.6s4-2.3,6.3-2.8c2.4-.5,4.9,0,7.5,1.2,2.7,1.3,4.7,3.2,6.2,5.5,1.4,2.4,2.2,5.1,2.1,8.2,0,3.1-.9,6.4-2.6,9.8-2.6,5.2-5.9,8.8-10.1,10.9v.3Z"/>
      <path class="cls-1" d="M241.2,312.9l12-16.9,9.1,6.5-21,29.5-8.6-6.1-11-33-11.9,16.7-9.1-6.5,21-29.5,8.6,6.1,10.8,33.1h.1Z"/>
      <path class="cls-1" d="M234,245.8l-6.9,17.7-6.9-6.4,6.1-18.4,7.7,7.1h0ZM240,253.7l36.6,33.8-9.4,10.2-36.6-33.8,9.4-10.2h0Z"/>
      <path class="cls-1" d="M286.2,213.5l18.2,49.4-13.7,11.2-44.9-27.7,11.5-9.4,31.5,20.7-14.1-35,11.4-9.4v.2Z"/>
      <path class="cls-1" d="M304.8,202.9l13.9,25.3c1.3,2.4,2.8,3.9,4.6,4.5,1.8.7,3.8.4,6-.8s3.6-2.8,4-4.7,0-4-1.3-6.4l-13.9-25.3,12.1-6.7,13.9,25.3c2.2,4,3.2,7.9,3.1,11.6-.1,3.8-1.3,7.2-3.4,10.2s-5,5.5-8.5,7.5-7.1,3-10.7,3.1-6.9-.8-10.1-2.7c-3.1-1.9-5.8-4.9-8-9l-13.9-25.3,12.1-6.6h0ZM298.5,199.6c-1.4-.4-2.5-1.3-3.3-2.7s-1-2.9-.6-4.4,1.3-2.6,2.7-3.3c1.4-.8,2.9-1,4.4-.6s2.6,1.4,3.4,2.8c.8,1.4.9,2.8.5,4.3s-1.4,2.6-2.8,3.4c-1.4.8-2.8,1-4.3.5h0ZM311.7,192.3c-1.4-.4-2.5-1.3-3.3-2.7s-1-2.9-.6-4.4,1.3-2.6,2.7-3.3c1.4-.8,2.8-.9,4.3-.5s2.6,1.4,3.4,2.8c.8,1.4.9,2.8.5,4.3s-1.4,2.6-2.8,3.3c-1.4.8-2.8,1-4.3.5h0Z"/>
      <path class="cls-1" d="M400.4,217.1l-13.2,4.3-26.2-20.8,8.6,26.5-13.2,4.3-15.4-47.4,13.2-4.3,26.3,21.1-8.7-26.8,13.2-4.3,15.4,47.4h0Z"/>
      <path class="cls-1" d="M432.3,213l-18.2-19.7,2.7,21.7-13.7,1.7-6.2-49.4,13.7-1.7,2.7,21.3,12.7-23.2,15.8-2-15.2,26.3,22.3,23.1-16.6,2.1v-.2Z"/>
      <path class="cls-1" d="M481.9,202.7l15.4,1.5-1,10.6-29.2-2.8,4.8-49.6,13.8,1.3-3.7,39h0Z"/>
      <path class="cls-1" d="M521.5,180.7l-1.9,7.9,15.5,3.7-2.4,10.2-15.5-3.7-2.1,8.7,17.5,4.1-2.6,10.8-31-7.3,11.5-48.5,31,7.3-2.6,10.8-17.5-4.1h0Z"/>
      <path class="cls-1" d="M552.5,219.8l14.4,5.7-3.9,9.9-27.3-10.8,18.3-46.3,12.9,5.1-14.4,36.5h0Z"/>
      <path class="cls-1" d="M589.9,250.5l-2.4-26.7-11.1,18.8-11.9-7,25.3-42.9,11.9,7-10.9,18.5,24.2-10.6,13.8,8.1-28,11.5,3.5,31.9-14.4-8.5h0Z"/>
      <path class="cls-1" d="M646,229.6l-18.8,21.9c-1.7,2-2.6,4-2.6,5.9s1,3.7,2.9,5.4c1.9,1.7,3.9,2.3,5.8,2.1,2-.3,3.8-1.4,5.5-3.4l18.8-21.9,10.5,9-18.8,21.9c-3,3.5-6.2,5.8-9.8,7s-7.1,1.3-10.7.4c-3.6-.9-6.9-2.7-10-5.4-3.1-2.6-5.3-5.6-6.6-8.9-1.4-3.3-1.7-6.8-1-10.4s2.6-7.2,5.6-10.7l18.8-21.9,10.5,9h-.1ZM646.9,222.5c0-1.5.4-2.8,1.4-4.1,1.1-1.3,2.4-1.9,3.9-2.1,1.5-.1,2.9.3,4.1,1.4,1.2,1.1,1.9,2.4,2,3.9s-.4,2.9-1.4,4.2c-1,1.2-2.3,1.9-3.8,2-1.5,0-2.9-.4-4.1-1.5-1.2-1-1.9-2.3-2-3.8h-.1ZM658.3,232.3c0-1.5.4-2.8,1.4-4.1,1.1-1.2,2.4-1.9,3.9-2.1,1.5-.1,2.9.3,4.1,1.4,1.2,1,1.9,2.3,2,3.9,0,1.5-.4,2.9-1.4,4.2-1,1.2-2.3,1.9-3.8,2s-2.9-.4-4.1-1.4c-1.2-1-1.9-2.3-2-3.8h-.1Z"/>
      <path class="cls-1" d="M666.5,324.4l-8.6-10.8,10.2-31.8-21.7,17.4-8.6-10.8,38.9-31.1,8.6,10.8-10.5,32,22-17.6,8.6,10.8-38.9,31.1Z"/>
      <path class="cls-1" d="M681.7,352.8l12-24-19.3,10.2-6.5-12.2,44.1-23.3,6.5,12.3-19,10,26.2,3.7,7.5,14.1-29.9-4.9-13.7,29-7.8-14.8h0Z"/>
    </g>
    <circle class="cls-1" cx="253.2" cy="680.2" r="4.1" transform="translate(-65.8 28.3) rotate(-5.7)"/>
    <circle class="cls-1" cx="656.5" cy="680.2" r="4.1"/>
    <circle class="cls-1" cx="722.6" cy="375.6" r="6.7"/>
    <circle class="cls-1" cx="194.4" cy="375.6" r="6.7"/>
  </g>
  <g>
    <path class="cls-1" d="M154.9,461.5c2.4,0,4.3-.8,5.7-2.3,1.4-1.6,2.1-3.7,2.1-6.3s-.7-4.8-2.1-6.4c-1.4-1.5-3.3-2.3-5.7-2.3s-4.3.8-5.7,2.3c-1.4,1.6-2.1,3.7-2.1,6.4s.7,4.8,2.1,6.3c1.4,1.6,3.3,2.3,5.7,2.3Z"/>
    <path class="cls-1" d="M383.6,578.7c-1.7,0-3.5,0-5.3,0-58.2,0-116.4,0-174.6.2-3.8,0-6.6-1.1-9.4-3.5-12.6-11.2-23.9-23.5-32-38.2-8.7-15.6-16.6-31.7-24.8-47.6-.3-.7-.3-1.5-.5-2.4h150.1c-2.9-3.2-5.6-6-8-8.9-6.3-7.6-6-12.1,1.2-19,2.5-2.3,5.2-4.5,7.8-6.8-2.7-2.1-5.1-3.9-7.3-5.8-8-6.9-8.5-11.9-2.2-20.4,2.3-3.1,4.9-6.1,7.8-9.7H127.5v-8.2c14.8,1.7,25.6-6,35.9-14.4,1.9-1.5,3.5-4.6,3.6-7,.4-10.2.3-20.4,0-30.6,0-2-1.2-4.3-2.6-5.9-2.9-3.3-6.1-6.3-9.3-9.3-2.9-2.7-4-5.8-3.9-9.8.2-10.5-.5-21.1.1-31.6.4-7.1-1.8-11.7-8.1-14.7-6.3-3.1-10.6-8.2-14.3-14.1-5.1-8-10.6-15.7-16.1-23.8-4.4,6.3-8.8,12.2-12.6,18.4-5,8.1-10.4,15.6-19.2,20-4.6,2.3-5.7,6.4-5.7,11.5.2,29,.2,58,0,87,0,4,1.2,7.3,4,9.9,8.7,8.3,18,15.3,30.9,14.5.8,0,1.6.3,2.9.5-.2,2.6-.4,5-.6,7.8H37.2c6.8,14.1,18.8,22.9,27.9,34-8.8,12.3-21.4,21.5-27.8,36,1.9.1,2.9.2,4,.2,17.1,0,34.1-.1,51.2,0,1.9,0,4,0,5.6.8,13.8,6.4,26,14.8,33.8,28.3,4.9,8.3,9.4,16.9,14,25.3.5.9.8,2,1.3,3.3-6.1-.7-10.5-2.5-12.9-8.1-1.1-2.7-3.1-5.1-5.1-7.4-14.7-17.5-34-24.9-56.4-24.3-4.6.1-9.3,2.8-13.5,5.1-4.6,2.6-4.6,4.4-1.9,9.1,8.7,15,21,25.7,37.8,31,18.1,5.7,36.7,7.8,55.5,8.3,2,0,4.6.3,5.7,1.5,5.3,5.8,10.1,11.9,15.8,18.8H43c0,.3-.2.7-.3,1,4.7,3.5,9.6,6.8,14.1,10.6,2.9,2.5,5.9,3.2,9.6,3.2h317c4.6,0,7.4-2.8,7.5-7,.1-4.1-2.8-7.3-7.1-7.7h-.2ZM215.4,436.1h21.6v7.5h-12.2v5.5h10.8v7.1h-10.8v6.1h12.2v7.5h-21.6v-33.8h0ZM182.7,436.1h22.9v7.5h-13.5v5.9h10v7.1h-10v13.2h-9.4v-33.8h0ZM139.9,443.9c1.6-2.6,3.7-4.7,6.3-6.2,2.7-1.5,5.6-2.2,8.7-2.2s6.1.7,8.8,2.2c2.6,1.5,4.7,3.5,6.3,6.2,1.5,2.6,2.3,5.6,2.3,8.9s-.8,6.3-2.3,8.9-3.6,4.7-6.3,6.2-5.6,2.2-8.7,2.2-6.1-.7-8.7-2.2c-2.7-1.5-4.8-3.5-6.3-6.2-1.6-2.6-2.3-5.6-2.3-8.9s.8-6.3,2.3-8.9h-.1ZM153.6,375.3c.6,5.4-2.4,8.9-6.4,11.8-5.1,3.7-12.1,5.5-20.2,5.3,4-10.8,10.8-17.9,21.5-21,3.4-1,4.7.3,5.1,3.9h0ZM129.9,295.1c6.3,2.8,7.1,4.3,6.6,11-.3,4.4-.5,8.8-.2,13.2.3,4-1.3,6.3-4.6,7.9-1.9.9-3.7,2-6.6,3.7,1.1-12.6-2.6-24.9,4.8-35.7h0ZM136.1,340.6c4.1,4.8,8.1,9.4,12.4,14.5-8.2,2.6-15.6,4.9-23.8,7.5.6-9.7,3.2-17.1,11.3-22h.1ZM89.6,299c.5-3.3,6-4.7,8.9-2.8,8,5.3,13,15.6,12.2,27.2-6.6-4.3-12.6-7.8-18.2-11.8-4.3-3.1-3.6-8.2-3-12.6h0ZM89.5,329.3c14.8,7.1,22.3,17.5,21.3,29.1-22.8-7.7-24-13.5-21.3-29.1ZM89.5,367.2c13.3,4,21.7,13,22.3,23.7-15.4,3.2-24.4-6.3-22.3-23.7ZM107,283.7c2-3,3.7-5.5,5.4-8.1,8.8,5.5,4.1,12.8,2.6,19.8-2.6-3.8-5.2-7.6-8-11.7h0ZM107.1,459.2c1.3,1.6,3,2.3,5.2,2.3s2.6-.3,3.7-1,1.9-1.6,2.5-2.9h10.1c-.8,3.9-2.7,6.9-5.6,9.2-2.9,2.3-6.4,3.4-10.6,3.4s-6.3-.7-8.8-2.2c-2.6-1.5-4.5-3.5-5.9-6.1s-2.1-5.6-2.1-8.9.7-6.3,2.1-8.9,3.4-4.6,5.9-6.1c2.6-1.5,5.5-2.2,8.8-2.2s7.8,1.1,10.6,3.4c2.9,2.3,4.7,5.3,5.6,9.2h-10.1c-.6-1.3-1.4-2.3-2.5-2.9-1.1-.7-2.3-1-3.7-1-2.2,0-3.9.8-5.2,2.3-1.3,1.6-1.9,3.6-1.9,6.2s.6,4.7,1.9,6.3h0ZM76.1,518.3c14.5,2,27,6.6,37.8,16.1-11,3.7-30.3-4.5-37.8-16.1Z"/>
  </g>
  <g>
    <polygon class="cls-1" points="772.8 457.2 780 457.2 776.4 446.2 772.8 457.2"/>
    <path class="cls-1" d="M820,450.1c.6-.6,1-1.5,1-2.6s-.3-1.9-1-2.6c-.7-.6-1.6-.9-2.9-.9h-4.7v7h4.7c1.3,0,2.2-.3,2.9-.9Z"/>
    <path class="cls-1" d="M815.1,489.4c3.4-1.5,7.4-2.4,11.1-2.4,15.6-.2,31.3,0,46.9,0s3.6-.2,6-.3c-7.6-13.9-19.1-23.6-27.7-35.6,9.3-11.2,21.4-20,28.1-34.4h-69v-8.3c1-.2,1.7-.4,2.4-.3,11.8,1,20.9-4.8,29.4-11.9,4.3-3.6,6.3-7.9,6.2-13.8-.3-26,0-52,0-78s0-16.1-13.9-24.3c-2-1.2-3.7-3.1-5-5-6.4-9.2-12.7-18.5-19.4-28.5-3.9,5.8-7.7,10.8-10.9,16.1-6.1,10.2-13.2,19.3-24,25-2.7,1.4-3.7,3.8-3.6,7,.2,8.6,0,17.2,0,25.8,0,17.2,0,17.1-12.6,29-1.6,1.5-3,4.1-3.1,6.2-.3,10.4-.2,20.7,0,31.1,0,2,.5,4.8,1.9,5.8,10.3,7.4,19.8,16.7,34,15.8,1.3,0,2.6.3,4.1.5v4.1c0,1,0,2.1-.3,4.1h-166.4c3.5,3.9,6.6,7,9.2,10.5,4.9,6.7,4.4,11.9-1.6,17.7-2.6,2.5-5.6,4.7-8.3,6.9,3.5,3.7,7.1,7.2,10.5,11,2.9,3.3,2.9,7.1.8,10.7-1.4,2.4-3.3,4.5-5.1,6.7-1.6,2-3.4,3.8-5.9,6.6h150.2c-.5,1.4-.7,2.2-1.1,3-6.1,12.5-11.9,25.1-18.3,37.3-9.6,18.2-21.8,34.3-37.7,47.6-3,2.5-6,3.6-9.9,3.6h-174c-2.4,0-5,0-7.3.6-3.3.7-5.6,4.2-5.3,7.5.4,3.5,2.4,5.8,6,6.4,1.2.2,2.5,0,3.7,0h316.9c1.4,0,3.1.2,4.1-.5,5.9-4.2,11.6-8.6,17.4-13-.2-.5-.4-.9-.5-1.4h-128.6c5.3-6.6,10-12.6,14.8-18.3,1-1.1,2.8-2,4.4-2.1,9.6-.7,19.3-.8,28.8-1.8,14.2-1.5,28-4.7,40.9-11.3,11.9-6.1,20-15.8,26.2-27.3,1.6-3,1.1-5.5-1.9-7.1-3-1.7-6-3.7-9.3-4.7-8.7-2.8-17.4-1.1-25.9,1.2-17.3,4.6-31.9,13.3-39.7,30.1-2.8,6.1-7.6,6.3-13.5,8,4.7-8.8,8.6-16.6,12.9-24.3,7.7-13.9,18.4-24.8,33.1-31.3h-.1ZM812.6,392.1c-1.4-9.3,9.3-21.7,21-24.4,3.6,14.8-5.3,25.2-21,24.4ZM813.6,358.4c-1.7-11,7.8-24.1,20.7-28.6,2.1,16.5-3.4,24.1-20.7,28.6ZM826.1,296c3.7-2.5,8.4,0,8.6,4.6.2,4.1-.5,8.3-4,10.9-5.3,3.9-10.8,7.4-16.3,11.1-.5-.5-1-.9-1.5-1.4.5-10.3,4.1-19.2,13.2-25.3h0ZM810.4,273c2.8,3.6,5.1,6.4,7.4,9.3-3.4,5.1-6.7,9.9-10.8,15.9-1-6-2.7-10.8-2.3-15.4.3-3.2,3.4-6.1,5.7-9.8h0ZM803.1,436.1h14.8c2.7,0,5,.5,6.9,1.4s3.3,2.2,4.3,3.9c1,1.6,1.4,3.5,1.4,5.5s-.6,4.3-1.9,6.1c-1.3,1.7-3.1,3-5.5,3.7l7.6,13.2h-10.5l-6.7-12.5h-1v12.5h-9.4v-33.8h0ZM787.6,299.5c1.4-1.8,3.2-3.2,5-5.1,7.5,10.9,4.9,22.9,5.3,34.6h-1.9c-9.3-3.6-9.2-3.6-9.4-13.4,0-4-.7-8-.8-12,0-1.4.8-2.9,1.7-4.1h.1ZM786.6,340.5c8.4,4,11.1,11.2,12.4,19.9-9,2-15.7-4.8-24.7-4.7,4.4-5.5,8.2-10.2,12.3-15.2h0ZM770.7,382.2c-2.4-3-2.9-6.4-1.2-9.2,1.8-2.9,5.3-2.2,8.2-1,9.1,3.6,15.5,9.8,18.7,19.8-10.6.8-19.1-1.6-25.6-9.5h-.1ZM839.4,518.9c-9,12.2-21.1,17.2-37.1,15.9,11.3-9.8,23.7-14.1,37.1-15.9ZM691.4,469.9l-2.7-2.6c-3,2.1-6.7,3.1-10.9,3.1s-5-.4-6.9-1.3c-2-.9-3.5-2.1-4.6-3.6-1.1-1.6-1.6-3.4-1.6-5.4s.5-3.9,1.6-5.6,2.7-3,4.8-4.1c-.8-1-1.4-2-1.7-2.9-.4-.9-.5-1.9-.5-3,0-1.7.4-3.2,1.3-4.6.9-1.4,2.1-2.5,3.8-3.3s3.7-1.2,6-1.2,4.3.4,5.9,1.3c1.6.8,2.9,2,3.7,3.4s1.2,2.9,1.2,4.5h-8.7c0-.7-.2-1.3-.6-1.7-.4-.4-.9-.6-1.5-.6s-1.2.2-1.6.6c-.4.4-.6.9-.6,1.5,0,1.1.8,2.5,2.4,4.1l7.9,7.7c.3-.6.6-1.3.9-2.1l1-1.7h9.3l-1.4,2.7c-1.2,2.7-2.4,5.1-3.8,7l8.1,7.9h-10.8ZM748.5,467.4c-2,1.6-4.8,2.4-8.3,2.4h-16.7v-33.8h16.2c3.5,0,6.2.8,8.1,2.3,2,1.5,3,3.7,3,6.5s-.5,3.6-1.6,5c-1,1.3-2.4,2.2-4.1,2.7,2,.4,3.6,1.4,4.7,2.9,1.2,1.5,1.8,3.3,1.8,5.2,0,2.9-1,5.1-3,6.8h-.1ZM770.4,464.4l-1.8,5.5h-9.9l12.3-33.8h10.8l12.3,33.8h-9.9l-1.8-5.5h-12,0Z"/>
    <path class="cls-1" d="M674.4,457.2c-.4.7-.6,1.4-.6,2.1,0,1,.4,1.9,1.2,2.6s2,1.1,3.4,1.1,3.2-.4,4.5-1.1l-6.7-6.4c-.8.5-1.5,1.1-1.9,1.8h0Z"/>
    <path class="cls-1" d="M741.1,446.6c0-2-1.2-3-3.5-3h-4.7v5.9h4.7c2.4,0,3.5-1,3.5-2.9Z"/>
    <path class="cls-1" d="M738.2,456.2h-5.4v6.1h5.5c2.4,0,3.6-1,3.6-3s-.3-1.8-.9-2.3c-.6-.5-1.5-.8-2.7-.8h0Z"/>
  </g>
</svg>